  0
SECTION
  2
HEADER
  9
$ACADVER
  1
AC1012
  9
$DWGCODEPAGE
  3
ansi_1257
  9
$INSBASE
 10
0.0
 20
0.0
 30
0.0
  9
$EXTMIN
 10
-822.2995586985995
 20
1037.131385652563
 30
0.0
  9
$EXTMAX
 10
-762.2995586985993
 20
1130.631385652563
 30
0.0
  9
$LIMMIN
 10
0.0
 20
0.0
  9
$LIMMAX
 10
12.0
 20
9.0
  9
$ORTHOMODE
 70
     0
  9
$REGENMODE
 70
     1
  9
$FILLMODE
 70
     1
  9
$QTEXTMODE
 70
     0
  9
$MIRRTEXT
 70
     0
  9
$DRAGMODE
 70
     2
  9
$LTSCALE
 40
1.0
  9
$OSMODE
 70
 15295
  9
$ATTMODE
 70
     1
  9
$TEXTSIZE
 40
0.2
  9
$TRACEWID
 40
0.05
  9
$TEXTSTYLE
  7
STANDARD
  9
$CLAYER
  8
0
  9
$CELTYPE
  6
BYLAYER
  9
$CECOLOR
 62
   256
  9
$CELTSCALE
 40
1.0
  9
$DELOBJ
 70
     1
  9
$DISPSILH
 70
     0
  9
$DIMSCALE
 40
1.0
  9
$DIMASZ
 40
0.18
  9
$DIMEXO
 40
0.0625
  9
$DIMDLI
 40
0.38
  9
$DIMRND
 40
0.0
  9
$DIMDLE
 40
0.0
  9
$DIMEXE
 40
0.18
  9
$DIMTP
 40
0.0
  9
$DIMTM
 40
0.0
  9
$DIMTXT
 40
0.18
  9
$DIMCEN
 40
0.09
  9
$DIMTSZ
 40
0.0
  9
$DIMTOL
 70
     0
  9
$DIMLIM
 70
     0
  9
$DIMTIH
 70
     1
  9
$DIMTOH
 70
     1
  9
$DIMSE1
 70
     0
  9
$DIMSE2
 70
     0
  9
$DIMTAD
 70
     0
  9
$DIMZIN
 70
     0
  9
$DIMBLK
  1

  9
$DIMASO
 70
     1
  9
$DIMSHO
 70
     1
  9
$DIMPOST
  1

  9
$DIMAPOST
  1

  9
$DIMALT
 70
     0
  9
$DIMALTD
 70
     2
  9
$DIMALTF
 40
25.4
  9
$DIMLFAC
 40
1.0
  9
$DIMTOFL
 70
     0
  9
$DIMTVP
 40
0.0
  9
$DIMTIX
 70
     0
  9
$DIMSOXD
 70
     0
  9
$DIMSAH
 70
     0
  9
$DIMBLK1
  1

  9
$DIMBLK2
  1

  9
$DIMSTYLE
  2
STANDARD
  9
$DIMCLRD
 70
     0
  9
$DIMCLRE
 70
     0
  9
$DIMCLRT
 70
     0
  9
$DIMTFAC
 40
1.0
  9
$DIMGAP
 40
0.09
  9
$DIMJUST
 70
     0
  9
$DIMSD1
 70
     0
  9
$DIMSD2
 70
     0
  9
$DIMTOLJ
 70
     1
  9
$DIMTZIN
 70
     0
  9
$DIMALTZ
 70
     0
  9
$DIMALTTZ
 70
     0
  9
$DIMFIT
 70
     5
  9
$DIMUPT
 70
     0
  9
$DIMUNIT
 70
     2
  9
$DIMDEC
 70
     4
  9
$DIMTDEC
 70
     4
  9
$DIMALTU
 70
     2
  9
$DIMALTTD
 70
     2
  9
$DIMTXSTY
  7
STANDARD
  9
$DIMAUNIT
 70
     0
  9
$LUNITS
 70
     2
  9
$LUPREC
 70
     4
  9
$SKETCHINC
 40
0.1
  9
$FILLETRAD
 40
0.0
  9
$AUNITS
 70
     0
  9
$AUPREC
 70
     0
  9
$MENU
  1
.
  9
$ELEVATION
 40
0.0
  9
$PELEVATION
 40
0.0
  9
$THICKNESS
 40
0.0
  9
$LIMCHECK
 70
     0
  9
$CHAMFERA
 40
0.0
  9
$CHAMFERB
 40
0.0
  9
$CHAMFERC
 40
0.0
  9
$CHAMFERD
 40
0.0
  9
$SKPOLY
 70
     0
  9
$TDCREATE
 40
2452643.146717593
  9
$TDUPDATE
 40
2458903.858136551
  9
$TDINDWG
 40
0.2415541782
  9
$TDUSRTIMER
 40
0.0001195139
  9
$USRTIMER
 70
     1
  9
$ANGBASE
 50
0.0
  9
$ANGDIR
 70
     0
  9
$PDMODE
 70
     0
  9
$PDSIZE
 40
0.0
  9
$PLINEWID
 40
0.0
  9
$COORDS
 70
     1
  9
$SPLFRAME
 70
     0
  9
$SPLINETYPE
 70
     6
  9
$SPLINESEGS
 70
     8
  9
$ATTDIA
 70
     0
  9
$ATTREQ
 70
     1
  9
$HANDLING
 70
     1
  9
$HANDSEED
  5
8A7
  9
$SURFTAB1
 70
     6
  9
$SURFTAB2
 70
     6
  9
$SURFTYPE
 70
     6
  9
$SURFU
 70
     6
  9
$SURFV
 70
     6
  9
$UCSNAME
  2

  9
$UCSORG
 10
0.0
 20
0.0
 30
0.0
  9
$UCSXDIR
 10
1.0
 20
0.0
 30
0.0
  9
$UCSYDIR
 10
0.0
 20
1.0
 30
0.0
  9
$PUCSNAME
  2

  9
$PUCSORG
 10
0.0
 20
0.0
 30
0.0
  9
$PUCSXDIR
 10
1.0
 20
0.0
 30
0.0
  9
$PUCSYDIR
 10
0.0
 20
1.0
 30
0.0
  9
$USERI1
 70
     0
  9
$USERI2
 70
     0
  9
$USERI3
 70
     0
  9
$USERI4
 70
     0
  9
$USERI5
 70
     0
  9
$USERR1
 40
0.0
  9
$USERR2
 40
0.0
  9
$USERR3
 40
0.0
  9
$USERR4
 40
0.0
  9
$USERR5
 40
0.0
  9
$WORLDVIEW
 70
     1
  9
$SHADEDGE
 70
     3
  9
$SHADEDIF
 70
    70
  9
$TILEMODE
 70
     1
  9
$MAXACTVP
 70
    64
  9
$PINSBASE
 10
0.0
 20
0.0
 30
0.0
  9
$PLIMCHECK
 70
     0
  9
$PEXTMIN
 10
0.0
 20
0.0
 30
0.0
  9
$PEXTMAX
 10
0.0
 20
0.0
 30
0.0
  9
$PLIMMIN
 10
0.0
 20
0.0
  9
$PLIMMAX
 10
0.0
 20
0.0
  9
$UNITMODE
 70
     0
  9
$VISRETAIN
 70
     1
  9
$PLINEGEN
 70
     0
  9
$PSLTSCALE
 70
     1
  9
$TREEDEPTH
 70
  3020
  9
$PICKSTYLE
 70
     1
  9
$CMLSTYLE
  2
STANDARD
  9
$CMLJUST
 70
     0
  9
$CMLSCALE
 40
1.0
  9
$SAVEIMAGES
 70
     1
  0
ENDSEC
  0
SECTION
  2
CLASSES
  0
CLASS
  1
ACDBDICTIONARYWDFLT
  2
AcDbDictionaryWithDefault
  3
ObjectDBX Classes
 90
    32768
280
     0
281
     0
  0
CLASS
  1
ACDBPLACEHOLDER
  2
AcDbPlaceHolder
  3
ObjectDBX Classes
 90
        0
280
     0
281
     0
  0
CLASS
  1
LAYOUT
  2
AcDbLayout
  3
ObjectDBX Classes
 90
        0
280
     0
281
     0
  0
CLASS
  1
DICTIONARYVAR
  2
AcDbDictionaryVar
  3
ObjectDBX Classes
 90
        0
280
     0
281
     0
  0
CLASS
  1
TABLESTYLE
  2
AcDbTableStyle
  3
ObjectDBX Classes
 90
     4095
280
     0
281
     0
  0
CLASS
  1
MATERIAL
  2
AcDbMaterial
  3
ObjectDBX Classes
 90
     1153
280
     0
281
     0
  0
CLASS
  1
VISUALSTYLE
  2
AcDbVisualStyle
  3
ObjectDBX Classes
 90
     4095
280
     0
281
     0
  0
CLASS
  1
SCALE
  2
AcDbScale
  3
ObjectDBX Classes
 90
     1153
280
     0
281
     0
  0
CLASS
  1
CELLSTYLEMAP
  2
AcDbCellStyleMap
  3
ObjectDBX Classes
 90
     1152
280
     0
281
     0
  0
CLASS
  1
RASTERVARIABLES
  2
AcDbRasterVariables
  3
ISM
 90
    32768
280
     0
281
     0
  0
CLASS
  1
SUN
  2
AcDbSun
  3
SCENEOE
 90
     1153
280
     0
281
     0
  0
CLASS
  1
MLEADERSTYLE
  2
AcDbMLeaderStyle
  3
ACDB_MLEADERSTYLE_CLASS
 90
     4095
280
     0
281
     0
  0
CLASS
  1
XRECORD
  2
AcDbXrecord
  3
ObjectDBX Classes
 90
    32768
280
     0
281
     0
  0
CLASS
  1
SORTENTSTABLE
  2
AcDbSortentsTable
  3
ObjectDBX Classes
 90
    32768
280
     0
281
     0
  0
CLASS
  1
DIMASSOC
  2
AcDbDimAssoc
  3
"AcDbDimAssoc|Product Desc:     AcDim ARX App For Dimension|Company:          Autodesk, Inc.|WEB Address:      www.autodesk.com"
 90
        0
280
     0
281
     0
  0
ENDSEC
  0
SECTION
  2
TABLES
  0
TABLE
  2
VPORT
  5
8
330
0
100
AcDbSymbolTable
 70
     1
  0
VPORT
  5
94
330
8
100
AcDbSymbolTableRecord
100
AcDbViewportTableRecord
  2
*ACTIVE
 70
     0
 10
0.0
 20
0.0
 11
1.0
 21
1.0
 12
-665.5442079484266
 22
1129.58579027314
 13
0.0
 23
0.0
 14
0.5
 24
0.5
 15
0.5
 25
0.5
 16
0.0
 26
0.0
 36
1.0
 17
-27.66959356597988
 27
-19.53870295786191
 37
0.0
 40
378.2732104508719
 41
1.975481611208406
 42
50.0
 43
0.0
 44
0.0
 50
0.0
 51
0.0
 71
    16
 72
  1000
 73
     1
 74
     3
 75
     0
 76
     0
 77
     0
 78
     0
  0
ENDTAB
  0
TABLE
  2
LTYPE
  5
5
330
0
100
AcDbSymbolTable
 70
     1
  0
LTYPE
  5
14
330
5
100
AcDbSymbolTableRecord
100
AcDbLinetypeTableRecord
  2
BYBLOCK
 70
     0
  3

 72
    65
 73
     0
 40
0.0
  0
LTYPE
  5
15
330
5
100
AcDbSymbolTableRecord
100
AcDbLinetypeTableRecord
  2
BYLAYER
 70
     0
  3

 72
    65
 73
     0
 40
0.0
  0
LTYPE
  5
16
330
5
100
AcDbSymbolTableRecord
100
AcDbLinetypeTableRecord
  2
CONTINUOUS
 70
     0
  3
Solid line
 72
    65
 73
     0
 40
0.0
  0
ENDTAB
  0
TABLE
  2
LAYER
  5
2
102
{ACAD_XDICTIONARY
360
25F
102
}
330
0
100
AcDbSymbolTable
 70
     4
  0
LAYER
  5
10
330
2
100
AcDbSymbolTableRecord
100
AcDbLayerTableRecord
  2
0
 70
     0
 62
     7
  6
CONTINUOUS
  0
LAYER
  5
160
330
2
100
AcDbSymbolTableRecord
100
AcDbLayerTableRecord
  2
DEFPOINTS
 70
     0
 62
     7
  6
CONTINUOUS
  0
LAYER
  5
262
330
2
100
AcDbSymbolTableRecord
100
AcDbLayerTableRecord
  2
MOUNT_PLATE
 70
     0
 62
     1
  6
CONTINUOUS
1001
ACAECLAYERSTANDARD
1000

1000

  0
LAYER
  5
464
330
2
100
AcDbSymbolTableRecord
100
AcDbLayerTableRecord
  2
NOTES
 70
     0
 62
    94
  6
CONTINUOUS
1001
ACAECLAYERSTANDARD
1000

1000

  0
ENDTAB
  0
TABLE
  2
STYLE
  5
3
330
0
100
AcDbSymbolTable
 70
     2
  0
STYLE
  5
11
330
3
100
AcDbSymbolTableRecord
100
AcDbTextStyleTableRecord
  2
STANDARD
 70
     0
 40
0.0
 41
1.0
 50
0.0
 71
     0
 42
0.2
  3
arial.ttf
  4

1001
ACAD
1000
Arial
1071
        0
  0
STYLE
  5
125
330
3
100
AcDbSymbolTableRecord
100
AcDbTextStyleTableRecord
  2
ANNOTATIVE
 70
     0
 40
0.0
 41
1.0
 50
0.0
 71
     0
 42
0.2
  3
arial.ttf
  4

1001
ACAD
1000
Arial
1071
        0
1001
ACADANNOTATIVE
1000
AnnotativeData
1002
{
1070
     1
1070
     1
1002
}
  0
ENDTAB
  0
TABLE
  2
VIEW
  5
6
330
0
100
AcDbSymbolTable
 70
     0
  0
ENDTAB
  0
TABLE
  2
UCS
  5
7
330
0
100
AcDbSymbolTable
 70
     0
  0
ENDTAB
  0
TABLE
  2
APPID
  5
9
330
0
100
AcDbSymbolTable
 70
     5
  0
APPID
  5
12
330
9
100
AcDbSymbolTableRecord
100
AcDbRegAppTableRecord
  2
ACAD
 70
     0
  0
APPID
  5
126
330
9
100
AcDbSymbolTableRecord
100
AcDbRegAppTableRecord
  2
ACADANNOTATIVE
 70
     0
  0
APPID
  5
263
330
9
100
AcDbSymbolTableRecord
100
AcDbRegAppTableRecord
  2
ACAECLAYERSTANDARD
 70
     0
  0
APPID
  5
290
330
9
100
AcDbSymbolTableRecord
100
AcDbRegAppTableRecord
  2
PLOTTRANSPARENCY
 70
     0
  0
APPID
  5
45A
330
9
100
AcDbSymbolTableRecord
100
AcDbRegAppTableRecord
  2
HATCHBACKGROUNDCOLOR
 70
     0
  0
ENDTAB
  0
TABLE
  2
DIMSTYLE
  5
A
330
0
100
AcDbSymbolTable
 70
     2
  0
DIMSTYLE
105
27
330
A
100
AcDbSymbolTableRecord
100
AcDbDimStyleTableRecord
  2
STANDARD
 70
     0
  3

  4

  5

  6

  7

 40
1.0
 41
0.18
 42
0.0625
 43
0.38
 44
0.18
 45
0.0
 46
0.0
 47
0.0
 48
0.0
140
0.18
141
0.09
142
0.0
143
25.4
144
1.0
145
0.0
146
1.0
147
0.09
 71
     0
 72
     0
 73
     1
 74
     1
 75
     0
 76
     0
 77
     0
 78
     0
170
     0
171
     2
172
     0
173
     0
174
     0
175
     0
176
     0
177
     0
178
     0
270
     2
271
     4
272
     4
273
     2
274
     2
340
11
275
     0
280
     0
281
     0
282
     0
283
     1
284
     0
285
     0
286
     0
287
     3
288
     0
  0
DIMSTYLE
105
127
330
A
100
AcDbSymbolTableRecord
100
AcDbDimStyleTableRecord
  2
ANNOTATIVE
 70
     0
  3

  4

  5

  6

  7

 40
0.0
 41
0.18
 42
0.0625
 43
0.38
 44
0.18
 45
0.0
 46
0.0
 47
0.0
 48
0.0
140
0.18
141
0.09
142
0.0
143
25.4
144
1.0
145
0.0
146
1.0
147
0.09
 71
     0
 72
     0
 73
     1
 74
     1
 75
     0
 76
     0
 77
     0
 78
     0
170
     0
171
     2
172
     0
173
     0
174
     0
175
     0
176
     0
177
     0
178
     0
270
     2
271
     4
272
     4
273
     2
274
     2
340
11
275
     0
280
     0
281
     0
282
     0
283
     1
284
     0
285
     0
286
     0
287
     3
288
     0
1001
ACADANNOTATIVE
1000
AnnotativeData
1002
{
1070
     1
1070
     1
1002
}
  0
ENDTAB
  0
TABLE
  2
BLOCK_RECORD
  5
1
330
0
100
AcDbSymbolTable
 70
     2
  0
BLOCK_RECORD
  5
1F
102
{ACAD_XDICTIONARY
360
12A
102
}
330
1
100
AcDbSymbolTableRecord
100
AcDbBlockTableRecord
  2
*MODEL_SPACE
  0
BLOCK_RECORD
  5
58
330
1
100
AcDbSymbolTableRecord
100
AcDbBlockTableRecord
  2
*PAPER_SPACE
  0
BLOCK_RECORD
  5
5D
330
1
100
AcDbSymbolTableRecord
100
AcDbBlockTableRecord
  2
*PAPER_SPACE0
  0
BLOCK_RECORD
  5
620
330
1
100
AcDbSymbolTableRecord
100
AcDbBlockTableRecord
  2
*X1
  0
ENDTAB
  0
ENDSEC
  0
SECTION
  2
BLOCKS
  0
BLOCK
  5
20
330
1F
100
AcDbEntity
  8
0
100
AcDbBlockBegin
  2
*MODEL_SPACE
 70
     0
 10
0.0
 20
0.0
 30
0.0
  3
*MODEL_SPACE
  1

  0
ENDBLK
  5
21
330
1F
100
AcDbEntity
  8
0
100
AcDbBlockEnd
  0
BLOCK
  5
5A
330
58
100
AcDbEntity
 67
     1
  8
0
100
AcDbBlockBegin
  2
*PAPER_SPACE
 70
     0
 10
0.0
 20
0.0
 30
0.0
  3
*PAPER_SPACE
  1

  0
ENDBLK
  5
5B
330
58
100
AcDbEntity
 67
     1
  8
0
100
AcDbBlockEnd
  0
BLOCK
  5
5F
330
5D
100
AcDbEntity
  8
0
100
AcDbBlockBegin
  2
*PAPER_SPACE0
 70
     0
 10
0.0
 20
0.0
 30
0.0
  3
*PAPER_SPACE0
  1

  0
ENDBLK
  5
60
330
5D
100
AcDbEntity
  8
0
100
AcDbBlockEnd
  0
BLOCK
  5
7C1
330
620
100
AcDbEntity
  8
0
100
AcDbBlockBegin
  2
*X1
 70
     1
 10
0.0
 20
0.0
 30
0.0
  3
*X1
  1

  0
LINE
  5
621
330
620
100
AcDbEntity
  8
MOUNT_PLATE
  6
CONTINUOUS
100
AcDbLine
 10
-796.1995586985995
 20
1130.489643339446
 30
0.0
 11
-796.0578163854824
 21
1130.631385652563
 31
0.0
1001
ACAD
1010
0.0
1020
0.0
1030
0.0
1001
HATCHBACKGROUNDCOLOR
1071
-939524096
1000

1000

  0
LINE
  5
622
330
620
100
AcDbEntity
  8
MOUNT_PLATE
  6
CONTINUOUS
100
AcDbLine
 10
-796.1995586985995
 20
1130.31286664415
 30
0.0
 11
-795.8810396901858
 21
1130.631385652563
 31
0.0
1001
ACAD
1010
0.0
1020
0.0
1030
0.0
1001
HATCHBACKGROUNDCOLOR
1071
-939524096
1000

1000

  0
LINE
  5
623
330
620
100
AcDbEntity
  8
MOUNT_PLATE
  6
CONTINUOUS
100
AcDbLine
 10
-796.1995586985995
 20
1130.136089948853
 30
0.0
 11
-795.7042629948892
 21
1130.631385652563
 31
0.0
1001
ACAD
1010
0.0
1020
0.0
1030
0.0
1001
HATCHBACKGROUNDCOLOR
1071
-939524096
1000

1000

  0
LINE
  5
624
330
620
100
AcDbEntity
  8
MOUNT_PLATE
  6
CONTINUOUS
100
AcDbLine
 10
-796.1995586985995
 20
1129.959313253556
 30
0.0
 11
-795.5274862995925
 21
1130.631385652563
 31
0.0
1001
ACAD
1010
0.0
1020
0.0
1030
0.0
1001
HATCHBACKGROUNDCOLOR
1071
-939524096
1000

1000

  0
LINE
  5
625
330
620
100
AcDbEntity
  8
MOUNT_PLATE
  6
CONTINUOUS
100
AcDbLine
 10
-796.1995586985995
 20
1129.78253655826
 30
0.0
 11
-795.3507096042958
 21
1130.631385652563
 31
0.0
1001
ACAD
1010
0.0
1020
0.0
1030
0.0
1001
HATCHBACKGROUNDCOLOR
1071
-939524096
1000

1000

  0
LINE
  5
626
330
620
100
AcDbEntity
  8
MOUNT_PLATE
  6
CONTINUOUS
100
AcDbLine
 10
-796.1995586985995
 20
1129.605759862963
 30
0.0
 11
-795.1739329089993
 21
1130.631385652563
 31
0.0
1001
ACAD
1010
0.0
1020
0.0
1030
0.0
1001
HATCHBACKGROUNDCOLOR
1071
-939524096
1000

1000

  0
LINE
  5
627
330
620
100
AcDbEntity
  8
MOUNT_PLATE
  6
CONTINUOUS
100
AcDbLine
 10
-796.1995586985995
 20
1129.428983167667
 30
0.0
 11
-794.9971562137026
 21
1130.631385652563
 31
0.0
1001
ACAD
1010
0.0
1020
0.0
1030
0.0
1001
HATCHBACKGROUNDCOLOR
1071
-939524096
1000

1000

  0
LINE
  5
628
330
620
100
AcDbEntity
  8
MOUNT_PLATE
  6
CONTINUOUS
100
AcDbLine
 10
-796.1995586985995
 20
1129.25220647237
 30
0.0
 11
-794.820379518406
 21
1130.631385652563
 31
0.0
1001
ACAD
1010
0.0
1020
0.0
1030
0.0
1001
HATCHBACKGROUNDCOLOR
1071
-939524096
1000

1000

  0
LINE
  5
629
330
620
100
AcDbEntity
  8
MOUNT_PLATE
  6
CONTINUOUS
100
AcDbLine
 10
-796.1995586985995
 20
1129.075429777073
 30
0.0
 11
-794.6436028231094
 21
1130.631385652563
 31
0.0
1001
ACAD
1010
0.0
1020
0.0
1030
0.0
1001
HATCHBACKGROUNDCOLOR
1071
-939524096
1000

1000

  0
LINE
  5
62A
330
620
100
AcDbEntity
  8
MOUNT_PLATE
  6
CONTINUOUS
100
AcDbLine
 10
-796.1995586985995
 20
1128.898653081777
 30
0.0
 11
-794.4668261278127
 21
1130.631385652563
 31
0.0
1001
ACAD
1010
0.0
1020
0.0
1030
0.0
1001
HATCHBACKGROUNDCOLOR
1071
-939524096
1000

1000

  0
LINE
  5
62B
330
620
100
AcDbEntity
  8
MOUNT_PLATE
  6
CONTINUOUS
100
AcDbLine
 10
-796.1995586985995
 20
1128.72187638648
 30
0.0
 11
-794.2900494325161
 21
1130.631385652563
 31
0.0
1001
ACAD
1010
0.0
1020
0.0
1030
0.0
1001
HATCHBACKGROUNDCOLOR
1071
-939524096
1000

1000

  0
LINE
  5
62C
330
620
100
AcDbEntity
  8
MOUNT_PLATE
  6
CONTINUOUS
100
AcDbLine
 10
-796.1995586985995
 20
1128.545099691183
 30
0.0
 11
-794.1132727372194
 21
1130.631385652563
 31
0.0
1001
ACAD
1010
0.0
1020
0.0
1030
0.0
1001
HATCHBACKGROUNDCOLOR
1071
-939524096
1000

1000

  0
LINE
  5
62D
330
620
100
AcDbEntity
  8
MOUNT_PLATE
  6
CONTINUOUS
100
AcDbLine
 10
-796.1995586985995
 20
1128.368322995887
 30
0.0
 11
-793.9364960419229
 21
1130.631385652563
 31
0.0
1001
ACAD
1010
0.0
1020
0.0
1030
0.0
1001
HATCHBACKGROUNDCOLOR
1071
-939524096
1000

1000

  0
LINE
  5
62E
330
620
100
AcDbEntity
  8
MOUNT_PLATE
  6
CONTINUOUS
100
AcDbLine
 10
-796.1995586985995
 20
1128.19154630059
 30
0.0
 11
-793.7597193466262
 21
1130.631385652563
 31
0.0
1001
ACAD
1010
0.0
1020
0.0
1030
0.0
1001
HATCHBACKGROUNDCOLOR
1071
-939524096
1000

1000

  0
LINE
  5
62F
330
620
100
AcDbEntity
  8
MOUNT_PLATE
  6
CONTINUOUS
100
AcDbLine
 10
-796.1995586985995
 20
1128.014769605293
 30
0.0
 11
-794.6995586985995
 21
1129.514769605293
 31
0.0
1001
ACAD
1010
0.0
1020
0.0
1030
0.0
1001
HATCHBACKGROUNDCOLOR
1071
-939524096
1000

1000

  0
LINE
  5
630
330
620
100
AcDbEntity
  8
MOUNT_PLATE
  6
CONTINUOUS
100
AcDbLine
 10
-796.1995586985995
 20
1127.837992909997
 30
0.0
 11
-794.6995586985995
 21
1129.337992909997
 31
0.0
1001
ACAD
1010
0.0
1020
0.0
1030
0.0
1001
HATCHBACKGROUNDCOLOR
1071
-939524096
1000

1000

  0
LINE
  5
631
330
620
100
AcDbEntity
  8
MOUNT_PLATE
  6
CONTINUOUS
100
AcDbLine
 10
-796.1995586985995
 20
1127.6612162147
 30
0.0
 11
-794.6995586985995
 21
1129.1612162147
 31
0.0
1001
ACAD
1010
0.0
1020
0.0
1030
0.0
1001
HATCHBACKGROUNDCOLOR
1071
-939524096
1000

1000

  0
LINE
  5
632
330
620
100
AcDbEntity
  8
MOUNT_PLATE
  6
CONTINUOUS
100
AcDbLine
 10
-796.1995586985995
 20
1127.484439519403
 30
0.0
 11
-794.6995586985995
 21
1128.984439519403
 31
0.0
1001
ACAD
1010
0.0
1020
0.0
1030
0.0
1001
HATCHBACKGROUNDCOLOR
1071
-939524096
1000

1000

  0
LINE
  5
633
330
620
100
AcDbEntity
  8
MOUNT_PLATE
  6
CONTINUOUS
100
AcDbLine
 10
-796.1995586985995
 20
1127.307662824107
 30
0.0
 11
-794.6995586985995
 21
1128.807662824107
 31
0.0
1001
ACAD
1010
0.0
1020
0.0
1030
0.0
1001
HATCHBACKGROUNDCOLOR
1071
-939524096
1000

1000

  0
LINE
  5
634
330
620
100
AcDbEntity
  8
MOUNT_PLATE
  6
CONTINUOUS
100
AcDbLine
 10
-796.1995586985995
 20
1127.13088612881
 30
0.0
 11
-794.6995586985995
 21
1128.63088612881
 31
0.0
1001
ACAD
1010
0.0
1020
0.0
1030
0.0
1001
HATCHBACKGROUNDCOLOR
1071
-939524096
1000

1000

  0
LINE
  5
635
330
620
100
AcDbEntity
  8
MOUNT_PLATE
  6
CONTINUOUS
100
AcDbLine
 10
-796.1995586985995
 20
1126.954109433513
 30
0.0
 11
-794.6995586985995
 21
1128.454109433513
 31
0.0
1001
ACAD
1010
0.0
1020
0.0
1030
0.0
1001
HATCHBACKGROUNDCOLOR
1071
-939524096
1000

1000

  0
LINE
  5
636
330
620
100
AcDbEntity
  8
MOUNT_PLATE
  6
CONTINUOUS
100
AcDbLine
 10
-796.1995586985995
 20
1126.777332738217
 30
0.0
 11
-794.6995586985995
 21
1128.277332738217
 31
0.0
1001
ACAD
1010
0.0
1020
0.0
1030
0.0
1001
HATCHBACKGROUNDCOLOR
1071
-939524096
1000

1000

  0
LINE
  5
637
330
620
100
AcDbEntity
  8
MOUNT_PLATE
  6
CONTINUOUS
100
AcDbLine
 10
-796.1995586985995
 20
1126.60055604292
 30
0.0
 11
-794.6995586985995
 21
1128.10055604292
 31
0.0
1001
ACAD
1010
0.0
1020
0.0
1030
0.0
1001
HATCHBACKGROUNDCOLOR
1071
-939524096
1000

1000

  0
LINE
  5
638
330
620
100
AcDbEntity
  8
MOUNT_PLATE
  6
CONTINUOUS
100
AcDbLine
 10
-796.1995586985995
 20
1126.423779347624
 30
0.0
 11
-794.6995586985995
 21
1127.923779347624
 31
0.0
1001
ACAD
1010
0.0
1020
0.0
1030
0.0
1001
HATCHBACKGROUNDCOLOR
1071
-939524096
1000

1000

  0
LINE
  5
639
330
620
100
AcDbEntity
  8
MOUNT_PLATE
  6
CONTINUOUS
100
AcDbLine
 10
-796.1995586985995
 20
1126.247002652327
 30
0.0
 11
-794.6995586985995
 21
1127.747002652327
 31
0.0
1001
ACAD
1010
0.0
1020
0.0
1030
0.0
1001
HATCHBACKGROUNDCOLOR
1071
-939524096
1000

1000

  0
LINE
  5
63A
330
620
100
AcDbEntity
  8
MOUNT_PLATE
  6
CONTINUOUS
100
AcDbLine
 10
-796.1995586985995
 20
1126.07022595703
 30
0.0
 11
-794.6995586985995
 21
1127.57022595703
 31
0.0
1001
ACAD
1010
0.0
1020
0.0
1030
0.0
1001
HATCHBACKGROUNDCOLOR
1071
-939524096
1000

1000

  0
LINE
  5
63B
330
620
100
AcDbEntity
  8
MOUNT_PLATE
  6
CONTINUOUS
100
AcDbLine
 10
-796.1995586985995
 20
1125.893449261734
 30
0.0
 11
-794.6995586985995
 21
1127.393449261734
 31
0.0
1001
ACAD
1010
0.0
1020
0.0
1030
0.0
1001
HATCHBACKGROUNDCOLOR
1071
-939524096
1000

1000

  0
LINE
  5
63C
330
620
100
AcDbEntity
  8
MOUNT_PLATE
  6
CONTINUOUS
100
AcDbLine
 10
-796.1995586985995
 20
1125.716672566437
 30
0.0
 11
-794.6995586985995
 21
1127.216672566437
 31
0.0
1001
ACAD
1010
0.0
1020
0.0
1030
0.0
1001
HATCHBACKGROUNDCOLOR
1071
-939524096
1000

1000

  0
LINE
  5
63D
330
620
100
AcDbEntity
  8
MOUNT_PLATE
  6
CONTINUOUS
100
AcDbLine
 10
-796.1995586985995
 20
1125.53989587114
 30
0.0
 11
-794.6995586985995
 21
1127.03989587114
 31
0.0
1001
ACAD
1010
0.0
1020
0.0
1030
0.0
1001
HATCHBACKGROUNDCOLOR
1071
-939524096
1000

1000

  0
LINE
  5
63E
330
620
100
AcDbEntity
  8
MOUNT_PLATE
  6
CONTINUOUS
100
AcDbLine
 10
-796.1995586985995
 20
1125.363119175844
 30
0.0
 11
-794.6995586985995
 21
1126.863119175844
 31
0.0
1001
ACAD
1010
0.0
1020
0.0
1030
0.0
1001
HATCHBACKGROUNDCOLOR
1071
-939524096
1000

1000

  0
LINE
  5
63F
330
620
100
AcDbEntity
  8
MOUNT_PLATE
  6
CONTINUOUS
100
AcDbLine
 10
-796.1995586985995
 20
1125.186342480547
 30
0.0
 11
-794.6995586985995
 21
1126.686342480547
 31
0.0
1001
ACAD
1010
0.0
1020
0.0
1030
0.0
1001
HATCHBACKGROUNDCOLOR
1071
-939524096
1000

1000

  0
LINE
  5
640
330
620
100
AcDbEntity
  8
MOUNT_PLATE
  6
CONTINUOUS
100
AcDbLine
 10
-796.1995586985995
 20
1125.009565785251
 30
0.0
 11
-794.6995586985995
 21
1126.509565785251
 31
0.0
1001
ACAD
1010
0.0
1020
0.0
1030
0.0
1001
HATCHBACKGROUNDCOLOR
1071
-939524096
1000

1000

  0
LINE
  5
641
330
620
100
AcDbEntity
  8
MOUNT_PLATE
  6
CONTINUOUS
100
AcDbLine
 10
-796.1995586985995
 20
1124.832789089954
 30
0.0
 11
-794.6995586985995
 21
1126.332789089954
 31
0.0
1001
ACAD
1010
0.0
1020
0.0
1030
0.0
1001
HATCHBACKGROUNDCOLOR
1071
-939524096
1000

1000

  0
LINE
  5
642
330
620
100
AcDbEntity
  8
MOUNT_PLATE
  6
CONTINUOUS
100
AcDbLine
 10
-796.1995586985995
 20
1124.656012394657
 30
0.0
 11
-794.6995586985995
 21
1126.156012394657
 31
0.0
1001
ACAD
1010
0.0
1020
0.0
1030
0.0
1001
HATCHBACKGROUNDCOLOR
1071
-939524096
1000

1000

  0
LINE
  5
643
330
620
100
AcDbEntity
  8
MOUNT_PLATE
  6
CONTINUOUS
100
AcDbLine
 10
-796.1995586985995
 20
1124.479235699361
 30
0.0
 11
-794.6995586985995
 21
1125.979235699361
 31
0.0
1001
ACAD
1010
0.0
1020
0.0
1030
0.0
1001
HATCHBACKGROUNDCOLOR
1071
-939524096
1000

1000

  0
LINE
  5
644
330
620
100
AcDbEntity
  8
MOUNT_PLATE
  6
CONTINUOUS
100
AcDbLine
 10
-796.1995586985995
 20
1124.302459004064
 30
0.0
 11
-794.6995586985995
 21
1125.802459004064
 31
0.0
1001
ACAD
1010
0.0
1020
0.0
1030
0.0
1001
HATCHBACKGROUNDCOLOR
1071
-939524096
1000

1000

  0
LINE
  5
645
330
620
100
AcDbEntity
  8
MOUNT_PLATE
  6
CONTINUOUS
100
AcDbLine
 10
-794.5829426513295
 20
1129.631385652563
 30
0.0
 11
-793.5829426513295
 21
1130.631385652563
 31
0.0
1001
ACAD
1010
0.0
1020
0.0
1030
0.0
1001
HATCHBACKGROUNDCOLOR
1071
-939524096
1000

1000

  0
LINE
  5
646
330
620
100
AcDbEntity
  8
MOUNT_PLATE
  6
CONTINUOUS
100
AcDbLine
 10
-794.4061659560329
 20
1129.631385652563
 30
0.0
 11
-793.4061659560329
 21
1130.631385652563
 31
0.0
1001
ACAD
1010
0.0
1020
0.0
1030
0.0
1001
HATCHBACKGROUNDCOLOR
1071
-939524096
1000

1000

  0
LINE
  5
647
330
620
100
AcDbEntity
  8
MOUNT_PLATE
  6
CONTINUOUS
100
AcDbLine
 10
-794.2293892607363
 20
1129.631385652563
 30
0.0
 11
-793.2293892607363
 21
1130.631385652563
 31
0.0
1001
ACAD
1010
0.0
1020
0.0
1030
0.0
1001
HATCHBACKGROUNDCOLOR
1071
-939524096
1000

1000

  0
LINE
  5
648
330
620
100
AcDbEntity
  8
MOUNT_PLATE
  6
CONTINUOUS
100
AcDbLine
 10
-794.0526125654396
 20
1129.631385652563
 30
0.0
 11
-793.0526125654396
 21
1130.631385652563
 31
0.0
1001
ACAD
1010
0.0
1020
0.0
1030
0.0
1001
HATCHBACKGROUNDCOLOR
1071
-939524096
1000

1000

  0
LINE
  5
649
330
620
100
AcDbEntity
  8
MOUNT_PLATE
  6
CONTINUOUS
100
AcDbLine
 10
-793.875835870143
 20
1129.631385652563
 30
0.0
 11
-792.875835870143
 21
1130.631385652563
 31
0.0
1001
ACAD
1010
0.0
1020
0.0
1030
0.0
1001
HATCHBACKGROUNDCOLOR
1071
-939524096
1000

1000

  0
LINE
  5
64A
330
620
100
AcDbEntity
  8
MOUNT_PLATE
  6
CONTINUOUS
100
AcDbLine
 10
-793.6990591748463
 20
1129.631385652563
 30
0.0
 11
-792.6990591748463
 21
1130.631385652563
 31
0.0
1001
ACAD
1010
0.0
1020
0.0
1030
0.0
1001
HATCHBACKGROUNDCOLOR
1071
-939524096
1000

1000

  0
LINE
  5
64B
330
620
100
AcDbEntity
  8
MOUNT_PLATE
  6
CONTINUOUS
100
AcDbLine
 10
-793.5222824795497
 20
1129.631385652563
 30
0.0
 11
-792.5222824795497
 21
1130.631385652563
 31
0.0
1001
ACAD
1010
0.0
1020
0.0
1030
0.0
1001
HATCHBACKGROUNDCOLOR
1071
-939524096
1000

1000

  0
LINE
  5
64C
330
620
100
AcDbEntity
  8
MOUNT_PLATE
  6
CONTINUOUS
100
AcDbLine
 10
-793.3455057842531
 20
1129.631385652563
 30
0.0
 11
-792.3455057842531
 21
1130.631385652563
 31
0.0
1001
ACAD
1010
0.0
1020
0.0
1030
0.0
1001
HATCHBACKGROUNDCOLOR
1071
-939524096
1000

1000

  0
LINE
  5
64D
330
620
100
AcDbEntity
  8
MOUNT_PLATE
  6
CONTINUOUS
100
AcDbLine
 10
-793.1687290889564
 20
1129.631385652563
 30
0.0
 11
-792.1687290889564
 21
1130.631385652563
 31
0.0
1001
ACAD
1010
0.0
1020
0.0
1030
0.0
1001
HATCHBACKGROUNDCOLOR
1071
-939524096
1000

1000

  0
LINE
  5
64E
330
620
100
AcDbEntity
  8
MOUNT_PLATE
  6
CONTINUOUS
100
AcDbLine
 10
-792.9919523936597
 20
1129.631385652563
 30
0.0
 11
-791.9919523936597
 21
1130.631385652563
 31
0.0
1001
ACAD
1010
0.0
1020
0.0
1030
0.0
1001
HATCHBACKGROUNDCOLOR
1071
-939524096
1000

1000

  0
LINE
  5
64F
330
620
100
AcDbEntity
  8
MOUNT_PLATE
  6
CONTINUOUS
100
AcDbLine
 10
-792.8151756983632
 20
1129.631385652563
 30
0.0
 11
-791.8151756983632
 21
1130.631385652563
 31
0.0
1001
ACAD
1010
0.0
1020
0.0
1030
0.0
1001
HATCHBACKGROUNDCOLOR
1071
-939524096
1000

1000

  0
LINE
  5
650
330
620
100
AcDbEntity
  8
MOUNT_PLATE
  6
CONTINUOUS
100
AcDbLine
 10
-792.6383990030665
 20
1129.631385652563
 30
0.0
 11
-791.6383990030665
 21
1130.631385652563
 31
0.0
1001
ACAD
1010
0.0
1020
0.0
1030
0.0
1001
HATCHBACKGROUNDCOLOR
1071
-939524096
1000

1000

  0
LINE
  5
651
330
620
100
AcDbEntity
  8
MOUNT_PLATE
  6
CONTINUOUS
100
AcDbLine
 10
-792.4616223077699
 20
1129.631385652563
 30
0.0
 11
-791.4616223077699
 21
1130.631385652563
 31
0.0
1001
ACAD
1010
0.0
1020
0.0
1030
0.0
1001
HATCHBACKGROUNDCOLOR
1071
-939524096
1000

1000

  0
LINE
  5
652
330
620
100
AcDbEntity
  8
MOUNT_PLATE
  6
CONTINUOUS
100
AcDbLine
 10
-792.2848456124733
 20
1129.631385652563
 30
0.0
 11
-791.2848456124733
 21
1130.631385652563
 31
0.0
1001
ACAD
1010
0.0
1020
0.0
1030
0.0
1001
HATCHBACKGROUNDCOLOR
1071
-939524096
1000

1000

  0
LINE
  5
653
330
620
100
AcDbEntity
  8
MOUNT_PLATE
  6
CONTINUOUS
100
AcDbLine
 10
-792.1080689171766
 20
1129.631385652563
 30
0.0
 11
-791.1080689171766
 21
1130.631385652563
 31
0.0
1001
ACAD
1010
0.0
1020
0.0
1030
0.0
1001
HATCHBACKGROUNDCOLOR
1071
-939524096
1000

1000

  0
LINE
  5
654
330
620
100
AcDbEntity
  8
MOUNT_PLATE
  6
CONTINUOUS
100
AcDbLine
 10
-791.93129222188
 20
1129.631385652563
 30
0.0
 11
-790.93129222188
 21
1130.631385652563
 31
0.0
1001
ACAD
1010
0.0
1020
0.0
1030
0.0
1001
HATCHBACKGROUNDCOLOR
1071
-939524096
1000

1000

  0
LINE
  5
655
330
620
100
AcDbEntity
  8
MOUNT_PLATE
  6
CONTINUOUS
100
AcDbLine
 10
-791.7545155265833
 20
1129.631385652563
 30
0.0
 11
-790.7545155265833
 21
1130.631385652563
 31
0.0
1001
ACAD
1010
0.0
1020
0.0
1030
0.0
1001
HATCHBACKGROUNDCOLOR
1071
-939524096
1000

1000

  0
LINE
  5
656
330
620
100
AcDbEntity
  8
MOUNT_PLATE
  6
CONTINUOUS
100
AcDbLine
 10
-791.5777388312868
 20
1129.631385652563
 30
0.0
 11
-790.5777388312868
 21
1130.631385652563
 31
0.0
1001
ACAD
1010
0.0
1020
0.0
1030
0.0
1001
HATCHBACKGROUNDCOLOR
1071
-939524096
1000

1000

  0
LINE
  5
657
330
620
100
AcDbEntity
  8
MOUNT_PLATE
  6
CONTINUOUS
100
AcDbLine
 10
-791.4009621359901
 20
1129.631385652563
 30
0.0
 11
-790.4009621359901
 21
1130.631385652563
 31
0.0
1001
ACAD
1010
0.0
1020
0.0
1030
0.0
1001
HATCHBACKGROUNDCOLOR
1071
-939524096
1000

1000

  0
LINE
  5
658
330
620
100
AcDbEntity
  8
MOUNT_PLATE
  6
CONTINUOUS
100
AcDbLine
 10
-791.2241854406934
 20
1129.631385652563
 30
0.0
 11
-790.2241854406934
 21
1130.631385652563
 31
0.0
1001
ACAD
1010
0.0
1020
0.0
1030
0.0
1001
HATCHBACKGROUNDCOLOR
1071
-939524096
1000

1000

  0
LINE
  5
659
330
620
100
AcDbEntity
  8
MOUNT_PLATE
  6
CONTINUOUS
100
AcDbLine
 10
-791.0474087453968
 20
1129.631385652563
 30
0.0
 11
-790.0474087453968
 21
1130.631385652563
 31
0.0
1001
ACAD
1010
0.0
1020
0.0
1030
0.0
1001
HATCHBACKGROUNDCOLOR
1071
-939524096
1000

1000

  0
LINE
  5
65A
330
620
100
AcDbEntity
  8
MOUNT_PLATE
  6
CONTINUOUS
100
AcDbLine
 10
-790.8706320501002
 20
1129.631385652563
 30
0.0
 11
-789.8706320501002
 21
1130.631385652563
 31
0.0
1001
ACAD
1010
0.0
1020
0.0
1030
0.0
1001
HATCHBACKGROUNDCOLOR
1071
-939524096
1000

1000

  0
LINE
  5
65B
330
620
100
AcDbEntity
  8
MOUNT_PLATE
  6
CONTINUOUS
100
AcDbLine
 10
-796.1995586985995
 20
1124.125682308767
 30
0.0
 11
-794.6995586985995
 21
1125.625682308767
 31
0.0
1001
ACAD
1010
0.0
1020
0.0
1030
0.0
1001
HATCHBACKGROUNDCOLOR
1071
-939524096
1000

1000

  0
LINE
  5
65C
330
620
100
AcDbEntity
  8
MOUNT_PLATE
  6
CONTINUOUS
100
AcDbLine
 10
-796.1995586985995
 20
1123.948905613471
 30
0.0
 11
-794.6995586985995
 21
1125.448905613471
 31
0.0
1001
ACAD
1010
0.0
1020
0.0
1030
0.0
1001
HATCHBACKGROUNDCOLOR
1071
-939524096
1000

1000

  0
LINE
  5
65D
330
620
100
AcDbEntity
  8
MOUNT_PLATE
  6
CONTINUOUS
100
AcDbLine
 10
-796.1995586985995
 20
1123.772128918174
 30
0.0
 11
-794.6995586985995
 21
1125.272128918174
 31
0.0
1001
ACAD
1010
0.0
1020
0.0
1030
0.0
1001
HATCHBACKGROUNDCOLOR
1071
-939524096
1000

1000

  0
LINE
  5
65E
330
620
100
AcDbEntity
  8
MOUNT_PLATE
  6
CONTINUOUS
100
AcDbLine
 10
-796.1995586985995
 20
1123.595352222877
 30
0.0
 11
-794.6995586985995
 21
1125.095352222877
 31
0.0
1001
ACAD
1010
0.0
1020
0.0
1030
0.0
1001
HATCHBACKGROUNDCOLOR
1071
-939524096
1000

1000

  0
LINE
  5
65F
330
620
100
AcDbEntity
  8
MOUNT_PLATE
  6
CONTINUOUS
100
AcDbLine
 10
-796.1995586985995
 20
1123.418575527581
 30
0.0
 11
-794.6995586985995
 21
1124.918575527581
 31
0.0
1001
ACAD
1010
0.0
1020
0.0
1030
0.0
1001
HATCHBACKGROUNDCOLOR
1071
-939524096
1000

1000

  0
LINE
  5
660
330
620
100
AcDbEntity
  8
MOUNT_PLATE
  6
CONTINUOUS
100
AcDbLine
 10
-796.1995586985995
 20
1123.241798832284
 30
0.0
 11
-794.6995586985995
 21
1124.741798832284
 31
0.0
1001
ACAD
1010
0.0
1020
0.0
1030
0.0
1001
HATCHBACKGROUNDCOLOR
1071
-939524096
1000

1000

  0
LINE
  5
661
330
620
100
AcDbEntity
  8
MOUNT_PLATE
  6
CONTINUOUS
100
AcDbLine
 10
-790.6995586985995
 20
1129.625682308767
 30
0.0
 11
-789.6938553548035
 21
1130.631385652563
 31
0.0
1001
ACAD
1010
0.0
1020
0.0
1030
0.0
1001
HATCHBACKGROUNDCOLOR
1071
-939524096
1000

1000

  0
LINE
  5
662
330
620
100
AcDbEntity
  8
MOUNT_PLATE
  6
CONTINUOUS
100
AcDbLine
 10
-790.6995586985995
 20
1129.448905613471
 30
0.0
 11
-789.5170786595069
 21
1130.631385652563
 31
0.0
1001
ACAD
1010
0.0
1020
0.0
1030
0.0
1001
HATCHBACKGROUNDCOLOR
1071
-939524096
1000

1000

  0
LINE
  5
663
330
620
100
AcDbEntity
  8
MOUNT_PLATE
  6
CONTINUOUS
100
AcDbLine
 10
-790.6995586985995
 20
1129.272128918174
 30
0.0
 11
-789.3403019642102
 21
1130.631385652563
 31
0.0
1001
ACAD
1010
0.0
1020
0.0
1030
0.0
1001
HATCHBACKGROUNDCOLOR
1071
-939524096
1000

1000

  0
LINE
  5
664
330
620
100
AcDbEntity
  8
MOUNT_PLATE
  6
CONTINUOUS
100
AcDbLine
 10
-790.6995586985995
 20
1129.095352222877
 30
0.0
 11
-789.1635252689136
 21
1130.631385652563
 31
0.0
1001
ACAD
1010
0.0
1020
0.0
1030
0.0
1001
HATCHBACKGROUNDCOLOR
1071
-939524096
1000

1000

  0
LINE
  5
665
330
620
100
AcDbEntity
  8
MOUNT_PLATE
  6
CONTINUOUS
100
AcDbLine
 10
-790.6995586985995
 20
1128.918575527581
 30
0.0
 11
-788.986748573617
 21
1130.631385652563
 31
0.0
1001
ACAD
1010
0.0
1020
0.0
1030
0.0
1001
HATCHBACKGROUNDCOLOR
1071
-939524096
1000

1000

  0
LINE
  5
666
330
620
100
AcDbEntity
  8
MOUNT_PLATE
  6
CONTINUOUS
100
AcDbLine
 10
-790.6995586985995
 20
1128.741798832284
 30
0.0
 11
-788.8099718783203
 21
1130.631385652563
 31
0.0
1001
ACAD
1010
0.0
1020
0.0
1030
0.0
1001
HATCHBACKGROUNDCOLOR
1071
-939524096
1000

1000

  0
LINE
  5
667
330
620
100
AcDbEntity
  8
MOUNT_PLATE
  6
CONTINUOUS
100
AcDbLine
 10
-796.1995586985995
 20
1123.065022136987
 30
0.0
 11
-794.5331951830235
 21
1124.731385652563
 31
0.0
1001
ACAD
1010
0.0
1020
0.0
1030
0.0
1001
HATCHBACKGROUNDCOLOR
1071
-939524096
1000

1000

  0
LINE
  5
668
330
620
100
AcDbEntity
  8
MOUNT_PLATE
  6
CONTINUOUS
100
AcDbLine
 10
-796.1995586985995
 20
1122.888245441691
 30
0.0
 11
-794.356418487727
 21
1124.731385652563
 31
0.0
1001
ACAD
1010
0.0
1020
0.0
1030
0.0
1001
HATCHBACKGROUNDCOLOR
1071
-939524096
1000

1000

  0
LINE
  5
669
330
620
100
AcDbEntity
  8
MOUNT_PLATE
  6
CONTINUOUS
100
AcDbLine
 10
-796.1995586985995
 20
1122.711468746394
 30
0.0
 11
-794.1796417924303
 21
1124.731385652563
 31
0.0
1001
ACAD
1010
0.0
1020
0.0
1030
0.0
1001
HATCHBACKGROUNDCOLOR
1071
-939524096
1000

1000

  0
LINE
  5
66A
330
620
100
AcDbEntity
  8
MOUNT_PLATE
  6
CONTINUOUS
100
AcDbLine
 10
-796.1995586985995
 20
1122.534692051098
 30
0.0
 11
-794.0028650971336
 21
1124.731385652563
 31
0.0
1001
ACAD
1010
0.0
1020
0.0
1030
0.0
1001
HATCHBACKGROUNDCOLOR
1071
-939524096
1000

1000

  0
LINE
  5
66B
330
620
100
AcDbEntity
  8
MOUNT_PLATE
  6
CONTINUOUS
100
AcDbLine
 10
-790.6995586985995
 20
1128.565022136987
 30
0.0
 11
-788.6331951830236
 21
1130.631385652563
 31
0.0
1001
ACAD
1010
0.0
1020
0.0
1030
0.0
1001
HATCHBACKGROUNDCOLOR
1071
-939524096
1000

1000

  0
LINE
  5
66C
330
620
100
AcDbEntity
  8
MOUNT_PLATE
  6
CONTINUOUS
100
AcDbLine
 10
-790.6995586985995
 20
1128.388245441691
 30
0.0
 11
-788.4564184877271
 21
1130.631385652563
 31
0.0
1001
ACAD
1010
0.0
1020
0.0
1030
0.0
1001
HATCHBACKGROUNDCOLOR
1071
-939524096
1000

1000

  0
LINE
  5
66D
330
620
100
AcDbEntity
  8
MOUNT_PLATE
  6
CONTINUOUS
100
AcDbLine
 10
-790.6995586985995
 20
1128.211468746394
 30
0.0
 11
-788.2796417924304
 21
1130.631385652563
 31
0.0
1001
ACAD
1010
0.0
1020
0.0
1030
0.0
1001
HATCHBACKGROUNDCOLOR
1071
-939524096
1000

1000

  0
LINE
  5
66E
330
620
100
AcDbEntity
  8
MOUNT_PLATE
  6
CONTINUOUS
100
AcDbLine
 10
-790.6995586985995
 20
1128.034692051098
 30
0.0
 11
-788.1028650971338
 21
1130.631385652563
 31
0.0
1001
ACAD
1010
0.0
1020
0.0
1030
0.0
1001
HATCHBACKGROUNDCOLOR
1071
-939524096
1000

1000

  0
LINE
  5
66F
330
620
100
AcDbEntity
  8
MOUNT_PLATE
  6
CONTINUOUS
100
AcDbLine
 10
-796.1995586985995
 20
1122.357915355801
 30
0.0
 11
-793.8260884018371
 21
1124.731385652563
 31
0.0
1001
ACAD
1010
0.0
1020
0.0
1030
0.0
1001
HATCHBACKGROUNDCOLOR
1071
-939524096
1000

1000

  0
LINE
  5
670
330
620
100
AcDbEntity
  8
MOUNT_PLATE
  6
CONTINUOUS
100
AcDbLine
 10
-796.1995586985995
 20
1122.181138660504
 30
0.0
 11
-793.6493117065404
 21
1124.731385652563
 31
0.0
1001
ACAD
1010
0.0
1020
0.0
1030
0.0
1001
HATCHBACKGROUNDCOLOR
1071
-939524096
1000

1000

  0
LINE
  5
671
330
620
100
AcDbEntity
  8
MOUNT_PLATE
  6
CONTINUOUS
100
AcDbLine
 10
-796.1995586985995
 20
1122.004361965208
 30
0.0
 11
-793.4725350112437
 21
1124.731385652563
 31
0.0
1001
ACAD
1010
0.0
1020
0.0
1030
0.0
1001
HATCHBACKGROUNDCOLOR
1071
-939524096
1000

1000

  0
LINE
  5
672
330
620
100
AcDbEntity
  8
MOUNT_PLATE
  6
CONTINUOUS
100
AcDbLine
 10
-790.6260884018371
 20
1127.931385652563
 30
0.0
 11
-787.9260884018372
 21
1130.631385652563
 31
0.0
1001
ACAD
1010
0.0
1020
0.0
1030
0.0
1001
HATCHBACKGROUNDCOLOR
1071
-939524096
1000

1000

  0
LINE
  5
673
330
620
100
AcDbEntity
  8
MOUNT_PLATE
  6
CONTINUOUS
100
AcDbLine
 10
-790.4493117065406
 20
1127.931385652563
 30
0.0
 11
-787.7493117065405
 21
1130.631385652563
 31
0.0
1001
ACAD
1010
0.0
1020
0.0
1030
0.0
1001
HATCHBACKGROUNDCOLOR
1071
-939524096
1000

1000

  0
LINE
  5
674
330
620
100
AcDbEntity
  8
MOUNT_PLATE
  6
CONTINUOUS
100
AcDbLine
 10
-790.2725350112439
 20
1127.931385652563
 30
0.0
 11
-787.5725350112439
 21
1130.631385652563
 31
0.0
1001
ACAD
1010
0.0
1020
0.0
1030
0.0
1001
HATCHBACKGROUNDCOLOR
1071
-939524096
1000

1000

  0
LINE
  5
675
330
620
100
AcDbEntity
  8
MOUNT_PLATE
  6
CONTINUOUS
100
AcDbLine
 10
-796.1995586985995
 20
1121.827585269911
 30
0.0
 11
-794.6995586985995
 21
1123.327585269911
 31
0.0
1001
ACAD
1010
0.0
1020
0.0
1030
0.0
1001
HATCHBACKGROUNDCOLOR
1071
-939524096
1000

1000

  0
LINE
  5
676
330
620
100
AcDbEntity
  8
MOUNT_PLATE
  6
CONTINUOUS
100
AcDbLine
 10
-796.1995586985995
 20
1121.650808574614
 30
0.0
 11
-794.6995586985995
 21
1123.150808574614
 31
0.0
1001
ACAD
1010
0.0
1020
0.0
1030
0.0
1001
HATCHBACKGROUNDCOLOR
1071
-939524096
1000

1000

  0
LINE
  5
677
330
620
100
AcDbEntity
  8
MOUNT_PLATE
  6
CONTINUOUS
100
AcDbLine
 10
-796.1995586985995
 20
1121.474031879318
 30
0.0
 11
-794.6995586985995
 21
1122.974031879318
 31
0.0
1001
ACAD
1010
0.0
1020
0.0
1030
0.0
1001
HATCHBACKGROUNDCOLOR
1071
-939524096
1000

1000

  0
LINE
  5
678
330
620
100
AcDbEntity
  8
MOUNT_PLATE
  6
CONTINUOUS
100
AcDbLine
 10
-796.1995586985995
 20
1121.297255184021
 30
0.0
 11
-794.6995586985995
 21
1122.797255184021
 31
0.0
1001
ACAD
1010
0.0
1020
0.0
1030
0.0
1001
HATCHBACKGROUNDCOLOR
1071
-939524096
1000

1000

  0
LINE
  5
679
330
620
100
AcDbEntity
  8
MOUNT_PLATE
  6
CONTINUOUS
100
AcDbLine
 10
-796.1995586985995
 20
1121.120478488725
 30
0.0
 11
-794.6995586985995
 21
1122.620478488725
 31
0.0
1001
ACAD
1010
0.0
1020
0.0
1030
0.0
1001
HATCHBACKGROUNDCOLOR
1071
-939524096
1000

1000

  0
LINE
  5
67A
330
620
100
AcDbEntity
  8
MOUNT_PLATE
  6
CONTINUOUS
100
AcDbLine
 10
-796.1995586985995
 20
1120.943701793428
 30
0.0
 11
-794.6995586985995
 21
1122.443701793428
 31
0.0
1001
ACAD
1010
0.0
1020
0.0
1030
0.0
1001
HATCHBACKGROUNDCOLOR
1071
-939524096
1000

1000

  0
LINE
  5
67B
330
620
100
AcDbEntity
  8
MOUNT_PLATE
  6
CONTINUOUS
100
AcDbLine
 10
-796.1995586985995
 20
1120.766925098131
 30
0.0
 11
-794.6995586985995
 21
1122.266925098131
 31
0.0
1001
ACAD
1010
0.0
1020
0.0
1030
0.0
1001
HATCHBACKGROUNDCOLOR
1071
-939524096
1000

1000

  0
LINE
  5
67C
330
620
100
AcDbEntity
  8
MOUNT_PLATE
  6
CONTINUOUS
100
AcDbLine
 10
-796.1995586985995
 20
1120.590148402835
 30
0.0
 11
-794.6995586985995
 21
1122.090148402835
 31
0.0
1001
ACAD
1010
0.0
1020
0.0
1030
0.0
1001
HATCHBACKGROUNDCOLOR
1071
-939524096
1000

1000

  0
LINE
  5
67D
330
620
100
AcDbEntity
  8
MOUNT_PLATE
  6
CONTINUOUS
100
AcDbLine
 10
-796.1995586985995
 20
1120.413371707538
 30
0.0
 11
-794.6995586985995
 21
1121.913371707538
 31
0.0
1001
ACAD
1010
0.0
1020
0.0
1030
0.0
1001
HATCHBACKGROUNDCOLOR
1071
-939524096
1000

1000

  0
LINE
  5
67E
330
620
100
AcDbEntity
  8
MOUNT_PLATE
  6
CONTINUOUS
100
AcDbLine
 10
-796.1995586985995
 20
1120.236595012241
 30
0.0
 11
-794.6995586985995
 21
1121.736595012241
 31
0.0
1001
ACAD
1010
0.0
1020
0.0
1030
0.0
1001
HATCHBACKGROUNDCOLOR
1071
-939524096
1000

1000

  0
LINE
  5
67F
330
620
100
AcDbEntity
  8
MOUNT_PLATE
  6
CONTINUOUS
100
AcDbLine
 10
-796.1995586985995
 20
1120.059818316945
 30
0.0
 11
-794.6995586985995
 21
1121.559818316945
 31
0.0
1001
ACAD
1010
0.0
1020
0.0
1030
0.0
1001
HATCHBACKGROUNDCOLOR
1071
-939524096
1000

1000

  0
LINE
  5
680
330
620
100
AcDbEntity
  8
MOUNT_PLATE
  6
CONTINUOUS
100
AcDbLine
 10
-796.1995586985995
 20
1119.883041621648
 30
0.0
 11
-794.6995586985995
 21
1121.383041621648
 31
0.0
1001
ACAD
1010
0.0
1020
0.0
1030
0.0
1001
HATCHBACKGROUNDCOLOR
1071
-939524096
1000

1000

  0
LINE
  5
681
330
620
100
AcDbEntity
  8
MOUNT_PLATE
  6
CONTINUOUS
100
AcDbLine
 10
-796.1995586985995
 20
1119.706264926351
 30
0.0
 11
-794.6995586985995
 21
1121.206264926351
 31
0.0
1001
ACAD
1010
0.0
1020
0.0
1030
0.0
1001
HATCHBACKGROUNDCOLOR
1071
-939524096
1000

1000

  0
LINE
  5
682
330
620
100
AcDbEntity
  8
MOUNT_PLATE
  6
CONTINUOUS
100
AcDbLine
 10
-794.6957583159472
 20
1123.331385652563
 30
0.0
 11
-793.2957583159471
 21
1124.731385652563
 31
0.0
1001
ACAD
1010
0.0
1020
0.0
1030
0.0
1001
HATCHBACKGROUNDCOLOR
1071
-939524096
1000

1000

  0
LINE
  5
683
330
620
100
AcDbEntity
  8
MOUNT_PLATE
  6
CONTINUOUS
100
AcDbLine
 10
-794.5189816206506
 20
1123.331385652563
 30
0.0
 11
-793.1189816206505
 21
1124.731385652563
 31
0.0
1001
ACAD
1010
0.0
1020
0.0
1030
0.0
1001
HATCHBACKGROUNDCOLOR
1071
-939524096
1000

1000

  0
LINE
  5
684
330
620
100
AcDbEntity
  8
MOUNT_PLATE
  6
CONTINUOUS
100
AcDbLine
 10
-794.3422049253539
 20
1123.331385652563
 30
0.0
 11
-792.9422049253538
 21
1124.731385652563
 31
0.0
1001
ACAD
1010
0.0
1020
0.0
1030
0.0
1001
HATCHBACKGROUNDCOLOR
1071
-939524096
1000

1000

  0
LINE
  5
685
330
620
100
AcDbEntity
  8
MOUNT_PLATE
  6
CONTINUOUS
100
AcDbLine
 10
-794.1654282300573
 20
1123.331385652563
 30
0.0
 11
-792.7654282300572
 21
1124.731385652563
 31
0.0
1001
ACAD
1010
0.0
1020
0.0
1030
0.0
1001
HATCHBACKGROUNDCOLOR
1071
-939524096
1000

1000

  0
LINE
  5
686
330
620
100
AcDbEntity
  8
MOUNT_PLATE
  6
CONTINUOUS
100
AcDbLine
 10
-793.9886515347606
 20
1123.331385652563
 30
0.0
 11
-792.5886515347605
 21
1124.731385652563
 31
0.0
1001
ACAD
1010
0.0
1020
0.0
1030
0.0
1001
HATCHBACKGROUNDCOLOR
1071
-939524096
1000

1000

  0
LINE
  5
687
330
620
100
AcDbEntity
  8
MOUNT_PLATE
  6
CONTINUOUS
100
AcDbLine
 10
-793.811874839464
 20
1123.331385652563
 30
0.0
 11
-792.411874839464
 21
1124.731385652563
 31
0.0
1001
ACAD
1010
0.0
1020
0.0
1030
0.0
1001
HATCHBACKGROUNDCOLOR
1071
-939524096
1000

1000

  0
LINE
  5
688
330
620
100
AcDbEntity
  8
MOUNT_PLATE
  6
CONTINUOUS
100
AcDbLine
 10
-793.6350981441674
 20
1123.331385652563
 30
0.0
 11
-792.2350981441673
 21
1124.731385652563
 31
0.0
1001
ACAD
1010
0.0
1020
0.0
1030
0.0
1001
HATCHBACKGROUNDCOLOR
1071
-939524096
1000

1000

  0
LINE
  5
689
330
620
100
AcDbEntity
  8
MOUNT_PLATE
  6
CONTINUOUS
100
AcDbLine
 10
-793.4583214488707
 20
1123.331385652563
 30
0.0
 11
-792.0583214488706
 21
1124.731385652563
 31
0.0
1001
ACAD
1010
0.0
1020
0.0
1030
0.0
1001
HATCHBACKGROUNDCOLOR
1071
-939524096
1000

1000

  0
LINE
  5
68A
330
620
100
AcDbEntity
  8
MOUNT_PLATE
  6
CONTINUOUS
100
AcDbLine
 10
-793.281544753574
 20
1123.331385652563
 30
0.0
 11
-791.881544753574
 21
1124.731385652563
 31
0.0
1001
ACAD
1010
0.0
1020
0.0
1030
0.0
1001
HATCHBACKGROUNDCOLOR
1071
-939524096
1000

1000

  0
LINE
  5
68B
330
620
100
AcDbEntity
  8
MOUNT_PLATE
  6
CONTINUOUS
100
AcDbLine
 10
-793.1047680582775
 20
1123.331385652563
 30
0.0
 11
-791.7047680582774
 21
1124.731385652563
 31
0.0
1001
ACAD
1010
0.0
1020
0.0
1030
0.0
1001
HATCHBACKGROUNDCOLOR
1071
-939524096
1000

1000

  0
LINE
  5
68C
330
620
100
AcDbEntity
  8
MOUNT_PLATE
  6
CONTINUOUS
100
AcDbLine
 10
-792.9279913629808
 20
1123.331385652563
 30
0.0
 11
-791.5279913629807
 21
1124.731385652563
 31
0.0
1001
ACAD
1010
0.0
1020
0.0
1030
0.0
1001
HATCHBACKGROUNDCOLOR
1071
-939524096
1000

1000

  0
LINE
  5
68D
330
620
100
AcDbEntity
  8
MOUNT_PLATE
  6
CONTINUOUS
100
AcDbLine
 10
-792.7512146676842
 20
1123.331385652563
 30
0.0
 11
-791.3512146676841
 21
1124.731385652563
 31
0.0
1001
ACAD
1010
0.0
1020
0.0
1030
0.0
1001
HATCHBACKGROUNDCOLOR
1071
-939524096
1000

1000

  0
LINE
  5
68E
330
620
100
AcDbEntity
  8
MOUNT_PLATE
  6
CONTINUOUS
100
AcDbLine
 10
-792.5744379723875
 20
1123.331385652563
 30
0.0
 11
-791.1744379723874
 21
1124.731385652563
 31
0.0
1001
ACAD
1010
0.0
1020
0.0
1030
0.0
1001
HATCHBACKGROUNDCOLOR
1071
-939524096
1000

1000

  0
LINE
  5
68F
330
620
100
AcDbEntity
  8
MOUNT_PLATE
  6
CONTINUOUS
100
AcDbLine
 10
-790.0957583159473
 20
1127.931385652563
 30
0.0
 11
-787.3957583159472
 21
1130.631385652563
 31
0.0
1001
ACAD
1010
0.0
1020
0.0
1030
0.0
1001
HATCHBACKGROUNDCOLOR
1071
-939524096
1000

1000

  0
LINE
  5
690
330
620
100
AcDbEntity
  8
MOUNT_PLATE
  6
CONTINUOUS
100
AcDbLine
 10
-789.9189816206506
 20
1127.931385652563
 30
0.0
 11
-787.2189816206507
 21
1130.631385652563
 31
0.0
1001
ACAD
1010
0.0
1020
0.0
1030
0.0
1001
HATCHBACKGROUNDCOLOR
1071
-939524096
1000

1000

  0
LINE
  5
691
330
620
100
AcDbEntity
  8
MOUNT_PLATE
  6
CONTINUOUS
100
AcDbLine
 10
-789.7422049253539
 20
1127.931385652563
 30
0.0
 11
-787.042204925354
 21
1130.631385652563
 31
0.0
1001
ACAD
1010
0.0
1020
0.0
1030
0.0
1001
HATCHBACKGROUNDCOLOR
1071
-939524096
1000

1000

  0
LINE
  5
692
330
620
100
AcDbEntity
  8
MOUNT_PLATE
  6
CONTINUOUS
100
AcDbLine
 10
-789.5654282300573
 20
1127.931385652563
 30
0.0
 11
-786.8654282300573
 21
1130.631385652563
 31
0.0
1001
ACAD
1010
0.0
1020
0.0
1030
0.0
1001
HATCHBACKGROUNDCOLOR
1071
-939524096
1000

1000

  0
LINE
  5
693
330
620
100
AcDbEntity
  8
MOUNT_PLATE
  6
CONTINUOUS
100
AcDbLine
 10
-789.3886515347607
 20
1127.931385652563
 30
0.0
 11
-786.6886515347607
 21
1130.631385652563
 31
0.0
1001
ACAD
1010
0.0
1020
0.0
1030
0.0
1001
HATCHBACKGROUNDCOLOR
1071
-939524096
1000

1000

  0
LINE
  5
694
330
620
100
AcDbEntity
  8
MOUNT_PLATE
  6
CONTINUOUS
100
AcDbLine
 10
-789.211874839464
 20
1127.931385652563
 30
0.0
 11
-786.5118748394641
 21
1130.631385652563
 31
0.0
1001
ACAD
1010
0.0
1020
0.0
1030
0.0
1001
HATCHBACKGROUNDCOLOR
1071
-939524096
1000

1000

  0
LINE
  5
695
330
620
100
AcDbEntity
  8
MOUNT_PLATE
  6
CONTINUOUS
100
AcDbLine
 10
-789.0350981441674
 20
1127.931385652563
 30
0.0
 11
-786.3350981441674
 21
1130.631385652563
 31
0.0
1001
ACAD
1010
0.0
1020
0.0
1030
0.0
1001
HATCHBACKGROUNDCOLOR
1071
-939524096
1000

1000

  0
LINE
  5
696
330
620
100
AcDbEntity
  8
MOUNT_PLATE
  6
CONTINUOUS
100
AcDbLine
 10
-788.8583214488707
 20
1127.931385652563
 30
0.0
 11
-786.1583214488708
 21
1130.631385652563
 31
0.0
1001
ACAD
1010
0.0
1020
0.0
1030
0.0
1001
HATCHBACKGROUNDCOLOR
1071
-939524096
1000

1000

  0
LINE
  5
697
330
620
100
AcDbEntity
  8
MOUNT_PLATE
  6
CONTINUOUS
100
AcDbLine
 10
-788.681544753574
 20
1127.931385652563
 30
0.0
 11
-785.9815447535741
 21
1130.631385652563
 31
0.0
1001
ACAD
1010
0.0
1020
0.0
1030
0.0
1001
HATCHBACKGROUNDCOLOR
1071
-939524096
1000

1000

  0
LINE
  5
698
330
620
100
AcDbEntity
  8
MOUNT_PLATE
  6
CONTINUOUS
100
AcDbLine
 10
-788.5047680582774
 20
1127.931385652563
 30
0.0
 11
-785.8047680582775
 21
1130.631385652563
 31
0.0
1001
ACAD
1010
0.0
1020
0.0
1030
0.0
1001
HATCHBACKGROUNDCOLOR
1071
-939524096
1000

1000

  0
LINE
  5
699
330
620
100
AcDbEntity
  8
MOUNT_PLATE
  6
CONTINUOUS
100
AcDbLine
 10
-788.3279913629807
 20
1127.931385652563
 30
0.0
 11
-785.6279913629809
 21
1130.631385652563
 31
0.0
1001
ACAD
1010
0.0
1020
0.0
1030
0.0
1001
HATCHBACKGROUNDCOLOR
1071
-939524096
1000

1000

  0
LINE
  5
69A
330
620
100
AcDbEntity
  8
MOUNT_PLATE
  6
CONTINUOUS
100
AcDbLine
 10
-788.1512146676841
 20
1127.931385652563
 30
0.0
 11
-785.4512146676842
 21
1130.631385652563
 31
0.0
1001
ACAD
1010
0.0
1020
0.0
1030
0.0
1001
HATCHBACKGROUNDCOLOR
1071
-939524096
1000

1000

  0
LINE
  5
69B
330
620
100
AcDbEntity
  8
MOUNT_PLATE
  6
CONTINUOUS
100
AcDbLine
 10
-787.9744379723875
 20
1127.931385652563
 30
0.0
 11
-785.2744379723875
 21
1130.631385652563
 31
0.0
1001
ACAD
1010
0.0
1020
0.0
1030
0.0
1001
HATCHBACKGROUNDCOLOR
1071
-939524096
1000

1000

  0
LINE
  5
69C
330
620
100
AcDbEntity
  8
MOUNT_PLATE
  6
CONTINUOUS
100
AcDbLine
 10
-796.097661277091
 20
1119.631385652563
 30
0.0
 11
-794.6995586985995
 21
1121.029488231055
 31
0.0
1001
ACAD
1010
0.0
1020
0.0
1030
0.0
1001
HATCHBACKGROUNDCOLOR
1071
-939524096
1000

1000

  0
LINE
  5
69D
330
620
100
AcDbEntity
  8
MOUNT_PLATE
  6
CONTINUOUS
100
AcDbLine
 10
-795.9208845817943
 20
1119.631385652563
 30
0.0
 11
-794.6995586985995
 21
1120.852711535758
 31
0.0
1001
ACAD
1010
0.0
1020
0.0
1030
0.0
1001
HATCHBACKGROUNDCOLOR
1071
-939524096
1000

1000

  0
LINE
  5
69E
330
620
100
AcDbEntity
  8
MOUNT_PLATE
  6
CONTINUOUS
100
AcDbLine
 10
-792.397661277091
 20
1123.331385652563
 30
0.0
 11
-790.9976612770909
 21
1124.731385652563
 31
0.0
1001
ACAD
1010
0.0
1020
0.0
1030
0.0
1001
HATCHBACKGROUNDCOLOR
1071
-939524096
1000

1000

  0
LINE
  5
69F
330
620
100
AcDbEntity
  8
MOUNT_PLATE
  6
CONTINUOUS
100
AcDbLine
 10
-792.2208845817943
 20
1123.331385652563
 30
0.0
 11
-790.8208845817942
 21
1124.731385652563
 31
0.0
1001
ACAD
1010
0.0
1020
0.0
1030
0.0
1001
HATCHBACKGROUNDCOLOR
1071
-939524096
1000

1000

  0
LINE
  5
6A0
330
620
100
AcDbEntity
  8
MOUNT_PLATE
  6
CONTINUOUS
100
AcDbLine
 10
-787.7976612770908
 20
1127.931385652563
 30
0.0
 11
-785.097661277091
 21
1130.631385652563
 31
0.0
1001
ACAD
1010
0.0
1020
0.0
1030
0.0
1001
HATCHBACKGROUNDCOLOR
1071
-939524096
1000

1000

  0
LINE
  5
6A1
330
620
100
AcDbEntity
  8
MOUNT_PLATE
  6
CONTINUOUS
100
AcDbLine
 10
-787.6208845817941
 20
1127.931385652563
 30
0.0
 11
-784.9208845817943
 21
1130.631385652563
 31
0.0
1001
ACAD
1010
0.0
1020
0.0
1030
0.0
1001
HATCHBACKGROUNDCOLOR
1071
-939524096
1000

1000

  0
LINE
  5
6A2
330
620
100
AcDbEntity
  8
MOUNT_PLATE
  6
CONTINUOUS
100
AcDbLine
 10
-795.7441078864977
 20
1119.631385652563
 30
0.0
 11
-794.6995586985995
 21
1120.675934840461
 31
0.0
1001
ACAD
1010
0.0
1020
0.0
1030
0.0
1001
HATCHBACKGROUNDCOLOR
1071
-939524096
1000

1000

  0
LINE
  5
6A3
330
620
100
AcDbEntity
  8
MOUNT_PLATE
  6
CONTINUOUS
100
AcDbLine
 10
-795.5673311912011
 20
1119.631385652563
 30
0.0
 11
-794.6995586985995
 21
1120.499158145165
 31
0.0
1001
ACAD
1010
0.0
1020
0.0
1030
0.0
1001
HATCHBACKGROUNDCOLOR
1071
-939524096
1000

1000

  0
LINE
  5
6A4
330
620
100
AcDbEntity
  8
MOUNT_PLATE
  6
CONTINUOUS
100
AcDbLine
 10
-792.0441078864976
 20
1123.331385652563
 30
0.0
 11
-790.6441078864975
 21
1124.731385652563
 31
0.0
1001
ACAD
1010
0.0
1020
0.0
1030
0.0
1001
HATCHBACKGROUNDCOLOR
1071
-939524096
1000

1000

  0
LINE
  5
6A5
330
620
100
AcDbEntity
  8
MOUNT_PLATE
  6
CONTINUOUS
100
AcDbLine
 10
-791.8673311912011
 20
1123.331385652563
 30
0.0
 11
-790.467331191201
 21
1124.731385652563
 31
0.0
1001
ACAD
1010
0.0
1020
0.0
1030
0.0
1001
HATCHBACKGROUNDCOLOR
1071
-939524096
1000

1000

  0
LINE
  5
6A6
330
620
100
AcDbEntity
  8
MOUNT_PLATE
  6
CONTINUOUS
100
AcDbLine
 10
-787.5995586985996
 20
1127.775934840461
 30
0.0
 11
-784.7441078864977
 21
1130.631385652563
 31
0.0
1001
ACAD
1010
0.0
1020
0.0
1030
0.0
1001
HATCHBACKGROUNDCOLOR
1071
-939524096
1000

1000

  0
LINE
  5
6A7
330
620
100
AcDbEntity
  8
MOUNT_PLATE
  6
CONTINUOUS
100
AcDbLine
 10
-787.5995586985996
 20
1127.599158145165
 30
0.0
 11
-784.567331191201
 21
1130.631385652563
 31
0.0
1001
ACAD
1010
0.0
1020
0.0
1030
0.0
1001
HATCHBACKGROUNDCOLOR
1071
-939524096
1000

1000

  0
LINE
  5
6A8
330
620
100
AcDbEntity
  8
MOUNT_PLATE
  6
CONTINUOUS
100
AcDbLine
 10
-795.3905544959044
 20
1119.631385652563
 30
0.0
 11
-794.5905544959045
 21
1120.431385652563
 31
0.0
1001
ACAD
1010
0.0
1020
0.0
1030
0.0
1001
HATCHBACKGROUNDCOLOR
1071
-939524096
1000

1000

  0
LINE
  5
6A9
330
620
100
AcDbEntity
  8
MOUNT_PLATE
  6
CONTINUOUS
100
AcDbLine
 10
-795.2137778006078
 20
1119.631385652563
 30
0.0
 11
-794.4137778006078
 21
1120.431385652563
 31
0.0
1001
ACAD
1010
0.0
1020
0.0
1030
0.0
1001
HATCHBACKGROUNDCOLOR
1071
-939524096
1000

1000

  0
LINE
  5
6AA
330
620
100
AcDbEntity
  8
MOUNT_PLATE
  6
CONTINUOUS
100
AcDbLine
 10
-795.0370011053111
 20
1119.631385652563
 30
0.0
 11
-794.2370011053112
 21
1120.431385652563
 31
0.0
1001
ACAD
1010
0.0
1020
0.0
1030
0.0
1001
HATCHBACKGROUNDCOLOR
1071
-939524096
1000

1000

  0
LINE
  5
6AB
330
620
100
AcDbEntity
  8
MOUNT_PLATE
  6
CONTINUOUS
100
AcDbLine
 10
-791.6905544959044
 20
1123.331385652563
 30
0.0
 11
-790.2905544959043
 21
1124.731385652563
 31
0.0
1001
ACAD
1010
0.0
1020
0.0
1030
0.0
1001
HATCHBACKGROUNDCOLOR
1071
-939524096
1000

1000

  0
LINE
  5
6AC
330
620
100
AcDbEntity
  8
MOUNT_PLATE
  6
CONTINUOUS
100
AcDbLine
 10
-791.5137778006077
 20
1123.331385652563
 30
0.0
 11
-790.1137778006076
 21
1124.731385652563
 31
0.0
1001
ACAD
1010
0.0
1020
0.0
1030
0.0
1001
HATCHBACKGROUNDCOLOR
1071
-939524096
1000

1000

  0
LINE
  5
6AD
330
620
100
AcDbEntity
  8
MOUNT_PLATE
  6
CONTINUOUS
100
AcDbLine
 10
-791.3370011053111
 20
1123.331385652563
 30
0.0
 11
-789.937001105311
 21
1124.731385652563
 31
0.0
1001
ACAD
1010
0.0
1020
0.0
1030
0.0
1001
HATCHBACKGROUNDCOLOR
1071
-939524096
1000

1000

  0
LINE
  5
6AE
330
620
100
AcDbEntity
  8
MOUNT_PLATE
  6
CONTINUOUS
100
AcDbLine
 10
-787.5995586985996
 20
1127.422381449868
 30
0.0
 11
-784.3905544959044
 21
1130.631385652563
 31
0.0
1001
ACAD
1010
0.0
1020
0.0
1030
0.0
1001
HATCHBACKGROUNDCOLOR
1071
-939524096
1000

1000

  0
LINE
  5
6AF
330
620
100
AcDbEntity
  8
MOUNT_PLATE
  6
CONTINUOUS
100
AcDbLine
 10
-787.5995586985996
 20
1127.245604754572
 30
0.0
 11
-784.2137778006078
 21
1130.631385652563
 31
0.0
1001
ACAD
1010
0.0
1020
0.0
1030
0.0
1001
HATCHBACKGROUNDCOLOR
1071
-939524096
1000

1000

  0
LINE
  5
6B0
330
620
100
AcDbEntity
  8
MOUNT_PLATE
  6
CONTINUOUS
100
AcDbLine
 10
-787.5995586985996
 20
1127.068828059275
 30
0.0
 11
-784.0370011053111
 21
1130.631385652563
 31
0.0
1001
ACAD
1010
0.0
1020
0.0
1030
0.0
1001
HATCHBACKGROUNDCOLOR
1071
-939524096
1000

1000

  0
LINE
  5
6B1
330
620
100
AcDbEntity
  8
MOUNT_PLATE
  6
CONTINUOUS
100
AcDbLine
 10
-794.8602244100146
 20
1119.631385652563
 30
0.0
 11
-794.0602244100146
 21
1120.431385652563
 31
0.0
1001
ACAD
1010
0.0
1020
0.0
1030
0.0
1001
HATCHBACKGROUNDCOLOR
1071
-939524096
1000

1000

  0
LINE
  5
6B2
330
620
100
AcDbEntity
  8
MOUNT_PLATE
  6
CONTINUOUS
100
AcDbLine
 10
-794.6834477147179
 20
1119.631385652563
 30
0.0
 11
-793.8834477147179
 21
1120.431385652563
 31
0.0
1001
ACAD
1010
0.0
1020
0.0
1030
0.0
1001
HATCHBACKGROUNDCOLOR
1071
-939524096
1000

1000

  0
LINE
  5
6B3
330
620
100
AcDbEntity
  8
MOUNT_PLATE
  6
CONTINUOUS
100
AcDbLine
 10
-794.5066710194212
 20
1119.631385652563
 30
0.0
 11
-793.7066710194213
 21
1120.431385652563
 31
0.0
1001
ACAD
1010
0.0
1020
0.0
1030
0.0
1001
HATCHBACKGROUNDCOLOR
1071
-939524096
1000

1000

  0
LINE
  5
6B4
330
620
100
AcDbEntity
  8
MOUNT_PLATE
  6
CONTINUOUS
100
AcDbLine
 10
-791.1602244100145
 20
1123.331385652563
 30
0.0
 11
-789.7602244100144
 21
1124.731385652563
 31
0.0
1001
ACAD
1010
0.0
1020
0.0
1030
0.0
1001
HATCHBACKGROUNDCOLOR
1071
-939524096
1000

1000

  0
LINE
  5
6B5
330
620
100
AcDbEntity
  8
MOUNT_PLATE
  6
CONTINUOUS
100
AcDbLine
 10
-790.9834477147178
 20
1123.331385652563
 30
0.0
 11
-789.5834477147177
 21
1124.731385652563
 31
0.0
1001
ACAD
1010
0.0
1020
0.0
1030
0.0
1001
HATCHBACKGROUNDCOLOR
1071
-939524096
1000

1000

  0
LINE
  5
6B6
330
620
100
AcDbEntity
  8
MOUNT_PLATE
  6
CONTINUOUS
100
AcDbLine
 10
-790.8066710194212
 20
1123.331385652563
 30
0.0
 11
-789.4066710194211
 21
1124.731385652563
 31
0.0
1001
ACAD
1010
0.0
1020
0.0
1030
0.0
1001
HATCHBACKGROUNDCOLOR
1071
-939524096
1000

1000

  0
LINE
  5
6B7
330
620
100
AcDbEntity
  8
MOUNT_PLATE
  6
CONTINUOUS
100
AcDbLine
 10
-787.5995586985996
 20
1126.892051363978
 30
0.0
 11
-784.8995586985995
 21
1129.592051363978
 31
0.0
1001
ACAD
1010
0.0
1020
0.0
1030
0.0
1001
HATCHBACKGROUNDCOLOR
1071
-939524096
1000

1000

  0
LINE
  5
6B8
330
620
100
AcDbEntity
  8
MOUNT_PLATE
  6
CONTINUOUS
100
AcDbLine
 10
-787.5995586985996
 20
1126.715274668682
 30
0.0
 11
-784.8995586985995
 21
1129.415274668682
 31
0.0
1001
ACAD
1010
0.0
1020
0.0
1030
0.0
1001
HATCHBACKGROUNDCOLOR
1071
-939524096
1000

1000

  0
LINE
  5
6B9
330
620
100
AcDbEntity
  8
MOUNT_PLATE
  6
CONTINUOUS
100
AcDbLine
 10
-787.5995586985996
 20
1126.538497973385
 30
0.0
 11
-784.8995586985995
 21
1129.238497973385
 31
0.0
1001
ACAD
1010
0.0
1020
0.0
1030
0.0
1001
HATCHBACKGROUNDCOLOR
1071
-939524096
1000

1000

  0
LINE
  5
6BA
330
620
100
AcDbEntity
  8
MOUNT_PLATE
  6
CONTINUOUS
100
AcDbLine
 10
-784.8602244100146
 20
1129.631385652563
 30
0.0
 11
-783.8602244100146
 21
1130.631385652563
 31
0.0
1001
ACAD
1010
0.0
1020
0.0
1030
0.0
1001
HATCHBACKGROUNDCOLOR
1071
-939524096
1000

1000

  0
LINE
  5
6BB
330
620
100
AcDbEntity
  8
MOUNT_PLATE
  6
CONTINUOUS
100
AcDbLine
 10
-784.6834477147179
 20
1129.631385652563
 30
0.0
 11
-783.6834477147179
 21
1130.631385652563
 31
0.0
1001
ACAD
1010
0.0
1020
0.0
1030
0.0
1001
HATCHBACKGROUNDCOLOR
1071
-939524096
1000

1000

  0
LINE
  5
6BC
330
620
100
AcDbEntity
  8
MOUNT_PLATE
  6
CONTINUOUS
100
AcDbLine
 10
-784.5066710194212
 20
1129.631385652563
 30
0.0
 11
-783.5066710194212
 21
1130.631385652563
 31
0.0
1001
ACAD
1010
0.0
1020
0.0
1030
0.0
1001
HATCHBACKGROUNDCOLOR
1071
-939524096
1000

1000

  0
LINE
  5
6BD
330
620
100
AcDbEntity
  8
MOUNT_PLATE
  6
CONTINUOUS
100
AcDbLine
 10
-794.3298943241246
 20
1119.631385652563
 30
0.0
 11
-793.5298943241246
 21
1120.431385652563
 31
0.0
1001
ACAD
1010
0.0
1020
0.0
1030
0.0
1001
HATCHBACKGROUNDCOLOR
1071
-939524096
1000

1000

  0
LINE
  5
6BE
330
620
100
AcDbEntity
  8
MOUNT_PLATE
  6
CONTINUOUS
100
AcDbLine
 10
-794.153117628828
 20
1119.631385652563
 30
0.0
 11
-793.353117628828
 21
1120.431385652563
 31
0.0
1001
ACAD
1010
0.0
1020
0.0
1030
0.0
1001
HATCHBACKGROUNDCOLOR
1071
-939524096
1000

1000

  0
LINE
  5
6BF
330
620
100
AcDbEntity
  8
MOUNT_PLATE
  6
CONTINUOUS
100
AcDbLine
 10
-793.9763409335313
 20
1119.631385652563
 30
0.0
 11
-793.1763409335314
 21
1120.431385652563
 31
0.0
1001
ACAD
1010
0.0
1020
0.0
1030
0.0
1001
HATCHBACKGROUNDCOLOR
1071
-939524096
1000

1000

  0
LINE
  5
6C0
330
620
100
AcDbEntity
  8
MOUNT_PLATE
  6
CONTINUOUS
100
AcDbLine
 10
-793.7995642382347
 20
1119.631385652563
 30
0.0
 11
-792.9995642382347
 21
1120.431385652563
 31
0.0
1001
ACAD
1010
0.0
1020
0.0
1030
0.0
1001
HATCHBACKGROUNDCOLOR
1071
-939524096
1000

1000

  0
LINE
  5
6C1
330
620
100
AcDbEntity
  8
MOUNT_PLATE
  6
CONTINUOUS
100
AcDbLine
 10
-793.622787542938
 20
1119.631385652563
 30
0.0
 11
-792.822787542938
 21
1120.431385652563
 31
0.0
1001
ACAD
1010
0.0
1020
0.0
1030
0.0
1001
HATCHBACKGROUNDCOLOR
1071
-939524096
1000

1000

  0
LINE
  5
6C2
330
620
100
AcDbEntity
  8
MOUNT_PLATE
  6
CONTINUOUS
100
AcDbLine
 10
-793.4460108476414
 20
1119.631385652563
 30
0.0
 11
-792.6460108476415
 21
1120.431385652563
 31
0.0
1001
ACAD
1010
0.0
1020
0.0
1030
0.0
1001
HATCHBACKGROUNDCOLOR
1071
-939524096
1000

1000

  0
LINE
  5
6C3
330
620
100
AcDbEntity
  8
MOUNT_PLATE
  6
CONTINUOUS
100
AcDbLine
 10
-793.2692341523448
 20
1119.631385652563
 30
0.0
 11
-792.4692341523448
 21
1120.431385652563
 31
0.0
1001
ACAD
1010
0.0
1020
0.0
1030
0.0
1001
HATCHBACKGROUNDCOLOR
1071
-939524096
1000

1000

  0
LINE
  5
6C4
330
620
100
AcDbEntity
  8
MOUNT_PLATE
  6
CONTINUOUS
100
AcDbLine
 10
-790.6298943241245
 20
1123.331385652563
 30
0.0
 11
-789.2298943241244
 21
1124.731385652563
 31
0.0
1001
ACAD
1010
0.0
1020
0.0
1030
0.0
1001
HATCHBACKGROUNDCOLOR
1071
-939524096
1000

1000

  0
LINE
  5
6C5
330
620
100
AcDbEntity
  8
MOUNT_PLATE
  6
CONTINUOUS
100
AcDbLine
 10
-790.453117628828
 20
1123.331385652563
 30
0.0
 11
-789.0531176288279
 21
1124.731385652563
 31
0.0
1001
ACAD
1010
0.0
1020
0.0
1030
0.0
1001
HATCHBACKGROUNDCOLOR
1071
-939524096
1000

1000

  0
LINE
  5
6C6
330
620
100
AcDbEntity
  8
MOUNT_PLATE
  6
CONTINUOUS
100
AcDbLine
 10
-790.2763409335313
 20
1123.331385652563
 30
0.0
 11
-788.8763409335312
 21
1124.731385652563
 31
0.0
1001
ACAD
1010
0.0
1020
0.0
1030
0.0
1001
HATCHBACKGROUNDCOLOR
1071
-939524096
1000

1000

  0
LINE
  5
6C7
330
620
100
AcDbEntity
  8
MOUNT_PLATE
  6
CONTINUOUS
100
AcDbLine
 10
-790.0995642382346
 20
1123.331385652563
 30
0.0
 11
-788.6995642382345
 21
1124.731385652563
 31
0.0
1001
ACAD
1010
0.0
1020
0.0
1030
0.0
1001
HATCHBACKGROUNDCOLOR
1071
-939524096
1000

1000

  0
LINE
  5
6C8
330
620
100
AcDbEntity
  8
MOUNT_PLATE
  6
CONTINUOUS
100
AcDbLine
 10
-789.922787542938
 20
1123.331385652563
 30
0.0
 11
-788.5227875429379
 21
1124.731385652563
 31
0.0
1001
ACAD
1010
0.0
1020
0.0
1030
0.0
1001
HATCHBACKGROUNDCOLOR
1071
-939524096
1000

1000

  0
LINE
  5
6C9
330
620
100
AcDbEntity
  8
MOUNT_PLATE
  6
CONTINUOUS
100
AcDbLine
 10
-789.7460108476414
 20
1123.331385652563
 30
0.0
 11
-788.3460108476413
 21
1124.731385652563
 31
0.0
1001
ACAD
1010
0.0
1020
0.0
1030
0.0
1001
HATCHBACKGROUNDCOLOR
1071
-939524096
1000

1000

  0
LINE
  5
6CA
330
620
100
AcDbEntity
  8
MOUNT_PLATE
  6
CONTINUOUS
100
AcDbLine
 10
-789.5692341523447
 20
1123.331385652563
 30
0.0
 11
-788.1692341523446
 21
1124.731385652563
 31
0.0
1001
ACAD
1010
0.0
1020
0.0
1030
0.0
1001
HATCHBACKGROUNDCOLOR
1071
-939524096
1000

1000

  0
LINE
  5
6CB
330
620
100
AcDbEntity
  8
MOUNT_PLATE
  6
CONTINUOUS
100
AcDbLine
 10
-787.5995586985996
 20
1126.361721278088
 30
0.0
 11
-786.1995586985995
 21
1127.761721278088
 31
0.0
1001
ACAD
1010
0.0
1020
0.0
1030
0.0
1001
HATCHBACKGROUNDCOLOR
1071
-939524096
1000

1000

  0
LINE
  5
6CC
330
620
100
AcDbEntity
  8
MOUNT_PLATE
  6
CONTINUOUS
100
AcDbLine
 10
-787.5995586985996
 20
1126.184944582792
 30
0.0
 11
-786.1995586985995
 21
1127.584944582792
 31
0.0
1001
ACAD
1010
0.0
1020
0.0
1030
0.0
1001
HATCHBACKGROUNDCOLOR
1071
-939524096
1000

1000

  0
LINE
  5
6CD
330
620
100
AcDbEntity
  8
MOUNT_PLATE
  6
CONTINUOUS
100
AcDbLine
 10
-787.5995586985996
 20
1126.008167887495
 30
0.0
 11
-786.1995586985995
 21
1127.408167887495
 31
0.0
1001
ACAD
1010
0.0
1020
0.0
1030
0.0
1001
HATCHBACKGROUNDCOLOR
1071
-939524096
1000

1000

  0
LINE
  5
6CE
330
620
100
AcDbEntity
  8
MOUNT_PLATE
  6
CONTINUOUS
100
AcDbLine
 10
-787.5995586985996
 20
1125.831391192198
 30
0.0
 11
-786.1995586985995
 21
1127.231391192199
 31
0.0
1001
ACAD
1010
0.0
1020
0.0
1030
0.0
1001
HATCHBACKGROUNDCOLOR
1071
-939524096
1000

1000

  0
LINE
  5
6CF
330
620
100
AcDbEntity
  8
MOUNT_PLATE
  6
CONTINUOUS
100
AcDbLine
 10
-787.5995586985996
 20
1125.654614496902
 30
0.0
 11
-786.1995586985995
 21
1127.054614496902
 31
0.0
1001
ACAD
1010
0.0
1020
0.0
1030
0.0
1001
HATCHBACKGROUNDCOLOR
1071
-939524096
1000

1000

  0
LINE
  5
6D0
330
620
100
AcDbEntity
  8
MOUNT_PLATE
  6
CONTINUOUS
100
AcDbLine
 10
-787.5995586985996
 20
1125.477837801605
 30
0.0
 11
-786.1995586985995
 21
1126.877837801605
 31
0.0
1001
ACAD
1010
0.0
1020
0.0
1030
0.0
1001
HATCHBACKGROUNDCOLOR
1071
-939524096
1000

1000

  0
LINE
  5
6D1
330
620
100
AcDbEntity
  8
MOUNT_PLATE
  6
CONTINUOUS
100
AcDbLine
 10
-787.5995586985996
 20
1125.301061106308
 30
0.0
 11
-786.1995586985995
 21
1126.701061106309
 31
0.0
1001
ACAD
1010
0.0
1020
0.0
1030
0.0
1001
HATCHBACKGROUNDCOLOR
1071
-939524096
1000

1000

  0
LINE
  5
6D2
330
620
100
AcDbEntity
  8
MOUNT_PLATE
  6
CONTINUOUS
100
AcDbLine
 10
-786.0298943241244
 20
1127.931385652563
 30
0.0
 11
-784.8995586985995
 21
1129.061721278088
 31
0.0
1001
ACAD
1010
0.0
1020
0.0
1030
0.0
1001
HATCHBACKGROUNDCOLOR
1071
-939524096
1000

1000

  0
LINE
  5
6D3
330
620
100
AcDbEntity
  8
MOUNT_PLATE
  6
CONTINUOUS
100
AcDbLine
 10
-785.8531176288278
 20
1127.931385652563
 30
0.0
 11
-784.8995586985995
 21
1128.884944582792
 31
0.0
1001
ACAD
1010
0.0
1020
0.0
1030
0.0
1001
HATCHBACKGROUNDCOLOR
1071
-939524096
1000

1000

  0
LINE
  5
6D4
330
620
100
AcDbEntity
  8
MOUNT_PLATE
  6
CONTINUOUS
100
AcDbLine
 10
-785.6763409335312
 20
1127.931385652563
 30
0.0
 11
-784.8995586985995
 21
1128.708167887495
 31
0.0
1001
ACAD
1010
0.0
1020
0.0
1030
0.0
1001
HATCHBACKGROUNDCOLOR
1071
-939524096
1000

1000

  0
LINE
  5
6D5
330
620
100
AcDbEntity
  8
MOUNT_PLATE
  6
CONTINUOUS
100
AcDbLine
 10
-785.4995642382345
 20
1127.931385652563
 30
0.0
 11
-784.8995586985995
 21
1128.531391192198
 31
0.0
1001
ACAD
1010
0.0
1020
0.0
1030
0.0
1001
HATCHBACKGROUNDCOLOR
1071
-939524096
1000

1000

  0
LINE
  5
6D6
330
620
100
AcDbEntity
  8
MOUNT_PLATE
  6
CONTINUOUS
100
AcDbLine
 10
-785.3227875429378
 20
1127.931385652563
 30
0.0
 11
-784.8995586985995
 21
1128.354614496902
 31
0.0
1001
ACAD
1010
0.0
1020
0.0
1030
0.0
1001
HATCHBACKGROUNDCOLOR
1071
-939524096
1000

1000

  0
LINE
  5
6D7
330
620
100
AcDbEntity
  8
MOUNT_PLATE
  6
CONTINUOUS
100
AcDbLine
 10
-785.1460108476413
 20
1127.931385652563
 30
0.0
 11
-784.8995586985995
 21
1128.177837801605
 31
0.0
1001
ACAD
1010
0.0
1020
0.0
1030
0.0
1001
HATCHBACKGROUNDCOLOR
1071
-939524096
1000

1000

  0
LINE
  5
6D8
330
620
100
AcDbEntity
  8
MOUNT_PLATE
  6
CONTINUOUS
100
AcDbLine
 10
-784.9692341523446
 20
1127.931385652563
 30
0.0
 11
-784.8995586985995
 21
1128.001061106308
 31
0.0
1001
ACAD
1010
0.0
1020
0.0
1030
0.0
1001
HATCHBACKGROUNDCOLOR
1071
-939524096
1000

1000

  0
LINE
  5
6D9
330
620
100
AcDbEntity
  8
MOUNT_PLATE
  6
CONTINUOUS
100
AcDbLine
 10
-784.3298943241246
 20
1129.631385652563
 30
0.0
 11
-783.3298943241246
 21
1130.631385652563
 31
0.0
1001
ACAD
1010
0.0
1020
0.0
1030
0.0
1001
HATCHBACKGROUNDCOLOR
1071
-939524096
1000

1000

  0
LINE
  5
6DA
330
620
100
AcDbEntity
  8
MOUNT_PLATE
  6
CONTINUOUS
100
AcDbLine
 10
-784.153117628828
 20
1129.631385652563
 30
0.0
 11
-783.153117628828
 21
1130.631385652563
 31
0.0
1001
ACAD
1010
0.0
1020
0.0
1030
0.0
1001
HATCHBACKGROUNDCOLOR
1071
-939524096
1000

1000

  0
LINE
  5
6DB
330
620
100
AcDbEntity
  8
MOUNT_PLATE
  6
CONTINUOUS
100
AcDbLine
 10
-783.9763409335313
 20
1129.631385652563
 30
0.0
 11
-782.9763409335313
 21
1130.631385652563
 31
0.0
1001
ACAD
1010
0.0
1020
0.0
1030
0.0
1001
HATCHBACKGROUNDCOLOR
1071
-939524096
1000

1000

  0
LINE
  5
6DC
330
620
100
AcDbEntity
  8
MOUNT_PLATE
  6
CONTINUOUS
100
AcDbLine
 10
-783.7995642382347
 20
1129.631385652563
 30
0.0
 11
-782.7995642382347
 21
1130.631385652563
 31
0.0
1001
ACAD
1010
0.0
1020
0.0
1030
0.0
1001
HATCHBACKGROUNDCOLOR
1071
-939524096
1000

1000

  0
LINE
  5
6DD
330
620
100
AcDbEntity
  8
MOUNT_PLATE
  6
CONTINUOUS
100
AcDbLine
 10
-783.622787542938
 20
1129.631385652563
 30
0.0
 11
-782.622787542938
 21
1130.631385652563
 31
0.0
1001
ACAD
1010
0.0
1020
0.0
1030
0.0
1001
HATCHBACKGROUNDCOLOR
1071
-939524096
1000

1000

  0
LINE
  5
6DE
330
620
100
AcDbEntity
  8
MOUNT_PLATE
  6
CONTINUOUS
100
AcDbLine
 10
-783.4460108476414
 20
1129.631385652563
 30
0.0
 11
-782.4460108476414
 21
1130.631385652563
 31
0.0
1001
ACAD
1010
0.0
1020
0.0
1030
0.0
1001
HATCHBACKGROUNDCOLOR
1071
-939524096
1000

1000

  0
LINE
  5
6DF
330
620
100
AcDbEntity
  8
MOUNT_PLATE
  6
CONTINUOUS
100
AcDbLine
 10
-783.2692341523448
 20
1129.631385652563
 30
0.0
 11
-782.2692341523448
 21
1130.631385652563
 31
0.0
1001
ACAD
1010
0.0
1020
0.0
1030
0.0
1001
HATCHBACKGROUNDCOLOR
1071
-939524096
1000

1000

  0
LINE
  5
6E0
330
620
100
AcDbEntity
  8
MOUNT_PLATE
  6
CONTINUOUS
100
AcDbLine
 10
-793.0924574570481
 20
1119.631385652563
 30
0.0
 11
-792.2924574570482
 21
1120.431385652563
 31
0.0
1001
ACAD
1010
0.0
1020
0.0
1030
0.0
1001
HATCHBACKGROUNDCOLOR
1071
-939524096
1000

1000

  0
LINE
  5
6E1
330
620
100
AcDbEntity
  8
MOUNT_PLATE
  6
CONTINUOUS
100
AcDbLine
 10
-792.9156807617514
 20
1119.631385652563
 30
0.0
 11
-792.1156807617515
 21
1120.431385652563
 31
0.0
1001
ACAD
1010
0.0
1020
0.0
1030
0.0
1001
HATCHBACKGROUNDCOLOR
1071
-939524096
1000

1000

  0
LINE
  5
6E2
330
620
100
AcDbEntity
  8
MOUNT_PLATE
  6
CONTINUOUS
100
AcDbLine
 10
-792.7389040664549
 20
1119.631385652563
 30
0.0
 11
-791.9389040664549
 21
1120.431385652563
 31
0.0
1001
ACAD
1010
0.0
1020
0.0
1030
0.0
1001
HATCHBACKGROUNDCOLOR
1071
-939524096
1000

1000

  0
LINE
  5
6E3
330
620
100
AcDbEntity
  8
MOUNT_PLATE
  6
CONTINUOUS
100
AcDbLine
 10
-789.3924574570481
 20
1123.331385652563
 30
0.0
 11
-787.992457457048
 21
1124.731385652563
 31
0.0
1001
ACAD
1010
0.0
1020
0.0
1030
0.0
1001
HATCHBACKGROUNDCOLOR
1071
-939524096
1000

1000

  0
LINE
  5
6E4
330
620
100
AcDbEntity
  8
MOUNT_PLATE
  6
CONTINUOUS
100
AcDbLine
 10
-789.2156807617514
 20
1123.331385652563
 30
0.0
 11
-787.8156807617513
 21
1124.731385652563
 31
0.0
1001
ACAD
1010
0.0
1020
0.0
1030
0.0
1001
HATCHBACKGROUNDCOLOR
1071
-939524096
1000

1000

  0
LINE
  5
6E5
330
620
100
AcDbEntity
  8
MOUNT_PLATE
  6
CONTINUOUS
100
AcDbLine
 10
-789.0389040664548
 20
1123.331385652563
 30
0.0
 11
-787.6389040664548
 21
1124.731385652563
 31
0.0
1001
ACAD
1010
0.0
1020
0.0
1030
0.0
1001
HATCHBACKGROUNDCOLOR
1071
-939524096
1000

1000

  0
LINE
  5
6E6
330
620
100
AcDbEntity
  8
MOUNT_PLATE
  6
CONTINUOUS
100
AcDbLine
 10
-787.5995586985996
 20
1125.124284411012
 30
0.0
 11
-786.1995586985995
 21
1126.524284411012
 31
0.0
1001
ACAD
1010
0.0
1020
0.0
1030
0.0
1001
HATCHBACKGROUNDCOLOR
1071
-939524096
1000

1000

  0
LINE
  5
6E7
330
620
100
AcDbEntity
  8
MOUNT_PLATE
  6
CONTINUOUS
100
AcDbLine
 10
-787.5995586985996
 20
1124.947507715715
 30
0.0
 11
-786.1995586985995
 21
1126.347507715715
 31
0.0
1001
ACAD
1010
0.0
1020
0.0
1030
0.0
1001
HATCHBACKGROUNDCOLOR
1071
-939524096
1000

1000

  0
LINE
  5
6E8
330
620
100
AcDbEntity
  8
MOUNT_PLATE
  6
CONTINUOUS
100
AcDbLine
 10
-787.5995586985996
 20
1124.770731020418
 30
0.0
 11
-786.1995586985995
 21
1126.170731020419
 31
0.0
1001
ACAD
1010
0.0
1020
0.0
1030
0.0
1001
HATCHBACKGROUNDCOLOR
1071
-939524096
1000

1000

  0
LINE
  5
6E9
330
620
100
AcDbEntity
  8
MOUNT_PLATE
  6
CONTINUOUS
100
AcDbLine
 10
-783.0924574570481
 20
1129.631385652563
 30
0.0
 11
-782.0924574570481
 21
1130.631385652563
 31
0.0
1001
ACAD
1010
0.0
1020
0.0
1030
0.0
1001
HATCHBACKGROUNDCOLOR
1071
-939524096
1000

1000

  0
LINE
  5
6EA
330
620
100
AcDbEntity
  8
MOUNT_PLATE
  6
CONTINUOUS
100
AcDbLine
 10
-782.9156807617514
 20
1129.631385652563
 30
0.0
 11
-781.9156807617514
 21
1130.631385652563
 31
0.0
1001
ACAD
1010
0.0
1020
0.0
1030
0.0
1001
HATCHBACKGROUNDCOLOR
1071
-939524096
1000

1000

  0
LINE
  5
6EB
330
620
100
AcDbEntity
  8
MOUNT_PLATE
  6
CONTINUOUS
100
AcDbLine
 10
-782.7389040664549
 20
1129.631385652563
 30
0.0
 11
-781.7389040664549
 21
1130.631385652563
 31
0.0
1001
ACAD
1010
0.0
1020
0.0
1030
0.0
1001
HATCHBACKGROUNDCOLOR
1071
-939524096
1000

1000

  0
LINE
  5
6EC
330
620
100
AcDbEntity
  8
MOUNT_PLATE
  6
CONTINUOUS
100
AcDbLine
 10
-792.5621273711582
 20
1119.631385652563
 30
0.0
 11
-791.7621273711583
 21
1120.431385652563
 31
0.0
1001
ACAD
1010
0.0
1020
0.0
1030
0.0
1001
HATCHBACKGROUNDCOLOR
1071
-939524096
1000

1000

  0
LINE
  5
6ED
330
620
100
AcDbEntity
  8
MOUNT_PLATE
  6
CONTINUOUS
100
AcDbLine
 10
-792.3853506758616
 20
1119.631385652563
 30
0.0
 11
-791.5853506758616
 21
1120.431385652563
 31
0.0
1001
ACAD
1010
0.0
1020
0.0
1030
0.0
1001
HATCHBACKGROUNDCOLOR
1071
-939524096
1000

1000

  0
LINE
  5
6EE
330
620
100
AcDbEntity
  8
MOUNT_PLATE
  6
CONTINUOUS
100
AcDbLine
 10
-792.2085739805649
 20
1119.631385652563
 30
0.0
 11
-791.4085739805649
 21
1120.431385652563
 31
0.0
1001
ACAD
1010
0.0
1020
0.0
1030
0.0
1001
HATCHBACKGROUNDCOLOR
1071
-939524096
1000

1000

  0
LINE
  5
6EF
330
620
100
AcDbEntity
  8
MOUNT_PLATE
  6
CONTINUOUS
100
AcDbLine
 10
-792.0317972852683
 20
1119.631385652563
 30
0.0
 11
-791.2317972852684
 21
1120.431385652563
 31
0.0
1001
ACAD
1010
0.0
1020
0.0
1030
0.0
1001
HATCHBACKGROUNDCOLOR
1071
-939524096
1000

1000

  0
LINE
  5
6F0
330
620
100
AcDbEntity
  8
MOUNT_PLATE
  6
CONTINUOUS
100
AcDbLine
 10
-791.8550205899717
 20
1119.631385652563
 30
0.0
 11
-791.0550205899717
 21
1120.431385652563
 31
0.0
1001
ACAD
1010
0.0
1020
0.0
1030
0.0
1001
HATCHBACKGROUNDCOLOR
1071
-939524096
1000

1000

  0
LINE
  5
6F1
330
620
100
AcDbEntity
  8
MOUNT_PLATE
  6
CONTINUOUS
100
AcDbLine
 10
-791.678243894675
 20
1119.631385652563
 30
0.0
 11
-790.878243894675
 21
1120.431385652563
 31
0.0
1001
ACAD
1010
0.0
1020
0.0
1030
0.0
1001
HATCHBACKGROUNDCOLOR
1071
-939524096
1000

1000

  0
LINE
  5
6F2
330
620
100
AcDbEntity
  8
MOUNT_PLATE
  6
CONTINUOUS
100
AcDbLine
 10
-791.5014671993785
 20
1119.631385652563
 30
0.0
 11
-790.7014671993785
 21
1120.431385652563
 31
0.0
1001
ACAD
1010
0.0
1020
0.0
1030
0.0
1001
HATCHBACKGROUNDCOLOR
1071
-939524096
1000

1000

  0
LINE
  5
6F3
330
620
100
AcDbEntity
  8
MOUNT_PLATE
  6
CONTINUOUS
100
AcDbLine
 10
-791.3246905040818
 20
1119.631385652563
 30
0.0
 11
-790.5246905040818
 21
1120.431385652563
 31
0.0
1001
ACAD
1010
0.0
1020
0.0
1030
0.0
1001
HATCHBACKGROUNDCOLOR
1071
-939524096
1000

1000

  0
LINE
  5
6F4
330
620
100
AcDbEntity
  8
MOUNT_PLATE
  6
CONTINUOUS
100
AcDbLine
 10
-788.8621273711582
 20
1123.331385652563
 30
0.0
 11
-786.1995586985995
 21
1125.993954325122
 31
0.0
1001
ACAD
1010
0.0
1020
0.0
1030
0.0
1001
HATCHBACKGROUNDCOLOR
1071
-939524096
1000

1000

  0
LINE
  5
6F5
330
620
100
AcDbEntity
  8
MOUNT_PLATE
  6
CONTINUOUS
100
AcDbLine
 10
-788.6853506758615
 20
1123.331385652563
 30
0.0
 11
-786.1995586985995
 21
1125.817177629825
 31
0.0
1001
ACAD
1010
0.0
1020
0.0
1030
0.0
1001
HATCHBACKGROUNDCOLOR
1071
-939524096
1000

1000

  0
LINE
  5
6F6
330
620
100
AcDbEntity
  8
MOUNT_PLATE
  6
CONTINUOUS
100
AcDbLine
 10
-788.5085739805648
 20
1123.331385652563
 30
0.0
 11
-786.1995586985995
 21
1125.640400934529
 31
0.0
1001
ACAD
1010
0.0
1020
0.0
1030
0.0
1001
HATCHBACKGROUNDCOLOR
1071
-939524096
1000

1000

  0
LINE
  5
6F7
330
620
100
AcDbEntity
  8
MOUNT_PLATE
  6
CONTINUOUS
100
AcDbLine
 10
-788.3317972852683
 20
1123.331385652563
 30
0.0
 11
-786.1995586985995
 21
1125.463624239232
 31
0.0
1001
ACAD
1010
0.0
1020
0.0
1030
0.0
1001
HATCHBACKGROUNDCOLOR
1071
-939524096
1000

1000

  0
LINE
  5
6F8
330
620
100
AcDbEntity
  8
MOUNT_PLATE
  6
CONTINUOUS
100
AcDbLine
 10
-788.1550205899716
 20
1123.331385652563
 30
0.0
 11
-786.1995586985995
 21
1125.286847543935
 31
0.0
1001
ACAD
1010
0.0
1020
0.0
1030
0.0
1001
HATCHBACKGROUNDCOLOR
1071
-939524096
1000

1000

  0
LINE
  5
6F9
330
620
100
AcDbEntity
  8
MOUNT_PLATE
  6
CONTINUOUS
100
AcDbLine
 10
-787.978243894675
 20
1123.331385652563
 30
0.0
 11
-786.1995586985995
 21
1125.110070848639
 31
0.0
1001
ACAD
1010
0.0
1020
0.0
1030
0.0
1001
HATCHBACKGROUNDCOLOR
1071
-939524096
1000

1000

  0
LINE
  5
6FA
330
620
100
AcDbEntity
  8
MOUNT_PLATE
  6
CONTINUOUS
100
AcDbLine
 10
-787.8014671993784
 20
1123.331385652563
 30
0.0
 11
-786.1995586985995
 21
1124.933294153342
 31
0.0
1001
ACAD
1010
0.0
1020
0.0
1030
0.0
1001
HATCHBACKGROUNDCOLOR
1071
-939524096
1000

1000

  0
LINE
  5
6FB
330
620
100
AcDbEntity
  8
MOUNT_PLATE
  6
CONTINUOUS
100
AcDbLine
 10
-787.6246905040817
 20
1123.331385652563
 30
0.0
 11
-786.1995586985995
 21
1124.756517458045
 31
0.0
1001
ACAD
1010
0.0
1020
0.0
1030
0.0
1001
HATCHBACKGROUNDCOLOR
1071
-939524096
1000

1000

  0
LINE
  5
6FC
330
620
100
AcDbEntity
  8
MOUNT_PLATE
  6
CONTINUOUS
100
AcDbLine
 10
-782.5621273711582
 20
1129.631385652563
 30
0.0
 11
-781.5621273711582
 21
1130.631385652563
 31
0.0
1001
ACAD
1010
0.0
1020
0.0
1030
0.0
1001
HATCHBACKGROUNDCOLOR
1071
-939524096
1000

1000

  0
LINE
  5
6FD
330
620
100
AcDbEntity
  8
MOUNT_PLATE
  6
CONTINUOUS
100
AcDbLine
 10
-782.3853506758616
 20
1129.631385652563
 30
0.0
 11
-781.3853506758616
 21
1130.631385652563
 31
0.0
1001
ACAD
1010
0.0
1020
0.0
1030
0.0
1001
HATCHBACKGROUNDCOLOR
1071
-939524096
1000

1000

  0
LINE
  5
6FE
330
620
100
AcDbEntity
  8
MOUNT_PLATE
  6
CONTINUOUS
100
AcDbLine
 10
-782.2085739805649
 20
1129.631385652563
 30
0.0
 11
-781.2085739805649
 21
1130.631385652563
 31
0.0
1001
ACAD
1010
0.0
1020
0.0
1030
0.0
1001
HATCHBACKGROUNDCOLOR
1071
-939524096
1000

1000

  0
LINE
  5
6FF
330
620
100
AcDbEntity
  8
MOUNT_PLATE
  6
CONTINUOUS
100
AcDbLine
 10
-782.0317972852683
 20
1129.631385652563
 30
0.0
 11
-781.0317972852683
 21
1130.631385652563
 31
0.0
1001
ACAD
1010
0.0
1020
0.0
1030
0.0
1001
HATCHBACKGROUNDCOLOR
1071
-939524096
1000

1000

  0
LINE
  5
700
330
620
100
AcDbEntity
  8
MOUNT_PLATE
  6
CONTINUOUS
100
AcDbLine
 10
-781.8550205899717
 20
1129.631385652563
 30
0.0
 11
-780.8550205899717
 21
1130.631385652563
 31
0.0
1001
ACAD
1010
0.0
1020
0.0
1030
0.0
1001
HATCHBACKGROUNDCOLOR
1071
-939524096
1000

1000

  0
LINE
  5
701
330
620
100
AcDbEntity
  8
MOUNT_PLATE
  6
CONTINUOUS
100
AcDbLine
 10
-781.678243894675
 20
1129.631385652563
 30
0.0
 11
-780.678243894675
 21
1130.631385652563
 31
0.0
1001
ACAD
1010
0.0
1020
0.0
1030
0.0
1001
HATCHBACKGROUNDCOLOR
1071
-939524096
1000

1000

  0
LINE
  5
702
330
620
100
AcDbEntity
  8
MOUNT_PLATE
  6
CONTINUOUS
100
AcDbLine
 10
-781.5014671993785
 20
1129.631385652563
 30
0.0
 11
-780.5014671993785
 21
1130.631385652563
 31
0.0
1001
ACAD
1010
0.0
1020
0.0
1030
0.0
1001
HATCHBACKGROUNDCOLOR
1071
-939524096
1000

1000

  0
LINE
  5
703
330
620
100
AcDbEntity
  8
MOUNT_PLATE
  6
CONTINUOUS
100
AcDbLine
 10
-781.3246905040818
 20
1129.631385652563
 30
0.0
 11
-780.3246905040818
 21
1130.631385652563
 31
0.0
1001
ACAD
1010
0.0
1020
0.0
1030
0.0
1001
HATCHBACKGROUNDCOLOR
1071
-939524096
1000

1000

  0
LINE
  5
704
330
620
100
AcDbEntity
  8
MOUNT_PLATE
  6
CONTINUOUS
100
AcDbLine
 10
-791.1479138087851
 20
1119.631385652563
 30
0.0
 11
-790.3479138087852
 21
1120.431385652563
 31
0.0
1001
ACAD
1010
0.0
1020
0.0
1030
0.0
1001
HATCHBACKGROUNDCOLOR
1071
-939524096
1000

1000

  0
LINE
  5
705
330
620
100
AcDbEntity
  8
MOUNT_PLATE
  6
CONTINUOUS
100
AcDbLine
 10
-790.9711371134885
 20
1119.631385652563
 30
0.0
 11
-790.1711371134885
 21
1120.431385652563
 31
0.0
1001
ACAD
1010
0.0
1020
0.0
1030
0.0
1001
HATCHBACKGROUNDCOLOR
1071
-939524096
1000

1000

  0
LINE
  5
706
330
620
100
AcDbEntity
  8
MOUNT_PLATE
  6
CONTINUOUS
100
AcDbLine
 10
-790.7943604181919
 20
1119.631385652563
 30
0.0
 11
-789.994360418192
 21
1120.431385652563
 31
0.0
1001
ACAD
1010
0.0
1020
0.0
1030
0.0
1001
HATCHBACKGROUNDCOLOR
1071
-939524096
1000

1000

  0
LINE
  5
707
330
620
100
AcDbEntity
  8
MOUNT_PLATE
  6
CONTINUOUS
100
AcDbLine
 10
-790.6175837228952
 20
1119.631385652563
 30
0.0
 11
-789.8175837228953
 21
1120.431385652563
 31
0.0
1001
ACAD
1010
0.0
1020
0.0
1030
0.0
1001
HATCHBACKGROUNDCOLOR
1071
-939524096
1000

1000

  0
LINE
  5
708
330
620
100
AcDbEntity
  8
MOUNT_PLATE
  6
CONTINUOUS
100
AcDbLine
 10
-790.4408070275986
 20
1119.631385652563
 30
0.0
 11
-789.6408070275986
 21
1120.431385652563
 31
0.0
1001
ACAD
1010
0.0
1020
0.0
1030
0.0
1001
HATCHBACKGROUNDCOLOR
1071
-939524096
1000

1000

  0
LINE
  5
709
330
620
100
AcDbEntity
  8
MOUNT_PLATE
  6
CONTINUOUS
100
AcDbLine
 10
-790.2640303323019
 20
1119.631385652563
 30
0.0
 11
-789.464030332302
 21
1120.431385652563
 31
0.0
1001
ACAD
1010
0.0
1020
0.0
1030
0.0
1001
HATCHBACKGROUNDCOLOR
1071
-939524096
1000

1000

  0
LINE
  5
70A
330
620
100
AcDbEntity
  8
MOUNT_PLATE
  6
CONTINUOUS
100
AcDbLine
 10
-790.0872536370053
 20
1119.631385652563
 30
0.0
 11
-789.2872536370054
 21
1120.431385652563
 31
0.0
1001
ACAD
1010
0.0
1020
0.0
1030
0.0
1001
HATCHBACKGROUNDCOLOR
1071
-939524096
1000

1000

  0
LINE
  5
70B
330
620
100
AcDbEntity
  8
MOUNT_PLATE
  6
CONTINUOUS
100
AcDbLine
 10
-789.9104769417087
 20
1119.631385652563
 30
0.0
 11
-789.1104769417087
 21
1120.431385652563
 31
0.0
1001
ACAD
1010
0.0
1020
0.0
1030
0.0
1001
HATCHBACKGROUNDCOLOR
1071
-939524096
1000

1000

  0
LINE
  5
70C
330
620
100
AcDbEntity
  8
MOUNT_PLATE
  6
CONTINUOUS
100
AcDbLine
 10
-787.5995586985996
 20
1123.179740762749
 30
0.0
 11
-786.047913808785
 21
1124.731385652563
 31
0.0
1001
ACAD
1010
0.0
1020
0.0
1030
0.0
1001
HATCHBACKGROUNDCOLOR
1071
-939524096
1000

1000

  0
LINE
  5
70D
330
620
100
AcDbEntity
  8
MOUNT_PLATE
  6
CONTINUOUS
100
AcDbLine
 10
-787.5995586985996
 20
1123.002964067452
 30
0.0
 11
-785.8711371134883
 21
1124.731385652563
 31
0.0
1001
ACAD
1010
0.0
1020
0.0
1030
0.0
1001
HATCHBACKGROUNDCOLOR
1071
-939524096
1000

1000

  0
LINE
  5
70E
330
620
100
AcDbEntity
  8
MOUNT_PLATE
  6
CONTINUOUS
100
AcDbLine
 10
-787.5995586985996
 20
1122.826187372156
 30
0.0
 11
-785.6943604181918
 21
1124.731385652563
 31
0.0
1001
ACAD
1010
0.0
1020
0.0
1030
0.0
1001
HATCHBACKGROUNDCOLOR
1071
-939524096
1000

1000

  0
LINE
  5
70F
330
620
100
AcDbEntity
  8
MOUNT_PLATE
  6
CONTINUOUS
100
AcDbLine
 10
-787.5995586985996
 20
1122.649410676859
 30
0.0
 11
-785.5175837228951
 21
1124.731385652563
 31
0.0
1001
ACAD
1010
0.0
1020
0.0
1030
0.0
1001
HATCHBACKGROUNDCOLOR
1071
-939524096
1000

1000

  0
LINE
  5
710
330
620
100
AcDbEntity
  8
MOUNT_PLATE
  6
CONTINUOUS
100
AcDbLine
 10
-787.5995586985996
 20
1122.472633981562
 30
0.0
 11
-785.3408070275984
 21
1124.731385652563
 31
0.0
1001
ACAD
1010
0.0
1020
0.0
1030
0.0
1001
HATCHBACKGROUNDCOLOR
1071
-939524096
1000

1000

  0
LINE
  5
711
330
620
100
AcDbEntity
  8
MOUNT_PLATE
  6
CONTINUOUS
100
AcDbLine
 10
-787.5995586985996
 20
1122.295857286266
 30
0.0
 11
-785.1640303323018
 21
1124.731385652563
 31
0.0
1001
ACAD
1010
0.0
1020
0.0
1030
0.0
1001
HATCHBACKGROUNDCOLOR
1071
-939524096
1000

1000

  0
LINE
  5
712
330
620
100
AcDbEntity
  8
MOUNT_PLATE
  6
CONTINUOUS
100
AcDbLine
 10
-787.5995586985996
 20
1122.119080590969
 30
0.0
 11
-784.9872536370052
 21
1124.731385652563
 31
0.0
1001
ACAD
1010
0.0
1020
0.0
1030
0.0
1001
HATCHBACKGROUNDCOLOR
1071
-939524096
1000

1000

  0
LINE
  5
713
330
620
100
AcDbEntity
  8
MOUNT_PLATE
  6
CONTINUOUS
100
AcDbLine
 10
-787.5995586985996
 20
1121.942303895672
 30
0.0
 11
-784.8104769417085
 21
1124.731385652563
 31
0.0
1001
ACAD
1010
0.0
1020
0.0
1030
0.0
1001
HATCHBACKGROUNDCOLOR
1071
-939524096
1000

1000

  0
LINE
  5
714
330
620
100
AcDbEntity
  8
MOUNT_PLATE
  6
CONTINUOUS
100
AcDbLine
 10
-781.1479138087851
 20
1129.631385652563
 30
0.0
 11
-780.1479138087851
 21
1130.631385652563
 31
0.0
1001
ACAD
1010
0.0
1020
0.0
1030
0.0
1001
HATCHBACKGROUNDCOLOR
1071
-939524096
1000

1000

  0
LINE
  5
715
330
620
100
AcDbEntity
  8
MOUNT_PLATE
  6
CONTINUOUS
100
AcDbLine
 10
-780.9711371134885
 20
1129.631385652563
 30
0.0
 11
-779.9711371134885
 21
1130.631385652563
 31
0.0
1001
ACAD
1010
0.0
1020
0.0
1030
0.0
1001
HATCHBACKGROUNDCOLOR
1071
-939524096
1000

1000

  0
LINE
  5
716
330
620
100
AcDbEntity
  8
MOUNT_PLATE
  6
CONTINUOUS
100
AcDbLine
 10
-780.7943604181919
 20
1129.631385652563
 30
0.0
 11
-779.7943604181919
 21
1130.631385652563
 31
0.0
1001
ACAD
1010
0.0
1020
0.0
1030
0.0
1001
HATCHBACKGROUNDCOLOR
1071
-939524096
1000

1000

  0
LINE
  5
717
330
620
100
AcDbEntity
  8
MOUNT_PLATE
  6
CONTINUOUS
100
AcDbLine
 10
-780.6175837228952
 20
1129.631385652563
 30
0.0
 11
-779.6175837228952
 21
1130.631385652563
 31
0.0
1001
ACAD
1010
0.0
1020
0.0
1030
0.0
1001
HATCHBACKGROUNDCOLOR
1071
-939524096
1000

1000

  0
LINE
  5
718
330
620
100
AcDbEntity
  8
MOUNT_PLATE
  6
CONTINUOUS
100
AcDbLine
 10
-780.4408070275986
 20
1129.631385652563
 30
0.0
 11
-779.4408070275986
 21
1130.631385652563
 31
0.0
1001
ACAD
1010
0.0
1020
0.0
1030
0.0
1001
HATCHBACKGROUNDCOLOR
1071
-939524096
1000

1000

  0
LINE
  5
719
330
620
100
AcDbEntity
  8
MOUNT_PLATE
  6
CONTINUOUS
100
AcDbLine
 10
-780.2640303323019
 20
1129.631385652563
 30
0.0
 11
-779.2640303323019
 21
1130.631385652563
 31
0.0
1001
ACAD
1010
0.0
1020
0.0
1030
0.0
1001
HATCHBACKGROUNDCOLOR
1071
-939524096
1000

1000

  0
LINE
  5
71A
330
620
100
AcDbEntity
  8
MOUNT_PLATE
  6
CONTINUOUS
100
AcDbLine
 10
-780.0872536370053
 20
1129.631385652563
 30
0.0
 11
-779.0872536370053
 21
1130.631385652563
 31
0.0
1001
ACAD
1010
0.0
1020
0.0
1030
0.0
1001
HATCHBACKGROUNDCOLOR
1071
-939524096
1000

1000

  0
LINE
  5
71B
330
620
100
AcDbEntity
  8
MOUNT_PLATE
  6
CONTINUOUS
100
AcDbLine
 10
-779.9104769417087
 20
1129.631385652563
 30
0.0
 11
-778.9104769417087
 21
1130.631385652563
 31
0.0
1001
ACAD
1010
0.0
1020
0.0
1030
0.0
1001
HATCHBACKGROUNDCOLOR
1071
-939524096
1000

1000

  0
LINE
  5
71C
330
620
100
AcDbEntity
  8
MOUNT_PLATE
  6
CONTINUOUS
100
AcDbLine
 10
-789.733700246412
 20
1119.631385652563
 30
0.0
 11
-788.9337002464121
 21
1120.431385652563
 31
0.0
1001
ACAD
1010
0.0
1020
0.0
1030
0.0
1001
HATCHBACKGROUNDCOLOR
1071
-939524096
1000

1000

  0
LINE
  5
71D
330
620
100
AcDbEntity
  8
MOUNT_PLATE
  6
CONTINUOUS
100
AcDbLine
 10
-789.5569235511153
 20
1119.631385652563
 30
0.0
 11
-788.7569235511154
 21
1120.431385652563
 31
0.0
1001
ACAD
1010
0.0
1020
0.0
1030
0.0
1001
HATCHBACKGROUNDCOLOR
1071
-939524096
1000

1000

  0
LINE
  5
71E
330
620
100
AcDbEntity
  8
MOUNT_PLATE
  6
CONTINUOUS
100
AcDbLine
 10
-789.3801468558188
 20
1119.631385652563
 30
0.0
 11
-788.5801468558188
 21
1120.431385652563
 31
0.0
1001
ACAD
1010
0.0
1020
0.0
1030
0.0
1001
HATCHBACKGROUNDCOLOR
1071
-939524096
1000

1000

  0
LINE
  5
71F
330
620
100
AcDbEntity
  8
MOUNT_PLATE
  6
CONTINUOUS
100
AcDbLine
 10
-789.2033701605221
 20
1119.631385652563
 30
0.0
 11
-788.4033701605222
 21
1120.431385652563
 31
0.0
1001
ACAD
1010
0.0
1020
0.0
1030
0.0
1001
HATCHBACKGROUNDCOLOR
1071
-939524096
1000

1000

  0
LINE
  5
720
330
620
100
AcDbEntity
  8
MOUNT_PLATE
  6
CONTINUOUS
100
AcDbLine
 10
-787.5995586985996
 20
1121.765527200376
 30
0.0
 11
-786.1995586985995
 21
1123.165527200376
 31
0.0
1001
ACAD
1010
0.0
1020
0.0
1030
0.0
1001
HATCHBACKGROUNDCOLOR
1071
-939524096
1000

1000

  0
LINE
  5
721
330
620
100
AcDbEntity
  8
MOUNT_PLATE
  6
CONTINUOUS
100
AcDbLine
 10
-787.5995586985996
 20
1121.588750505079
 30
0.0
 11
-786.1995586985995
 21
1122.988750505079
 31
0.0
1001
ACAD
1010
0.0
1020
0.0
1030
0.0
1001
HATCHBACKGROUNDCOLOR
1071
-939524096
1000

1000

  0
LINE
  5
722
330
620
100
AcDbEntity
  8
MOUNT_PLATE
  6
CONTINUOUS
100
AcDbLine
 10
-787.5995586985996
 20
1121.411973809782
 30
0.0
 11
-786.1995586985995
 21
1122.811973809783
 31
0.0
1001
ACAD
1010
0.0
1020
0.0
1030
0.0
1001
HATCHBACKGROUNDCOLOR
1071
-939524096
1000

1000

  0
LINE
  5
723
330
620
100
AcDbEntity
  8
MOUNT_PLATE
  6
CONTINUOUS
100
AcDbLine
 10
-787.5995586985996
 20
1121.235197114486
 30
0.0
 11
-786.1995586985995
 21
1122.635197114486
 31
0.0
1001
ACAD
1010
0.0
1020
0.0
1030
0.0
1001
HATCHBACKGROUNDCOLOR
1071
-939524096
1000

1000

  0
LINE
  5
724
330
620
100
AcDbEntity
  8
MOUNT_PLATE
  6
CONTINUOUS
100
AcDbLine
 10
-786.033700246412
 20
1123.331385652563
 30
0.0
 11
-784.6337002464119
 21
1124.731385652563
 31
0.0
1001
ACAD
1010
0.0
1020
0.0
1030
0.0
1001
HATCHBACKGROUNDCOLOR
1071
-939524096
1000

1000

  0
LINE
  5
725
330
620
100
AcDbEntity
  8
MOUNT_PLATE
  6
CONTINUOUS
100
AcDbLine
 10
-785.8569235511153
 20
1123.331385652563
 30
0.0
 11
-784.4569235511152
 21
1124.731385652563
 31
0.0
1001
ACAD
1010
0.0
1020
0.0
1030
0.0
1001
HATCHBACKGROUNDCOLOR
1071
-939524096
1000

1000

  0
LINE
  5
726
330
620
100
AcDbEntity
  8
MOUNT_PLATE
  6
CONTINUOUS
100
AcDbLine
 10
-785.6801468558187
 20
1123.331385652563
 30
0.0
 11
-784.2801468558187
 21
1124.731385652563
 31
0.0
1001
ACAD
1010
0.0
1020
0.0
1030
0.0
1001
HATCHBACKGROUNDCOLOR
1071
-939524096
1000

1000

  0
LINE
  5
727
330
620
100
AcDbEntity
  8
MOUNT_PLATE
  6
CONTINUOUS
100
AcDbLine
 10
-785.5033701605221
 20
1123.331385652563
 30
0.0
 11
-784.103370160522
 21
1124.731385652563
 31
0.0
1001
ACAD
1010
0.0
1020
0.0
1030
0.0
1001
HATCHBACKGROUNDCOLOR
1071
-939524096
1000

1000

  0
LINE
  5
728
330
620
100
AcDbEntity
  8
MOUNT_PLATE
  6
CONTINUOUS
100
AcDbLine
 10
-779.733700246412
 20
1129.631385652563
 30
0.0
 11
-778.733700246412
 21
1130.631385652563
 31
0.0
1001
ACAD
1010
0.0
1020
0.0
1030
0.0
1001
HATCHBACKGROUNDCOLOR
1071
-939524096
1000

1000

  0
LINE
  5
729
330
620
100
AcDbEntity
  8
MOUNT_PLATE
  6
CONTINUOUS
100
AcDbLine
 10
-779.5569235511153
 20
1129.631385652563
 30
0.0
 11
-778.5569235511153
 21
1130.631385652563
 31
0.0
1001
ACAD
1010
0.0
1020
0.0
1030
0.0
1001
HATCHBACKGROUNDCOLOR
1071
-939524096
1000

1000

  0
LINE
  5
72A
330
620
100
AcDbEntity
  8
MOUNT_PLATE
  6
CONTINUOUS
100
AcDbLine
 10
-779.3801468558188
 20
1129.631385652563
 30
0.0
 11
-778.3801468558188
 21
1130.631385652563
 31
0.0
1001
ACAD
1010
0.0
1020
0.0
1030
0.0
1001
HATCHBACKGROUNDCOLOR
1071
-939524096
1000

1000

  0
LINE
  5
72B
330
620
100
AcDbEntity
  8
MOUNT_PLATE
  6
CONTINUOUS
100
AcDbLine
 10
-779.2033701605221
 20
1129.631385652563
 30
0.0
 11
-778.2033701605221
 21
1130.631385652563
 31
0.0
1001
ACAD
1010
0.0
1020
0.0
1030
0.0
1001
HATCHBACKGROUNDCOLOR
1071
-939524096
1000

1000

  0
LINE
  5
72C
330
620
100
AcDbEntity
  8
MOUNT_PLATE
  6
CONTINUOUS
100
AcDbLine
 10
-789.0265934652255
 20
1119.631385652563
 30
0.0
 11
-788.2265934652255
 21
1120.431385652563
 31
0.0
1001
ACAD
1010
0.0
1020
0.0
1030
0.0
1001
HATCHBACKGROUNDCOLOR
1071
-939524096
1000

1000

  0
LINE
  5
72D
330
620
100
AcDbEntity
  8
MOUNT_PLATE
  6
CONTINUOUS
100
AcDbLine
 10
-788.8498167699288
 20
1119.631385652563
 30
0.0
 11
-788.0498167699288
 21
1120.431385652563
 31
0.0
1001
ACAD
1010
0.0
1020
0.0
1030
0.0
1001
HATCHBACKGROUNDCOLOR
1071
-939524096
1000

1000

  0
LINE
  5
72E
330
620
100
AcDbEntity
  8
MOUNT_PLATE
  6
CONTINUOUS
100
AcDbLine
 10
-788.6730400746322
 20
1119.631385652563
 30
0.0
 11
-787.8730400746323
 21
1120.431385652563
 31
0.0
1001
ACAD
1010
0.0
1020
0.0
1030
0.0
1001
HATCHBACKGROUNDCOLOR
1071
-939524096
1000

1000

  0
LINE
  5
72F
330
620
100
AcDbEntity
  8
MOUNT_PLATE
  6
CONTINUOUS
100
AcDbLine
 10
-787.5995586985996
 20
1121.058420419189
 30
0.0
 11
-786.1995586985995
 21
1122.458420419189
 31
0.0
1001
ACAD
1010
0.0
1020
0.0
1030
0.0
1001
HATCHBACKGROUNDCOLOR
1071
-939524096
1000

1000

  0
LINE
  5
730
330
620
100
AcDbEntity
  8
MOUNT_PLATE
  6
CONTINUOUS
100
AcDbLine
 10
-787.5995586985996
 20
1120.881643723892
 30
0.0
 11
-786.1995586985995
 21
1122.281643723893
 31
0.0
1001
ACAD
1010
0.0
1020
0.0
1030
0.0
1001
HATCHBACKGROUNDCOLOR
1071
-939524096
1000

1000

  0
LINE
  5
731
330
620
100
AcDbEntity
  8
MOUNT_PLATE
  6
CONTINUOUS
100
AcDbLine
 10
-787.5995586985996
 20
1120.704867028596
 30
0.0
 11
-786.1995586985995
 21
1122.104867028596
 31
0.0
1001
ACAD
1010
0.0
1020
0.0
1030
0.0
1001
HATCHBACKGROUNDCOLOR
1071
-939524096
1000

1000

  0
LINE
  5
732
330
620
100
AcDbEntity
  8
MOUNT_PLATE
  6
CONTINUOUS
100
AcDbLine
 10
-785.3265934652254
 20
1123.331385652563
 30
0.0
 11
-783.9265934652253
 21
1124.731385652563
 31
0.0
1001
ACAD
1010
0.0
1020
0.0
1030
0.0
1001
HATCHBACKGROUNDCOLOR
1071
-939524096
1000

1000

  0
LINE
  5
733
330
620
100
AcDbEntity
  8
MOUNT_PLATE
  6
CONTINUOUS
100
AcDbLine
 10
-785.1498167699287
 20
1123.331385652563
 30
0.0
 11
-783.7498167699287
 21
1124.731385652563
 31
0.0
1001
ACAD
1010
0.0
1020
0.0
1030
0.0
1001
HATCHBACKGROUNDCOLOR
1071
-939524096
1000

1000

  0
LINE
  5
734
330
620
100
AcDbEntity
  8
MOUNT_PLATE
  6
CONTINUOUS
100
AcDbLine
 10
-784.9730400746322
 20
1123.331385652563
 30
0.0
 11
-783.5730400746321
 21
1124.731385652563
 31
0.0
1001
ACAD
1010
0.0
1020
0.0
1030
0.0
1001
HATCHBACKGROUNDCOLOR
1071
-939524096
1000

1000

  0
LINE
  5
735
330
620
100
AcDbEntity
  8
MOUNT_PLATE
  6
CONTINUOUS
100
AcDbLine
 10
-779.0995586985995
 20
1129.558420419189
 30
0.0
 11
-778.0265934652255
 21
1130.631385652563
 31
0.0
1001
ACAD
1010
0.0
1020
0.0
1030
0.0
1001
HATCHBACKGROUNDCOLOR
1071
-939524096
1000

1000

  0
LINE
  5
736
330
620
100
AcDbEntity
  8
MOUNT_PLATE
  6
CONTINUOUS
100
AcDbLine
 10
-779.0995586985995
 20
1129.381643723893
 30
0.0
 11
-777.8498167699288
 21
1130.631385652563
 31
0.0
1001
ACAD
1010
0.0
1020
0.0
1030
0.0
1001
HATCHBACKGROUNDCOLOR
1071
-939524096
1000

1000

  0
LINE
  5
737
330
620
100
AcDbEntity
  8
MOUNT_PLATE
  6
CONTINUOUS
100
AcDbLine
 10
-779.0995586985995
 20
1129.204867028596
 30
0.0
 11
-777.6730400746322
 21
1130.631385652563
 31
0.0
1001
ACAD
1010
0.0
1020
0.0
1030
0.0
1001
HATCHBACKGROUNDCOLOR
1071
-939524096
1000

1000

  0
LINE
  5
738
330
620
100
AcDbEntity
  8
MOUNT_PLATE
  6
CONTINUOUS
100
AcDbLine
 10
-788.4962633793356
 20
1119.631385652563
 30
0.0
 11
-787.6962633793356
 21
1120.431385652563
 31
0.0
1001
ACAD
1010
0.0
1020
0.0
1030
0.0
1001
HATCHBACKGROUNDCOLOR
1071
-939524096
1000

1000

  0
LINE
  5
739
330
620
100
AcDbEntity
  8
MOUNT_PLATE
  6
CONTINUOUS
100
AcDbLine
 10
-787.5995586985996
 20
1120.528090333299
 30
0.0
 11
-786.1995586985995
 21
1121.928090333299
 31
0.0
1001
ACAD
1010
0.0
1020
0.0
1030
0.0
1001
HATCHBACKGROUNDCOLOR
1071
-939524096
1000

1000

  0
LINE
  5
73A
330
620
100
AcDbEntity
  8
MOUNT_PLATE
  6
CONTINUOUS
100
AcDbLine
 10
-784.7962633793355
 20
1123.331385652563
 30
0.0
 11
-783.3962633793354
 21
1124.731385652563
 31
0.0
1001
ACAD
1010
0.0
1020
0.0
1030
0.0
1001
HATCHBACKGROUNDCOLOR
1071
-939524096
1000

1000

  0
LINE
  5
73B
330
620
100
AcDbEntity
  8
MOUNT_PLATE
  6
CONTINUOUS
100
AcDbLine
 10
-779.0995586985995
 20
1129.028090333299
 30
0.0
 11
-777.5995586985995
 21
1130.528090333299
 31
0.0
1001
ACAD
1010
0.0
1020
0.0
1030
0.0
1001
HATCHBACKGROUNDCOLOR
1071
-939524096
1000

1000

  0
LINE
  5
73C
330
620
100
AcDbEntity
  8
MOUNT_PLATE
  6
CONTINUOUS
100
AcDbLine
 10
-788.3194866840389
 20
1119.631385652563
 30
0.0
 11
-786.1995586985995
 21
1121.751313638003
 31
0.0
1001
ACAD
1010
0.0
1020
0.0
1030
0.0
1001
HATCHBACKGROUNDCOLOR
1071
-939524096
1000

1000

  0
LINE
  5
73D
330
620
100
AcDbEntity
  8
MOUNT_PLATE
  6
CONTINUOUS
100
AcDbLine
 10
-788.1427099887424
 20
1119.631385652563
 30
0.0
 11
-786.1995586985995
 21
1121.574536942706
 31
0.0
1001
ACAD
1010
0.0
1020
0.0
1030
0.0
1001
HATCHBACKGROUNDCOLOR
1071
-939524096
1000

1000

  0
LINE
  5
73E
330
620
100
AcDbEntity
  8
MOUNT_PLATE
  6
CONTINUOUS
100
AcDbLine
 10
-787.9659332934457
 20
1119.631385652563
 30
0.0
 11
-786.1995586985995
 21
1121.397760247409
 31
0.0
1001
ACAD
1010
0.0
1020
0.0
1030
0.0
1001
HATCHBACKGROUNDCOLOR
1071
-939524096
1000

1000

  0
LINE
  5
73F
330
620
100
AcDbEntity
  8
MOUNT_PLATE
  6
CONTINUOUS
100
AcDbLine
 10
-787.789156598149
 20
1119.631385652563
 30
0.0
 11
-786.1995586985995
 21
1121.220983552113
 31
0.0
1001
ACAD
1010
0.0
1020
0.0
1030
0.0
1001
HATCHBACKGROUNDCOLOR
1071
-939524096
1000

1000

  0
LINE
  5
740
330
620
100
AcDbEntity
  8
MOUNT_PLATE
  6
CONTINUOUS
100
AcDbLine
 10
-787.6123799028524
 20
1119.631385652563
 30
0.0
 11
-786.1995586985995
 21
1121.044206856816
 31
0.0
1001
ACAD
1010
0.0
1020
0.0
1030
0.0
1001
HATCHBACKGROUNDCOLOR
1071
-939524096
1000

1000

  0
LINE
  5
741
330
620
100
AcDbEntity
  8
MOUNT_PLATE
  6
CONTINUOUS
100
AcDbLine
 10
-787.4356032075558
 20
1119.631385652563
 30
0.0
 11
-786.1995586985995
 21
1120.867430161519
 31
0.0
1001
ACAD
1010
0.0
1020
0.0
1030
0.0
1001
HATCHBACKGROUNDCOLOR
1071
-939524096
1000

1000

  0
LINE
  5
742
330
620
100
AcDbEntity
  8
MOUNT_PLATE
  6
CONTINUOUS
100
AcDbLine
 10
-787.2588265122591
 20
1119.631385652563
 30
0.0
 11
-786.1995586985995
 21
1120.690653466223
 31
0.0
1001
ACAD
1010
0.0
1020
0.0
1030
0.0
1001
HATCHBACKGROUNDCOLOR
1071
-939524096
1000

1000

  0
LINE
  5
743
330
620
100
AcDbEntity
  8
MOUNT_PLATE
  6
CONTINUOUS
100
AcDbLine
 10
-787.0820498169625
 20
1119.631385652563
 30
0.0
 11
-786.1995586985995
 21
1120.513876770926
 31
0.0
1001
ACAD
1010
0.0
1020
0.0
1030
0.0
1001
HATCHBACKGROUNDCOLOR
1071
-939524096
1000

1000

  0
LINE
  5
744
330
620
100
AcDbEntity
  8
MOUNT_PLATE
  6
CONTINUOUS
100
AcDbLine
 10
-784.6194866840389
 20
1123.331385652563
 30
0.0
 11
-783.2194866840388
 21
1124.731385652563
 31
0.0
1001
ACAD
1010
0.0
1020
0.0
1030
0.0
1001
HATCHBACKGROUNDCOLOR
1071
-939524096
1000

1000

  0
LINE
  5
745
330
620
100
AcDbEntity
  8
MOUNT_PLATE
  6
CONTINUOUS
100
AcDbLine
 10
-784.4427099887423
 20
1123.331385652563
 30
0.0
 11
-783.0427099887422
 21
1124.731385652563
 31
0.0
1001
ACAD
1010
0.0
1020
0.0
1030
0.0
1001
HATCHBACKGROUNDCOLOR
1071
-939524096
1000

1000

  0
LINE
  5
746
330
620
100
AcDbEntity
  8
MOUNT_PLATE
  6
CONTINUOUS
100
AcDbLine
 10
-784.2659332934456
 20
1123.331385652563
 30
0.0
 11
-782.8659332934456
 21
1124.731385652563
 31
0.0
1001
ACAD
1010
0.0
1020
0.0
1030
0.0
1001
HATCHBACKGROUNDCOLOR
1071
-939524096
1000

1000

  0
LINE
  5
747
330
620
100
AcDbEntity
  8
MOUNT_PLATE
  6
CONTINUOUS
100
AcDbLine
 10
-784.089156598149
 20
1123.331385652563
 30
0.0
 11
-782.6891565981489
 21
1124.731385652563
 31
0.0
1001
ACAD
1010
0.0
1020
0.0
1030
0.0
1001
HATCHBACKGROUNDCOLOR
1071
-939524096
1000

1000

  0
LINE
  5
748
330
620
100
AcDbEntity
  8
MOUNT_PLATE
  6
CONTINUOUS
100
AcDbLine
 10
-783.9123799028523
 20
1123.331385652563
 30
0.0
 11
-782.5123799028522
 21
1124.731385652563
 31
0.0
1001
ACAD
1010
0.0
1020
0.0
1030
0.0
1001
HATCHBACKGROUNDCOLOR
1071
-939524096
1000

1000

  0
LINE
  5
749
330
620
100
AcDbEntity
  8
MOUNT_PLATE
  6
CONTINUOUS
100
AcDbLine
 10
-783.7356032075558
 20
1123.331385652563
 30
0.0
 11
-782.3356032075557
 21
1124.731385652563
 31
0.0
1001
ACAD
1010
0.0
1020
0.0
1030
0.0
1001
HATCHBACKGROUNDCOLOR
1071
-939524096
1000

1000

  0
LINE
  5
74A
330
620
100
AcDbEntity
  8
MOUNT_PLATE
  6
CONTINUOUS
100
AcDbLine
 10
-783.5588265122591
 20
1123.331385652563
 30
0.0
 11
-782.158826512259
 21
1124.731385652563
 31
0.0
1001
ACAD
1010
0.0
1020
0.0
1030
0.0
1001
HATCHBACKGROUNDCOLOR
1071
-939524096
1000

1000

  0
LINE
  5
74B
330
620
100
AcDbEntity
  8
MOUNT_PLATE
  6
CONTINUOUS
100
AcDbLine
 10
-783.3820498169624
 20
1123.331385652563
 30
0.0
 11
-781.9820498169623
 21
1124.731385652563
 31
0.0
1001
ACAD
1010
0.0
1020
0.0
1030
0.0
1001
HATCHBACKGROUNDCOLOR
1071
-939524096
1000

1000

  0
LINE
  5
74C
330
620
100
AcDbEntity
  8
MOUNT_PLATE
  6
CONTINUOUS
100
AcDbLine
 10
-779.0995586985995
 20
1128.851313638003
 30
0.0
 11
-777.5995586985995
 21
1130.351313638003
 31
0.0
1001
ACAD
1010
0.0
1020
0.0
1030
0.0
1001
HATCHBACKGROUNDCOLOR
1071
-939524096
1000

1000

  0
LINE
  5
74D
330
620
100
AcDbEntity
  8
MOUNT_PLATE
  6
CONTINUOUS
100
AcDbLine
 10
-779.0995586985995
 20
1128.674536942706
 30
0.0
 11
-777.5995586985995
 21
1130.174536942706
 31
0.0
1001
ACAD
1010
0.0
1020
0.0
1030
0.0
1001
HATCHBACKGROUNDCOLOR
1071
-939524096
1000

1000

  0
LINE
  5
74E
330
620
100
AcDbEntity
  8
MOUNT_PLATE
  6
CONTINUOUS
100
AcDbLine
 10
-779.0995586985995
 20
1128.497760247409
 30
0.0
 11
-777.5995586985995
 21
1129.997760247409
 31
0.0
1001
ACAD
1010
0.0
1020
0.0
1030
0.0
1001
HATCHBACKGROUNDCOLOR
1071
-939524096
1000

1000

  0
LINE
  5
74F
330
620
100
AcDbEntity
  8
MOUNT_PLATE
  6
CONTINUOUS
100
AcDbLine
 10
-779.0995586985995
 20
1128.320983552113
 30
0.0
 11
-777.5995586985995
 21
1129.820983552113
 31
0.0
1001
ACAD
1010
0.0
1020
0.0
1030
0.0
1001
HATCHBACKGROUNDCOLOR
1071
-939524096
1000

1000

  0
LINE
  5
750
330
620
100
AcDbEntity
  8
MOUNT_PLATE
  6
CONTINUOUS
100
AcDbLine
 10
-779.0995586985995
 20
1128.144206856816
 30
0.0
 11
-777.5995586985995
 21
1129.644206856816
 31
0.0
1001
ACAD
1010
0.0
1020
0.0
1030
0.0
1001
HATCHBACKGROUNDCOLOR
1071
-939524096
1000

1000

  0
LINE
  5
751
330
620
100
AcDbEntity
  8
MOUNT_PLATE
  6
CONTINUOUS
100
AcDbLine
 10
-779.0995586985995
 20
1127.96743016152
 30
0.0
 11
-777.5995586985995
 21
1129.46743016152
 31
0.0
1001
ACAD
1010
0.0
1020
0.0
1030
0.0
1001
HATCHBACKGROUNDCOLOR
1071
-939524096
1000

1000

  0
LINE
  5
752
330
620
100
AcDbEntity
  8
MOUNT_PLATE
  6
CONTINUOUS
100
AcDbLine
 10
-779.0995586985995
 20
1127.790653466223
 30
0.0
 11
-777.5995586985995
 21
1129.290653466223
 31
0.0
1001
ACAD
1010
0.0
1020
0.0
1030
0.0
1001
HATCHBACKGROUNDCOLOR
1071
-939524096
1000

1000

  0
LINE
  5
753
330
620
100
AcDbEntity
  8
MOUNT_PLATE
  6
CONTINUOUS
100
AcDbLine
 10
-779.0995586985995
 20
1127.613876770926
 30
0.0
 11
-777.5995586985995
 21
1129.113876770926
 31
0.0
1001
ACAD
1010
0.0
1020
0.0
1030
0.0
1001
HATCHBACKGROUNDCOLOR
1071
-939524096
1000

1000

  0
LINE
  5
754
330
620
100
AcDbEntity
  8
MOUNT_PLATE
  6
CONTINUOUS
100
AcDbLine
 10
-786.9052731216658
 20
1119.631385652563
 30
0.0
 11
-786.1052731216658
 21
1120.431385652563
 31
0.0
1001
ACAD
1010
0.0
1020
0.0
1030
0.0
1001
HATCHBACKGROUNDCOLOR
1071
-939524096
1000

1000

  0
LINE
  5
755
330
620
100
AcDbEntity
  8
MOUNT_PLATE
  6
CONTINUOUS
100
AcDbLine
 10
-786.7284964263692
 20
1119.631385652563
 30
0.0
 11
-785.9284964263693
 21
1120.431385652563
 31
0.0
1001
ACAD
1010
0.0
1020
0.0
1030
0.0
1001
HATCHBACKGROUNDCOLOR
1071
-939524096
1000

1000

  0
LINE
  5
756
330
620
100
AcDbEntity
  8
MOUNT_PLATE
  6
CONTINUOUS
100
AcDbLine
 10
-786.5517197310726
 20
1119.631385652563
 30
0.0
 11
-785.7517197310726
 21
1120.431385652563
 31
0.0
1001
ACAD
1010
0.0
1020
0.0
1030
0.0
1001
HATCHBACKGROUNDCOLOR
1071
-939524096
1000

1000

  0
LINE
  5
757
330
620
100
AcDbEntity
  8
MOUNT_PLATE
  6
CONTINUOUS
100
AcDbLine
 10
-786.3749430357759
 20
1119.631385652563
 30
0.0
 11
-785.574943035776
 21
1120.431385652563
 31
0.0
1001
ACAD
1010
0.0
1020
0.0
1030
0.0
1001
HATCHBACKGROUNDCOLOR
1071
-939524096
1000

1000

  0
LINE
  5
758
330
620
100
AcDbEntity
  8
MOUNT_PLATE
  6
CONTINUOUS
100
AcDbLine
 10
-786.1981663404792
 20
1119.631385652563
 30
0.0
 11
-785.3981663404793
 21
1120.431385652563
 31
0.0
1001
ACAD
1010
0.0
1020
0.0
1030
0.0
1001
HATCHBACKGROUNDCOLOR
1071
-939524096
1000

1000

  0
LINE
  5
759
330
620
100
AcDbEntity
  8
MOUNT_PLATE
  6
CONTINUOUS
100
AcDbLine
 10
-786.0213896451827
 20
1119.631385652563
 30
0.0
 11
-785.2213896451827
 21
1120.431385652563
 31
0.0
1001
ACAD
1010
0.0
1020
0.0
1030
0.0
1001
HATCHBACKGROUNDCOLOR
1071
-939524096
1000

1000

  0
LINE
  5
75A
330
620
100
AcDbEntity
  8
MOUNT_PLATE
  6
CONTINUOUS
100
AcDbLine
 10
-785.844612949886
 20
1119.631385652563
 30
0.0
 11
-785.0446129498861
 21
1120.431385652563
 31
0.0
1001
ACAD
1010
0.0
1020
0.0
1030
0.0
1001
HATCHBACKGROUNDCOLOR
1071
-939524096
1000

1000

  0
LINE
  5
75B
330
620
100
AcDbEntity
  8
MOUNT_PLATE
  6
CONTINUOUS
100
AcDbLine
 10
-785.6678362545894
 20
1119.631385652563
 30
0.0
 11
-784.8678362545894
 21
1120.431385652563
 31
0.0
1001
ACAD
1010
0.0
1020
0.0
1030
0.0
1001
HATCHBACKGROUNDCOLOR
1071
-939524096
1000

1000

  0
LINE
  5
75C
330
620
100
AcDbEntity
  8
MOUNT_PLATE
  6
CONTINUOUS
100
AcDbLine
 10
-785.4910595592927
 20
1119.631385652563
 30
0.0
 11
-784.6910595592927
 21
1120.431385652563
 31
0.0
1001
ACAD
1010
0.0
1020
0.0
1030
0.0
1001
HATCHBACKGROUNDCOLOR
1071
-939524096
1000

1000

  0
LINE
  5
75D
330
620
100
AcDbEntity
  8
MOUNT_PLATE
  6
CONTINUOUS
100
AcDbLine
 10
-785.3142828639961
 20
1119.631385652563
 30
0.0
 11
-784.5142828639962
 21
1120.431385652563
 31
0.0
1001
ACAD
1010
0.0
1020
0.0
1030
0.0
1001
HATCHBACKGROUNDCOLOR
1071
-939524096
1000

1000

  0
LINE
  5
75E
330
620
100
AcDbEntity
  8
MOUNT_PLATE
  6
CONTINUOUS
100
AcDbLine
 10
-785.1375061686995
 20
1119.631385652563
 30
0.0
 11
-784.3375061686995
 21
1120.431385652563
 31
0.0
1001
ACAD
1010
0.0
1020
0.0
1030
0.0
1001
HATCHBACKGROUNDCOLOR
1071
-939524096
1000

1000

  0
LINE
  5
75F
330
620
100
AcDbEntity
  8
MOUNT_PLATE
  6
CONTINUOUS
100
AcDbLine
 10
-784.9607294734028
 20
1119.631385652563
 30
0.0
 11
-784.1607294734029
 21
1120.431385652563
 31
0.0
1001
ACAD
1010
0.0
1020
0.0
1030
0.0
1001
HATCHBACKGROUNDCOLOR
1071
-939524096
1000

1000

  0
LINE
  5
760
330
620
100
AcDbEntity
  8
MOUNT_PLATE
  6
CONTINUOUS
100
AcDbLine
 10
-784.7839527781063
 20
1119.631385652563
 30
0.0
 11
-783.9839527781063
 21
1120.431385652563
 31
0.0
1001
ACAD
1010
0.0
1020
0.0
1030
0.0
1001
HATCHBACKGROUNDCOLOR
1071
-939524096
1000

1000

  0
LINE
  5
761
330
620
100
AcDbEntity
  8
MOUNT_PLATE
  6
CONTINUOUS
100
AcDbLine
 10
-784.6071760828096
 20
1119.631385652563
 30
0.0
 11
-783.8071760828096
 21
1120.431385652563
 31
0.0
1001
ACAD
1010
0.0
1020
0.0
1030
0.0
1001
HATCHBACKGROUNDCOLOR
1071
-939524096
1000

1000

  0
LINE
  5
762
330
620
100
AcDbEntity
  8
MOUNT_PLATE
  6
CONTINUOUS
100
AcDbLine
 10
-784.4303993875129
 20
1119.631385652563
 30
0.0
 11
-783.630399387513
 21
1120.431385652563
 31
0.0
1001
ACAD
1010
0.0
1020
0.0
1030
0.0
1001
HATCHBACKGROUNDCOLOR
1071
-939524096
1000

1000

  0
LINE
  5
763
330
620
100
AcDbEntity
  8
MOUNT_PLATE
  6
CONTINUOUS
100
AcDbLine
 10
-784.2536226922163
 20
1119.631385652563
 30
0.0
 11
-783.4536226922163
 21
1120.431385652563
 31
0.0
1001
ACAD
1010
0.0
1020
0.0
1030
0.0
1001
HATCHBACKGROUNDCOLOR
1071
-939524096
1000

1000

  0
LINE
  5
764
330
620
100
AcDbEntity
  8
MOUNT_PLATE
  6
CONTINUOUS
100
AcDbLine
 10
-783.2052731216658
 20
1123.331385652563
 30
0.0
 11
-781.8052731216657
 21
1124.731385652563
 31
0.0
1001
ACAD
1010
0.0
1020
0.0
1030
0.0
1001
HATCHBACKGROUNDCOLOR
1071
-939524096
1000

1000

  0
LINE
  5
765
330
620
100
AcDbEntity
  8
MOUNT_PLATE
  6
CONTINUOUS
100
AcDbLine
 10
-783.0284964263692
 20
1123.331385652563
 30
0.0
 11
-781.6284964263691
 21
1124.731385652563
 31
0.0
1001
ACAD
1010
0.0
1020
0.0
1030
0.0
1001
HATCHBACKGROUNDCOLOR
1071
-939524096
1000

1000

  0
LINE
  5
766
330
620
100
AcDbEntity
  8
MOUNT_PLATE
  6
CONTINUOUS
100
AcDbLine
 10
-782.8517197310725
 20
1123.331385652563
 30
0.0
 11
-781.4517197310724
 21
1124.731385652563
 31
0.0
1001
ACAD
1010
0.0
1020
0.0
1030
0.0
1001
HATCHBACKGROUNDCOLOR
1071
-939524096
1000

1000

  0
LINE
  5
767
330
620
100
AcDbEntity
  8
MOUNT_PLATE
  6
CONTINUOUS
100
AcDbLine
 10
-782.6749430357759
 20
1123.331385652563
 30
0.0
 11
-781.2749430357758
 21
1124.731385652563
 31
0.0
1001
ACAD
1010
0.0
1020
0.0
1030
0.0
1001
HATCHBACKGROUNDCOLOR
1071
-939524096
1000

1000

  0
LINE
  5
768
330
620
100
AcDbEntity
  8
MOUNT_PLATE
  6
CONTINUOUS
100
AcDbLine
 10
-782.4981663404792
 20
1123.331385652563
 30
0.0
 11
-781.0981663404791
 21
1124.731385652563
 31
0.0
1001
ACAD
1010
0.0
1020
0.0
1030
0.0
1001
HATCHBACKGROUNDCOLOR
1071
-939524096
1000

1000

  0
LINE
  5
769
330
620
100
AcDbEntity
  8
MOUNT_PLATE
  6
CONTINUOUS
100
AcDbLine
 10
-782.3213896451826
 20
1123.331385652563
 30
0.0
 11
-780.9213896451826
 21
1124.731385652563
 31
0.0
1001
ACAD
1010
0.0
1020
0.0
1030
0.0
1001
HATCHBACKGROUNDCOLOR
1071
-939524096
1000

1000

  0
LINE
  5
76A
330
620
100
AcDbEntity
  8
MOUNT_PLATE
  6
CONTINUOUS
100
AcDbLine
 10
-782.144612949886
 20
1123.331385652563
 30
0.0
 11
-780.7446129498859
 21
1124.731385652563
 31
0.0
1001
ACAD
1010
0.0
1020
0.0
1030
0.0
1001
HATCHBACKGROUNDCOLOR
1071
-939524096
1000

1000

  0
LINE
  5
76B
330
620
100
AcDbEntity
  8
MOUNT_PLATE
  6
CONTINUOUS
100
AcDbLine
 10
-781.9678362545893
 20
1123.331385652563
 30
0.0
 11
-780.5678362545892
 21
1124.731385652563
 31
0.0
1001
ACAD
1010
0.0
1020
0.0
1030
0.0
1001
HATCHBACKGROUNDCOLOR
1071
-939524096
1000

1000

  0
LINE
  5
76C
330
620
100
AcDbEntity
  8
MOUNT_PLATE
  6
CONTINUOUS
100
AcDbLine
 10
-781.7910595592926
 20
1123.331385652563
 30
0.0
 11
-780.3910595592926
 21
1124.731385652563
 31
0.0
1001
ACAD
1010
0.0
1020
0.0
1030
0.0
1001
HATCHBACKGROUNDCOLOR
1071
-939524096
1000

1000

  0
LINE
  5
76D
330
620
100
AcDbEntity
  8
MOUNT_PLATE
  6
CONTINUOUS
100
AcDbLine
 10
-781.6142828639961
 20
1123.331385652563
 30
0.0
 11
-780.214282863996
 21
1124.731385652563
 31
0.0
1001
ACAD
1010
0.0
1020
0.0
1030
0.0
1001
HATCHBACKGROUNDCOLOR
1071
-939524096
1000

1000

  0
LINE
  5
76E
330
620
100
AcDbEntity
  8
MOUNT_PLATE
  6
CONTINUOUS
100
AcDbLine
 10
-781.4375061686994
 20
1123.331385652563
 30
0.0
 11
-780.0375061686993
 21
1124.731385652563
 31
0.0
1001
ACAD
1010
0.0
1020
0.0
1030
0.0
1001
HATCHBACKGROUNDCOLOR
1071
-939524096
1000

1000

  0
LINE
  5
76F
330
620
100
AcDbEntity
  8
MOUNT_PLATE
  6
CONTINUOUS
100
AcDbLine
 10
-781.2607294734028
 20
1123.331385652563
 30
0.0
 11
-779.8607294734027
 21
1124.731385652563
 31
0.0
1001
ACAD
1010
0.0
1020
0.0
1030
0.0
1001
HATCHBACKGROUNDCOLOR
1071
-939524096
1000

1000

  0
LINE
  5
770
330
620
100
AcDbEntity
  8
MOUNT_PLATE
  6
CONTINUOUS
100
AcDbLine
 10
-781.0839527781061
 20
1123.331385652563
 30
0.0
 11
-779.683952778106
 21
1124.731385652563
 31
0.0
1001
ACAD
1010
0.0
1020
0.0
1030
0.0
1001
HATCHBACKGROUNDCOLOR
1071
-939524096
1000

1000

  0
LINE
  5
771
330
620
100
AcDbEntity
  8
MOUNT_PLATE
  6
CONTINUOUS
100
AcDbLine
 10
-780.9071760828095
 20
1123.331385652563
 30
0.0
 11
-779.5071760828095
 21
1124.731385652563
 31
0.0
1001
ACAD
1010
0.0
1020
0.0
1030
0.0
1001
HATCHBACKGROUNDCOLOR
1071
-939524096
1000

1000

  0
LINE
  5
772
330
620
100
AcDbEntity
  8
MOUNT_PLATE
  6
CONTINUOUS
100
AcDbLine
 10
-780.7303993875129
 20
1123.331385652563
 30
0.0
 11
-779.3303993875128
 21
1124.731385652563
 31
0.0
1001
ACAD
1010
0.0
1020
0.0
1030
0.0
1001
HATCHBACKGROUNDCOLOR
1071
-939524096
1000

1000

  0
LINE
  5
773
330
620
100
AcDbEntity
  8
MOUNT_PLATE
  6
CONTINUOUS
100
AcDbLine
 10
-780.5536226922162
 20
1123.331385652563
 30
0.0
 11
-779.1536226922161
 21
1124.731385652563
 31
0.0
1001
ACAD
1010
0.0
1020
0.0
1030
0.0
1001
HATCHBACKGROUNDCOLOR
1071
-939524096
1000

1000

  0
LINE
  5
774
330
620
100
AcDbEntity
  8
MOUNT_PLATE
  6
CONTINUOUS
100
AcDbLine
 10
-779.0995586985995
 20
1127.43710007563
 30
0.0
 11
-777.5995586985995
 21
1128.93710007563
 31
0.0
1001
ACAD
1010
0.0
1020
0.0
1030
0.0
1001
HATCHBACKGROUNDCOLOR
1071
-939524096
1000

1000

  0
LINE
  5
775
330
620
100
AcDbEntity
  8
MOUNT_PLATE
  6
CONTINUOUS
100
AcDbLine
 10
-779.0995586985995
 20
1127.260323380333
 30
0.0
 11
-777.5995586985995
 21
1128.760323380333
 31
0.0
1001
ACAD
1010
0.0
1020
0.0
1030
0.0
1001
HATCHBACKGROUNDCOLOR
1071
-939524096
1000

1000

  0
LINE
  5
776
330
620
100
AcDbEntity
  8
MOUNT_PLATE
  6
CONTINUOUS
100
AcDbLine
 10
-779.0995586985995
 20
1127.083546685036
 30
0.0
 11
-777.5995586985995
 21
1128.583546685036
 31
0.0
1001
ACAD
1010
0.0
1020
0.0
1030
0.0
1001
HATCHBACKGROUNDCOLOR
1071
-939524096
1000

1000

  0
LINE
  5
777
330
620
100
AcDbEntity
  8
MOUNT_PLATE
  6
CONTINUOUS
100
AcDbLine
 10
-779.0995586985995
 20
1126.90676998974
 30
0.0
 11
-777.5995586985995
 21
1128.40676998974
 31
0.0
1001
ACAD
1010
0.0
1020
0.0
1030
0.0
1001
HATCHBACKGROUNDCOLOR
1071
-939524096
1000

1000

  0
LINE
  5
778
330
620
100
AcDbEntity
  8
MOUNT_PLATE
  6
CONTINUOUS
100
AcDbLine
 10
-779.0995586985995
 20
1126.729993294443
 30
0.0
 11
-777.5995586985995
 21
1128.229993294443
 31
0.0
1001
ACAD
1010
0.0
1020
0.0
1030
0.0
1001
HATCHBACKGROUNDCOLOR
1071
-939524096
1000

1000

  0
LINE
  5
779
330
620
100
AcDbEntity
  8
MOUNT_PLATE
  6
CONTINUOUS
100
AcDbLine
 10
-779.0995586985995
 20
1126.553216599146
 30
0.0
 11
-777.5995586985995
 21
1128.053216599146
 31
0.0
1001
ACAD
1010
0.0
1020
0.0
1030
0.0
1001
HATCHBACKGROUNDCOLOR
1071
-939524096
1000

1000

  0
LINE
  5
77A
330
620
100
AcDbEntity
  8
MOUNT_PLATE
  6
CONTINUOUS
100
AcDbLine
 10
-779.0995586985995
 20
1126.37643990385
 30
0.0
 11
-777.5995586985995
 21
1127.87643990385
 31
0.0
1001
ACAD
1010
0.0
1020
0.0
1030
0.0
1001
HATCHBACKGROUNDCOLOR
1071
-939524096
1000

1000

  0
LINE
  5
77B
330
620
100
AcDbEntity
  8
MOUNT_PLATE
  6
CONTINUOUS
100
AcDbLine
 10
-779.0995586985995
 20
1126.199663208553
 30
0.0
 11
-777.5995586985995
 21
1127.699663208553
 31
0.0
1001
ACAD
1010
0.0
1020
0.0
1030
0.0
1001
HATCHBACKGROUNDCOLOR
1071
-939524096
1000

1000

  0
LINE
  5
77C
330
620
100
AcDbEntity
  8
MOUNT_PLATE
  6
CONTINUOUS
100
AcDbLine
 10
-779.0995586985995
 20
1126.022886513256
 30
0.0
 11
-777.5995586985995
 21
1127.522886513256
 31
0.0
1001
ACAD
1010
0.0
1020
0.0
1030
0.0
1001
HATCHBACKGROUNDCOLOR
1071
-939524096
1000

1000

  0
LINE
  5
77D
330
620
100
AcDbEntity
  8
MOUNT_PLATE
  6
CONTINUOUS
100
AcDbLine
 10
-779.0995586985995
 20
1125.84610981796
 30
0.0
 11
-777.5995586985995
 21
1127.34610981796
 31
0.0
1001
ACAD
1010
0.0
1020
0.0
1030
0.0
1001
HATCHBACKGROUNDCOLOR
1071
-939524096
1000

1000

  0
LINE
  5
77E
330
620
100
AcDbEntity
  8
MOUNT_PLATE
  6
CONTINUOUS
100
AcDbLine
 10
-779.0995586985995
 20
1125.669333122663
 30
0.0
 11
-777.5995586985995
 21
1127.169333122663
 31
0.0
1001
ACAD
1010
0.0
1020
0.0
1030
0.0
1001
HATCHBACKGROUNDCOLOR
1071
-939524096
1000

1000

  0
LINE
  5
77F
330
620
100
AcDbEntity
  8
MOUNT_PLATE
  6
CONTINUOUS
100
AcDbLine
 10
-779.0995586985995
 20
1125.492556427367
 30
0.0
 11
-777.5995586985995
 21
1126.992556427367
 31
0.0
1001
ACAD
1010
0.0
1020
0.0
1030
0.0
1001
HATCHBACKGROUNDCOLOR
1071
-939524096
1000

1000

  0
LINE
  5
780
330
620
100
AcDbEntity
  8
MOUNT_PLATE
  6
CONTINUOUS
100
AcDbLine
 10
-779.0995586985995
 20
1125.31577973207
 30
0.0
 11
-777.5995586985995
 21
1126.81577973207
 31
0.0
1001
ACAD
1010
0.0
1020
0.0
1030
0.0
1001
HATCHBACKGROUNDCOLOR
1071
-939524096
1000

1000

  0
LINE
  5
781
330
620
100
AcDbEntity
  8
MOUNT_PLATE
  6
CONTINUOUS
100
AcDbLine
 10
-779.0995586985995
 20
1125.139003036773
 30
0.0
 11
-777.5995586985995
 21
1126.639003036773
 31
0.0
1001
ACAD
1010
0.0
1020
0.0
1030
0.0
1001
HATCHBACKGROUNDCOLOR
1071
-939524096
1000

1000

  0
LINE
  5
782
330
620
100
AcDbEntity
  8
MOUNT_PLATE
  6
CONTINUOUS
100
AcDbLine
 10
-779.0995586985995
 20
1124.962226341477
 30
0.0
 11
-777.5995586985995
 21
1126.462226341477
 31
0.0
1001
ACAD
1010
0.0
1020
0.0
1030
0.0
1001
HATCHBACKGROUNDCOLOR
1071
-939524096
1000

1000

  0
LINE
  5
783
330
620
100
AcDbEntity
  8
MOUNT_PLATE
  6
CONTINUOUS
100
AcDbLine
 10
-779.0995586985995
 20
1124.78544964618
 30
0.0
 11
-777.5995586985995
 21
1126.28544964618
 31
0.0
1001
ACAD
1010
0.0
1020
0.0
1030
0.0
1001
HATCHBACKGROUNDCOLOR
1071
-939524096
1000

1000

  0
LINE
  5
784
330
620
100
AcDbEntity
  8
MOUNT_PLATE
  6
CONTINUOUS
100
AcDbLine
 10
-784.0768459969197
 20
1119.631385652563
 30
0.0
 11
-783.2768459969197
 21
1120.431385652563
 31
0.0
1001
ACAD
1010
0.0
1020
0.0
1030
0.0
1001
HATCHBACKGROUNDCOLOR
1071
-939524096
1000

1000

  0
LINE
  5
785
330
620
100
AcDbEntity
  8
MOUNT_PLATE
  6
CONTINUOUS
100
AcDbLine
 10
-783.900069301623
 20
1119.631385652563
 30
0.0
 11
-783.1000693016231
 21
1120.431385652563
 31
0.0
1001
ACAD
1010
0.0
1020
0.0
1030
0.0
1001
HATCHBACKGROUNDCOLOR
1071
-939524096
1000

1000

  0
LINE
  5
786
330
620
100
AcDbEntity
  8
MOUNT_PLATE
  6
CONTINUOUS
100
AcDbLine
 10
-783.7232926063264
 20
1119.631385652563
 30
0.0
 11
-782.9232926063264
 21
1120.431385652563
 31
0.0
1001
ACAD
1010
0.0
1020
0.0
1030
0.0
1001
HATCHBACKGROUNDCOLOR
1071
-939524096
1000

1000

  0
LINE
  5
787
330
620
100
AcDbEntity
  8
MOUNT_PLATE
  6
CONTINUOUS
100
AcDbLine
 10
-783.5465159110297
 20
1119.631385652563
 30
0.0
 11
-782.7465159110297
 21
1120.431385652563
 31
0.0
1001
ACAD
1010
0.0
1020
0.0
1030
0.0
1001
HATCHBACKGROUNDCOLOR
1071
-939524096
1000

1000

  0
LINE
  5
788
330
620
100
AcDbEntity
  8
MOUNT_PLATE
  6
CONTINUOUS
100
AcDbLine
 10
-783.3697392157331
 20
1119.631385652563
 30
0.0
 11
-782.5697392157332
 21
1120.431385652563
 31
0.0
1001
ACAD
1010
0.0
1020
0.0
1030
0.0
1001
HATCHBACKGROUNDCOLOR
1071
-939524096
1000

1000

  0
LINE
  5
789
330
620
100
AcDbEntity
  8
MOUNT_PLATE
  6
CONTINUOUS
100
AcDbLine
 10
-783.1929625204365
 20
1119.631385652563
 30
0.0
 11
-782.3929625204365
 21
1120.431385652563
 31
0.0
1001
ACAD
1010
0.0
1020
0.0
1030
0.0
1001
HATCHBACKGROUNDCOLOR
1071
-939524096
1000

1000

  0
LINE
  5
78A
330
620
100
AcDbEntity
  8
MOUNT_PLATE
  6
CONTINUOUS
100
AcDbLine
 10
-783.0161858251398
 20
1119.631385652563
 30
0.0
 11
-782.2161858251399
 21
1120.431385652563
 31
0.0
1001
ACAD
1010
0.0
1020
0.0
1030
0.0
1001
HATCHBACKGROUNDCOLOR
1071
-939524096
1000

1000

  0
LINE
  5
78B
330
620
100
AcDbEntity
  8
MOUNT_PLATE
  6
CONTINUOUS
100
AcDbLine
 10
-782.8394091298431
 20
1119.631385652563
 30
0.0
 11
-782.0394091298432
 21
1120.431385652563
 31
0.0
1001
ACAD
1010
0.0
1020
0.0
1030
0.0
1001
HATCHBACKGROUNDCOLOR
1071
-939524096
1000

1000

  0
LINE
  5
78C
330
620
100
AcDbEntity
  8
MOUNT_PLATE
  6
CONTINUOUS
100
AcDbLine
 10
-780.3768459969197
 20
1123.331385652563
 30
0.0
 11
-777.5995586985995
 21
1126.108672950883
 31
0.0
1001
ACAD
1010
0.0
1020
0.0
1030
0.0
1001
HATCHBACKGROUNDCOLOR
1071
-939524096
1000

1000

  0
LINE
  5
78D
330
620
100
AcDbEntity
  8
MOUNT_PLATE
  6
CONTINUOUS
100
AcDbLine
 10
-780.200069301623
 20
1123.331385652563
 30
0.0
 11
-777.5995586985995
 21
1125.931896255587
 31
0.0
1001
ACAD
1010
0.0
1020
0.0
1030
0.0
1001
HATCHBACKGROUNDCOLOR
1071
-939524096
1000

1000

  0
LINE
  5
78E
330
620
100
AcDbEntity
  8
MOUNT_PLATE
  6
CONTINUOUS
100
AcDbLine
 10
-780.0232926063263
 20
1123.331385652563
 30
0.0
 11
-777.5995586985995
 21
1125.75511956029
 31
0.0
1001
ACAD
1010
0.0
1020
0.0
1030
0.0
1001
HATCHBACKGROUNDCOLOR
1071
-939524096
1000

1000

  0
LINE
  5
78F
330
620
100
AcDbEntity
  8
MOUNT_PLATE
  6
CONTINUOUS
100
AcDbLine
 10
-779.8465159110297
 20
1123.331385652563
 30
0.0
 11
-777.5995586985995
 21
1125.578342864994
 31
0.0
1001
ACAD
1010
0.0
1020
0.0
1030
0.0
1001
HATCHBACKGROUNDCOLOR
1071
-939524096
1000

1000

  0
LINE
  5
790
330
620
100
AcDbEntity
  8
MOUNT_PLATE
  6
CONTINUOUS
100
AcDbLine
 10
-779.6697392157331
 20
1123.331385652563
 30
0.0
 11
-777.5995586985995
 21
1125.401566169697
 31
0.0
1001
ACAD
1010
0.0
1020
0.0
1030
0.0
1001
HATCHBACKGROUNDCOLOR
1071
-939524096
1000

1000

  0
LINE
  5
791
330
620
100
AcDbEntity
  8
MOUNT_PLATE
  6
CONTINUOUS
100
AcDbLine
 10
-779.4929625204364
 20
1123.331385652563
 30
0.0
 11
-777.5995586985995
 21
1125.2247894744
 31
0.0
1001
ACAD
1010
0.0
1020
0.0
1030
0.0
1001
HATCHBACKGROUNDCOLOR
1071
-939524096
1000

1000

  0
LINE
  5
792
330
620
100
AcDbEntity
  8
MOUNT_PLATE
  6
CONTINUOUS
100
AcDbLine
 10
-779.3161858251398
 20
1123.331385652563
 30
0.0
 11
-777.5995586985995
 21
1125.048012779104
 31
0.0
1001
ACAD
1010
0.0
1020
0.0
1030
0.0
1001
HATCHBACKGROUNDCOLOR
1071
-939524096
1000

1000

  0
LINE
  5
793
330
620
100
AcDbEntity
  8
MOUNT_PLATE
  6
CONTINUOUS
100
AcDbLine
 10
-779.1394091298431
 20
1123.331385652563
 30
0.0
 11
-777.5995586985995
 21
1124.871236083807
 31
0.0
1001
ACAD
1010
0.0
1020
0.0
1030
0.0
1001
HATCHBACKGROUNDCOLOR
1071
-939524096
1000

1000

  0
LINE
  5
794
330
620
100
AcDbEntity
  8
MOUNT_PLATE
  6
CONTINUOUS
100
AcDbLine
 10
-782.6626324345466
 20
1119.631385652563
 30
0.0
 11
-781.8626324345466
 21
1120.431385652563
 31
0.0
1001
ACAD
1010
0.0
1020
0.0
1030
0.0
1001
HATCHBACKGROUNDCOLOR
1071
-939524096
1000

1000

  0
LINE
  5
795
330
620
100
AcDbEntity
  8
MOUNT_PLATE
  6
CONTINUOUS
100
AcDbLine
 10
-782.4858557392499
 20
1119.631385652563
 30
0.0
 11
-781.68585573925
 21
1120.431385652563
 31
0.0
1001
ACAD
1010
0.0
1020
0.0
1030
0.0
1001
HATCHBACKGROUNDCOLOR
1071
-939524096
1000

1000

  0
LINE
  5
796
330
620
100
AcDbEntity
  8
MOUNT_PLATE
  6
CONTINUOUS
100
AcDbLine
 10
-782.3090790439533
 20
1119.631385652563
 30
0.0
 11
-781.5090790439533
 21
1120.431385652563
 31
0.0
1001
ACAD
1010
0.0
1020
0.0
1030
0.0
1001
HATCHBACKGROUNDCOLOR
1071
-939524096
1000

1000

  0
LINE
  5
797
330
620
100
AcDbEntity
  8
MOUNT_PLATE
  6
CONTINUOUS
100
AcDbLine
 10
-782.1323023486566
 20
1119.631385652563
 30
0.0
 11
-781.3323023486566
 21
1120.431385652563
 31
0.0
1001
ACAD
1010
0.0
1020
0.0
1030
0.0
1001
HATCHBACKGROUNDCOLOR
1071
-939524096
1000

1000

  0
LINE
  5
798
330
620
100
AcDbEntity
  8
MOUNT_PLATE
  6
CONTINUOUS
100
AcDbLine
 10
-781.95552565336
 20
1119.631385652563
 30
0.0
 11
-781.1555256533601
 21
1120.431385652563
 31
0.0
1001
ACAD
1010
0.0
1020
0.0
1030
0.0
1001
HATCHBACKGROUNDCOLOR
1071
-939524096
1000

1000

  0
LINE
  5
799
330
620
100
AcDbEntity
  8
MOUNT_PLATE
  6
CONTINUOUS
100
AcDbLine
 10
-781.7787489580634
 20
1119.631385652563
 30
0.0
 11
-780.9787489580634
 21
1120.431385652563
 31
0.0
1001
ACAD
1010
0.0
1020
0.0
1030
0.0
1001
HATCHBACKGROUNDCOLOR
1071
-939524096
1000

1000

  0
LINE
  5
79A
330
620
100
AcDbEntity
  8
MOUNT_PLATE
  6
CONTINUOUS
100
AcDbLine
 10
-781.6019722627667
 20
1119.631385652563
 30
0.0
 11
-780.8019722627668
 21
1120.431385652563
 31
0.0
1001
ACAD
1010
0.0
1020
0.0
1030
0.0
1001
HATCHBACKGROUNDCOLOR
1071
-939524096
1000

1000

  0
LINE
  5
79B
330
620
100
AcDbEntity
  8
MOUNT_PLATE
  6
CONTINUOUS
100
AcDbLine
 10
-781.42519556747
 20
1119.631385652563
 30
0.0
 11
-780.6251955674701
 21
1120.431385652563
 31
0.0
1001
ACAD
1010
0.0
1020
0.0
1030
0.0
1001
HATCHBACKGROUNDCOLOR
1071
-939524096
1000

1000

  0
LINE
  5
79C
330
620
100
AcDbEntity
  8
MOUNT_PLATE
  6
CONTINUOUS
100
AcDbLine
 10
-781.2484188721735
 20
1119.631385652563
 30
0.0
 11
-780.4484188721735
 21
1120.431385652563
 31
0.0
1001
ACAD
1010
0.0
1020
0.0
1030
0.0
1001
HATCHBACKGROUNDCOLOR
1071
-939524096
1000

1000

  0
LINE
  5
79D
330
620
100
AcDbEntity
  8
MOUNT_PLATE
  6
CONTINUOUS
100
AcDbLine
 10
-781.0716421768768
 20
1119.631385652563
 30
0.0
 11
-780.2716421768769
 21
1120.431385652563
 31
0.0
1001
ACAD
1010
0.0
1020
0.0
1030
0.0
1001
HATCHBACKGROUNDCOLOR
1071
-939524096
1000

1000

  0
LINE
  5
79E
330
620
100
AcDbEntity
  8
MOUNT_PLATE
  6
CONTINUOUS
100
AcDbLine
 10
-780.8948654815802
 20
1119.631385652563
 30
0.0
 11
-780.0948654815802
 21
1120.431385652563
 31
0.0
1001
ACAD
1010
0.0
1020
0.0
1030
0.0
1001
HATCHBACKGROUNDCOLOR
1071
-939524096
1000

1000

  0
LINE
  5
79F
330
620
100
AcDbEntity
  8
MOUNT_PLATE
  6
CONTINUOUS
100
AcDbLine
 10
-780.7180887862836
 20
1119.631385652563
 30
0.0
 11
-779.9180887862836
 21
1120.431385652563
 31
0.0
1001
ACAD
1010
0.0
1020
0.0
1030
0.0
1001
HATCHBACKGROUNDCOLOR
1071
-939524096
1000

1000

  0
LINE
  5
7A0
330
620
100
AcDbEntity
  8
MOUNT_PLATE
  6
CONTINUOUS
100
AcDbLine
 10
-780.5413120909869
 20
1119.631385652563
 30
0.0
 11
-779.741312090987
 21
1120.431385652563
 31
0.0
1001
ACAD
1010
0.0
1020
0.0
1030
0.0
1001
HATCHBACKGROUNDCOLOR
1071
-939524096
1000

1000

  0
LINE
  5
7A1
330
620
100
AcDbEntity
  8
MOUNT_PLATE
  6
CONTINUOUS
100
AcDbLine
 10
-780.3645353956903
 20
1119.631385652563
 30
0.0
 11
-779.5645353956903
 21
1120.431385652563
 31
0.0
1001
ACAD
1010
0.0
1020
0.0
1030
0.0
1001
HATCHBACKGROUNDCOLOR
1071
-939524096
1000

1000

  0
LINE
  5
7A2
330
620
100
AcDbEntity
  8
MOUNT_PLATE
  6
CONTINUOUS
100
AcDbLine
 10
-780.1877587003936
 20
1119.631385652563
 30
0.0
 11
-779.3877587003936
 21
1120.431385652563
 31
0.0
1001
ACAD
1010
0.0
1020
0.0
1030
0.0
1001
HATCHBACKGROUNDCOLOR
1071
-939524096
1000

1000

  0
LINE
  5
7A3
330
620
100
AcDbEntity
  8
MOUNT_PLATE
  6
CONTINUOUS
100
AcDbLine
 10
-780.010982005097
 20
1119.631385652563
 30
0.0
 11
-779.2109820050971
 21
1120.431385652563
 31
0.0
1001
ACAD
1010
0.0
1020
0.0
1030
0.0
1001
HATCHBACKGROUNDCOLOR
1071
-939524096
1000

1000

  0
LINE
  5
7A4
330
620
100
AcDbEntity
  8
MOUNT_PLATE
  6
CONTINUOUS
100
AcDbLine
 10
-779.0995586985995
 20
1123.19445938851
 30
0.0
 11
-777.5995586985995
 21
1124.69445938851
 31
0.0
1001
ACAD
1010
0.0
1020
0.0
1030
0.0
1001
HATCHBACKGROUNDCOLOR
1071
-939524096
1000

1000

  0
LINE
  5
7A5
330
620
100
AcDbEntity
  8
MOUNT_PLATE
  6
CONTINUOUS
100
AcDbLine
 10
-779.0995586985995
 20
1123.017682693214
 30
0.0
 11
-777.5995586985995
 21
1124.517682693214
 31
0.0
1001
ACAD
1010
0.0
1020
0.0
1030
0.0
1001
HATCHBACKGROUNDCOLOR
1071
-939524096
1000

1000

  0
LINE
  5
7A6
330
620
100
AcDbEntity
  8
MOUNT_PLATE
  6
CONTINUOUS
100
AcDbLine
 10
-779.0995586985995
 20
1122.840905997917
 30
0.0
 11
-777.5995586985995
 21
1124.340905997917
 31
0.0
1001
ACAD
1010
0.0
1020
0.0
1030
0.0
1001
HATCHBACKGROUNDCOLOR
1071
-939524096
1000

1000

  0
LINE
  5
7A7
330
620
100
AcDbEntity
  8
MOUNT_PLATE
  6
CONTINUOUS
100
AcDbLine
 10
-779.0995586985995
 20
1122.66412930262
 30
0.0
 11
-777.5995586985995
 21
1124.16412930262
 31
0.0
1001
ACAD
1010
0.0
1020
0.0
1030
0.0
1001
HATCHBACKGROUNDCOLOR
1071
-939524096
1000

1000

  0
LINE
  5
7A8
330
620
100
AcDbEntity
  8
MOUNT_PLATE
  6
CONTINUOUS
100
AcDbLine
 10
-779.0995586985995
 20
1122.487352607324
 30
0.0
 11
-777.5995586985995
 21
1123.987352607324
 31
0.0
1001
ACAD
1010
0.0
1020
0.0
1030
0.0
1001
HATCHBACKGROUNDCOLOR
1071
-939524096
1000

1000

  0
LINE
  5
7A9
330
620
100
AcDbEntity
  8
MOUNT_PLATE
  6
CONTINUOUS
100
AcDbLine
 10
-779.0995586985995
 20
1122.310575912027
 30
0.0
 11
-777.5995586985995
 21
1123.810575912027
 31
0.0
1001
ACAD
1010
0.0
1020
0.0
1030
0.0
1001
HATCHBACKGROUNDCOLOR
1071
-939524096
1000

1000

  0
LINE
  5
7AA
330
620
100
AcDbEntity
  8
MOUNT_PLATE
  6
CONTINUOUS
100
AcDbLine
 10
-779.0995586985995
 20
1122.13379921673
 30
0.0
 11
-777.5995586985995
 21
1123.63379921673
 31
0.0
1001
ACAD
1010
0.0
1020
0.0
1030
0.0
1001
HATCHBACKGROUNDCOLOR
1071
-939524096
1000

1000

  0
LINE
  5
7AB
330
620
100
AcDbEntity
  8
MOUNT_PLATE
  6
CONTINUOUS
100
AcDbLine
 10
-779.0995586985995
 20
1121.957022521434
 30
0.0
 11
-777.5995586985995
 21
1123.457022521434
 31
0.0
1001
ACAD
1010
0.0
1020
0.0
1030
0.0
1001
HATCHBACKGROUNDCOLOR
1071
-939524096
1000

1000

  0
LINE
  5
7AC
330
620
100
AcDbEntity
  8
MOUNT_PLATE
  6
CONTINUOUS
100
AcDbLine
 10
-779.0995586985995
 20
1121.780245826137
 30
0.0
 11
-777.5995586985995
 21
1123.280245826137
 31
0.0
1001
ACAD
1010
0.0
1020
0.0
1030
0.0
1001
HATCHBACKGROUNDCOLOR
1071
-939524096
1000

1000

  0
LINE
  5
7AD
330
620
100
AcDbEntity
  8
MOUNT_PLATE
  6
CONTINUOUS
100
AcDbLine
 10
-779.0995586985995
 20
1121.603469130841
 30
0.0
 11
-777.5995586985995
 21
1123.103469130841
 31
0.0
1001
ACAD
1010
0.0
1020
0.0
1030
0.0
1001
HATCHBACKGROUNDCOLOR
1071
-939524096
1000

1000

  0
LINE
  5
7AE
330
620
100
AcDbEntity
  8
MOUNT_PLATE
  6
CONTINUOUS
100
AcDbLine
 10
-779.0995586985995
 20
1121.426692435544
 30
0.0
 11
-777.5995586985995
 21
1122.926692435544
 31
0.0
1001
ACAD
1010
0.0
1020
0.0
1030
0.0
1001
HATCHBACKGROUNDCOLOR
1071
-939524096
1000

1000

  0
LINE
  5
7AF
330
620
100
AcDbEntity
  8
MOUNT_PLATE
  6
CONTINUOUS
100
AcDbLine
 10
-779.0995586985995
 20
1121.249915740247
 30
0.0
 11
-777.5995586985995
 21
1122.749915740247
 31
0.0
1001
ACAD
1010
0.0
1020
0.0
1030
0.0
1001
HATCHBACKGROUNDCOLOR
1071
-939524096
1000

1000

  0
LINE
  5
7B0
330
620
100
AcDbEntity
  8
MOUNT_PLATE
  6
CONTINUOUS
100
AcDbLine
 10
-779.0995586985995
 20
1121.073139044951
 30
0.0
 11
-777.5995586985995
 21
1122.573139044951
 31
0.0
1001
ACAD
1010
0.0
1020
0.0
1030
0.0
1001
HATCHBACKGROUNDCOLOR
1071
-939524096
1000

1000

  0
LINE
  5
7B1
330
620
100
AcDbEntity
  8
MOUNT_PLATE
  6
CONTINUOUS
100
AcDbLine
 10
-779.0995586985995
 20
1120.896362349654
 30
0.0
 11
-777.5995586985995
 21
1122.396362349654
 31
0.0
1001
ACAD
1010
0.0
1020
0.0
1030
0.0
1001
HATCHBACKGROUNDCOLOR
1071
-939524096
1000

1000

  0
LINE
  5
7B2
330
620
100
AcDbEntity
  8
MOUNT_PLATE
  6
CONTINUOUS
100
AcDbLine
 10
-779.0995586985995
 20
1120.719585654357
 30
0.0
 11
-777.5995586985995
 21
1122.219585654357
 31
0.0
1001
ACAD
1010
0.0
1020
0.0
1030
0.0
1001
HATCHBACKGROUNDCOLOR
1071
-939524096
1000

1000

  0
LINE
  5
7B3
330
620
100
AcDbEntity
  8
MOUNT_PLATE
  6
CONTINUOUS
100
AcDbLine
 10
-779.0995586985995
 20
1120.542808959061
 30
0.0
 11
-777.5995586985995
 21
1122.042808959061
 31
0.0
1001
ACAD
1010
0.0
1020
0.0
1030
0.0
1001
HATCHBACKGROUNDCOLOR
1071
-939524096
1000

1000

  0
LINE
  5
7B4
330
620
100
AcDbEntity
  8
MOUNT_PLATE
  6
CONTINUOUS
100
AcDbLine
 10
-779.8342053098004
 20
1119.631385652563
 30
0.0
 11
-777.5995586985995
 21
1121.866032263764
 31
0.0
1001
ACAD
1010
0.0
1020
0.0
1030
0.0
1001
HATCHBACKGROUNDCOLOR
1071
-939524096
1000

1000

  0
LINE
  5
7B5
330
620
100
AcDbEntity
  8
MOUNT_PLATE
  6
CONTINUOUS
100
AcDbLine
 10
-779.6574286145037
 20
1119.631385652563
 30
0.0
 11
-777.5995586985995
 21
1121.689255568468
 31
0.0
1001
ACAD
1010
0.0
1020
0.0
1030
0.0
1001
HATCHBACKGROUNDCOLOR
1071
-939524096
1000

1000

  0
LINE
  5
7B6
330
620
100
AcDbEntity
  8
MOUNT_PLATE
  6
CONTINUOUS
100
AcDbLine
 10
-779.480651919207
 20
1119.631385652563
 30
0.0
 11
-777.5995586985995
 21
1121.512478873171
 31
0.0
1001
ACAD
1010
0.0
1020
0.0
1030
0.0
1001
HATCHBACKGROUNDCOLOR
1071
-939524096
1000

1000

  0
LINE
  5
7B7
330
620
100
AcDbEntity
  8
MOUNT_PLATE
  6
CONTINUOUS
100
AcDbLine
 10
-779.3038752239105
 20
1119.631385652563
 30
0.0
 11
-777.5995586985995
 21
1121.335702177874
 31
0.0
1001
ACAD
1010
0.0
1020
0.0
1030
0.0
1001
HATCHBACKGROUNDCOLOR
1071
-939524096
1000

1000

  0
LINE
  5
7B8
330
620
100
AcDbEntity
  8
MOUNT_PLATE
  6
CONTINUOUS
100
AcDbLine
 10
-779.1270985286138
 20
1119.631385652563
 30
0.0
 11
-777.5995586985995
 21
1121.158925482578
 31
0.0
1001
ACAD
1010
0.0
1020
0.0
1030
0.0
1001
HATCHBACKGROUNDCOLOR
1071
-939524096
1000

1000

  0
LINE
  5
7B9
330
620
100
AcDbEntity
  8
MOUNT_PLATE
  6
CONTINUOUS
100
AcDbLine
 10
-778.9503218333172
 20
1119.631385652563
 30
0.0
 11
-777.5995586985995
 21
1120.982148787281
 31
0.0
1001
ACAD
1010
0.0
1020
0.0
1030
0.0
1001
HATCHBACKGROUNDCOLOR
1071
-939524096
1000

1000

  0
LINE
  5
7BA
330
620
100
AcDbEntity
  8
MOUNT_PLATE
  6
CONTINUOUS
100
AcDbLine
 10
-778.7735451380205
 20
1119.631385652563
 30
0.0
 11
-777.5995586985995
 21
1120.805372091984
 31
0.0
1001
ACAD
1010
0.0
1020
0.0
1030
0.0
1001
HATCHBACKGROUNDCOLOR
1071
-939524096
1000

1000

  0
LINE
  5
7BB
330
620
100
AcDbEntity
  8
MOUNT_PLATE
  6
CONTINUOUS
100
AcDbLine
 10
-778.5967684427239
 20
1119.631385652563
 30
0.0
 11
-777.5995586985995
 21
1120.628595396688
 31
0.0
1001
ACAD
1010
0.0
1020
0.0
1030
0.0
1001
HATCHBACKGROUNDCOLOR
1071
-939524096
1000

1000

  0
LINE
  5
7BC
330
620
100
AcDbEntity
  8
MOUNT_PLATE
  6
CONTINUOUS
100
AcDbLine
 10
-778.4199917474273
 20
1119.631385652563
 30
0.0
 11
-777.5995586985995
 21
1120.451818701391
 31
0.0
1001
ACAD
1010
0.0
1020
0.0
1030
0.0
1001
HATCHBACKGROUNDCOLOR
1071
-939524096
1000

1000

  0
LINE
  5
7BD
330
620
100
AcDbEntity
  8
MOUNT_PLATE
  6
CONTINUOUS
100
AcDbLine
 10
-778.2432150521306
 20
1119.631385652563
 30
0.0
 11
-777.5995586985995
 21
1120.275042006095
 31
0.0
1001
ACAD
1010
0.0
1020
0.0
1030
0.0
1001
HATCHBACKGROUNDCOLOR
1071
-939524096
1000

1000

  0
LINE
  5
7BE
330
620
100
AcDbEntity
  8
MOUNT_PLATE
  6
CONTINUOUS
100
AcDbLine
 10
-778.0664383568339
 20
1119.631385652563
 30
0.0
 11
-777.5995586985995
 21
1120.098265310798
 31
0.0
1001
ACAD
1010
0.0
1020
0.0
1030
0.0
1001
HATCHBACKGROUNDCOLOR
1071
-939524096
1000

1000

  0
LINE
  5
7BF
330
620
100
AcDbEntity
  8
MOUNT_PLATE
  6
CONTINUOUS
100
AcDbLine
 10
-777.8896616615374
 20
1119.631385652563
 30
0.0
 11
-777.5995586985995
 21
1119.921488615501
 31
0.0
1001
ACAD
1010
0.0
1020
0.0
1030
0.0
1001
HATCHBACKGROUNDCOLOR
1071
-939524096
1000

1000

  0
LINE
  5
7C0
330
620
100
AcDbEntity
  8
MOUNT_PLATE
  6
CONTINUOUS
100
AcDbLine
 10
-777.7128849662407
 20
1119.631385652563
 30
0.0
 11
-777.5995586985995
 21
1119.744711920205
 31
0.0
1001
ACAD
1010
0.0
1020
0.0
1030
0.0
1001
HATCHBACKGROUNDCOLOR
1071
-939524096
1000

1000

  0
ENDBLK
  5
7C2
330
620
100
AcDbEntity
  8
0
100
AcDbBlockEnd
  0
ENDSEC
  0
SECTION
  2
ENTITIES
  0
LINE
  5
3AD
330
1F
100
AcDbEntity
  8
0
100
AcDbLine
 10
-821.1995586985995
 20
1130.631385652563
 30
0.0
 11
-790.2995586985995
 21
1130.631385652563
 31
0.0
  0
LINE
  5
3AE
330
1F
100
AcDbEntity
  8
0
100
AcDbLine
 10
-762.2995586985995
 20
1121.431385652563
 30
0.0
 11
-762.2995586985995
 21
1087.131385652563
 31
0.0
  0
LINE
  5
3AF
330
1F
100
AcDbEntity
  8
0
100
AcDbLine
 10
-762.2995586985993
 20
1037.131385652563
 30
0.0
 11
-777.8995586985993
 21
1037.131385652563
 31
0.0
  0
LINE
  5
3B0
330
1F
100
AcDbEntity
  8
0
100
AcDbLine
 10
-822.2995586985993
 20
1052.631385652563
 30
0.0
 11
-822.2995586985993
 21
1058.231385652563
 31
0.0
  0
LINE
  5
3B2
330
1F
100
AcDbEntity
  8
0
100
AcDbLine
 10
-821.1995586985995
 20
1130.631385652563
 30
0.0
 11
-821.1995586985995
 21
1125.631385652563
 31
0.0
  0
LINE
  5
3B3
330
1F
100
AcDbEntity
  8
0
100
AcDbLine
 10
-822.1995586985995
 20
1124.631385652563
 30
0.0
 11
-822.2995586985995
 21
1124.631385652563
 31
0.0
  0
LINE
  5
3B5
330
1F
100
AcDbEntity
  8
0
100
AcDbLine
 10
-790.2995586985995
 20
1130.631385652563
 30
0.0
 11
-790.2995586985995
 21
1129.931385652563
 31
0.0
  0
LINE
  5
3B6
330
1F
100
AcDbEntity
  8
0
100
AcDbLine
 10
-789.2995586985995
 20
1128.931385652563
 30
0.0
 11
-785.4995586985996
 21
1128.931385652563
 31
0.0
  0
LINE
  5
3B7
330
1F
100
AcDbEntity
  8
0
100
AcDbLine
 10
-784.4995586985996
 20
1129.931385652563
 30
0.0
 11
-784.4995586985996
 21
1130.631385652563
 31
0.0
  0
ARC
  5
3B8
330
1F
100
AcDbEntity
  8
0
100
AcDbCircle
 10
-822.1995586985995
 20
1125.631385652563
 30
0.0
 40
0.9999999999999997
100
AcDbArc
 50
270.0
 51
0.0
  0
ARC
  5
3B9
330
1F
100
AcDbEntity
  8
0
100
AcDbCircle
 10
-789.2995586985995
 20
1129.931385652563
 30
0.0
 40
0.9999999999999997
100
AcDbArc
 50
180.0
 51
270.0
  0
ARC
  5
3BA
330
1F
100
AcDbEntity
  8
0
100
AcDbCircle
 10
-785.4995586985996
 20
1129.931385652563
 30
0.0
 40
0.9999999999999997
100
AcDbArc
 50
270.0
 51
0.0
  0
CIRCLE
  5
3BD
330
1F
100
AcDbEntity
  8
0
100
AcDbCircle
 10
-788.8995586985995
 20
1126.031385652563
 30
0.0
 40
1.4
  0
CIRCLE
  5
3C6
330
1F
100
AcDbEntity
  8
0
100
AcDbCircle
 10
-815.2995586985995
 20
1101.131385652563
 30
0.0
 40
1.1
  0
CIRCLE
  5
3C7
330
1F
100
AcDbEntity
  8
0
100
AcDbCircle
 10
-770.3995586985995
 20
1118.131385652563
 30
0.0
 40
1.1
  0
CIRCLE
  5
3CA
330
1F
100
AcDbEntity
  8
0
100
AcDbCircle
 10
-785.8995586985995
 20
1101.431385652563
 30
0.0
 40
1.6
  0
LINE
  5
3CB
330
1F
100
AcDbEntity
  8
0
100
AcDbLine
 10
-762.2995586985995
 20
1121.431385652563
 30
0.0
 11
-762.2995586985995
 21
1087.131385652563
 31
0.0
  0
LINE
  5
3CC
330
1F
100
AcDbEntity
  8
0
100
AcDbLine
 10
-762.2995586985995
 20
1087.131385652563
 30
0.0
 11
-770.2995586985995
 21
1087.131385652563
 31
0.0
  0
LINE
  5
3CD
330
1F
100
AcDbEntity
  8
0
100
AcDbLine
 10
-771.2995586985995
 20
1086.131385652563
 30
0.0
 11
-771.2995586985995
 21
1083.131385652563
 31
0.0
  0
LINE
  5
3CE
330
1F
100
AcDbEntity
  8
0
100
AcDbLine
 10
-770.2995586985995
 20
1082.131385652563
 30
0.0
 11
-766.7895919089544
 21
1082.13072119992
 31
0.0
  0
ARC
  5
3D5
330
1F
100
AcDbEntity
  8
0
100
AcDbCircle
 10
-770.2995586985995
 20
1086.131385652563
 30
0.0
 40
0.9999999999999997
100
AcDbArc
 50
90.0
 51
180.0
  0
ARC
  5
3D6
330
1F
100
AcDbEntity
  8
0
100
AcDbCircle
 10
-770.2995586985995
 20
1083.131385652563
 30
0.0
 40
0.9999999999999997
100
AcDbArc
 50
180.0
 51
270.0
  0
ARC
  5
3DE
330
1F
100
AcDbEntity
  8
0
100
AcDbCircle
 10
-762.2995586985996
 20
1081.831385652563
 30
0.0
 40
4.5
100
AcDbArc
 50
176.185925165709
 51
270.0000000000029
  0
LINE
  5
3DF
330
1F
100
AcDbEntity
  8
0
100
AcDbLine
 10
-762.2995586985994
 20
1077.331385652563
 30
0.0
 11
-762.2995586985993
 21
1055.131385652563
 31
0.0
  0
LINE
  5
3E0
330
1F
100
AcDbEntity
  8
0
100
AcDbLine
 10
-822.2995586985995
 20
1124.631385652563
 30
0.0
 11
-822.2995586985995
 21
1103.131385652563
 31
0.0
  0
LINE
  5
3E4
330
1F
100
AcDbEntity
  8
0
100
AcDbLine
 10
-821.2995586985995
 20
1102.131385652563
 30
0.0
 11
-821.2995586985995
 21
1098.131385652563
 31
0.0
  0
ARC
  5
3E6
330
1F
100
AcDbEntity
  8
0
100
AcDbCircle
 10
-822.2995586985995
 20
1102.131385652563
 30
0.0
 40
0.9999999999999997
100
AcDbArc
 50
0.0
 51
90.0
  0
ARC
  5
3E7
330
1F
100
AcDbEntity
  8
0
100
AcDbCircle
 10
-822.2995586985995
 20
1098.131385652563
 30
0.0
 40
0.9999999999999997
100
AcDbArc
 50
270.0
 51
0.0
  0
LINE
  5
3E8
330
1F
100
AcDbEntity
  8
0
100
AcDbLine
 10
-822.2995586985994
 20
1103.131385652563
 30
0.0
 11
-822.2995586985995
 21
1124.631385652563
 31
0.0
  0
LINE
  5
3E9
330
1F
100
AcDbEntity
  8
0
100
AcDbLine
 10
-784.4995586985996
 20
1130.631385652563
 30
0.0
 11
-772.2995586985995
 21
1130.631385652563
 31
0.0
  0
LINE
  5
3EA
330
1F
100
AcDbEntity
  8
0
100
AcDbLine
 10
-784.4995586985996
 20
1130.631385652563
 30
0.0
 11
-772.2675073341012
 21
1130.631385652563
 31
0.0
  0
LINE
  5
3EC
330
1F
100
AcDbEntity
  8
0
100
AcDbLine
 10
-822.2995586985994
 20
1090.431385652563
 30
0.0
 11
-820.7995586985994
 21
1090.431385652563
 31
0.0
  0
LINE
  5
3ED
330
1F
100
AcDbEntity
  8
0
100
AcDbLine
 10
-819.7995586985994
 20
1089.431385652563
 30
0.0
 11
-819.7995586985995
 21
1079.031385652563
 31
0.0
  0
LINE
  5
3EF
330
1F
100
AcDbEntity
  8
0
100
AcDbLine
 10
-818.7995586985995
 20
1078.031385652563
 30
0.0
 11
-818.7995586985996
 21
1067.231385652563
 31
0.0
  0
LINE
  5
3F0
330
1F
100
AcDbEntity
  8
0
100
AcDbLine
 10
-818.7995586985996
 20
1067.231385652563
 30
0.0
 11
-814.7995586985996
 21
1067.231385652563
 31
0.0
  0
LINE
  5
3F1
330
1F
100
AcDbEntity
  8
0
100
AcDbLine
 10
-813.7995586985996
 20
1066.231385652563
 30
0.0
 11
-813.7995586985996
 21
1059.231385652563
 31
0.0
  0
LINE
  5
3F2
330
1F
100
AcDbEntity
  8
0
100
AcDbLine
 10
-814.7995586985996
 20
1058.231385652563
 30
0.0
 11
-822.2995586985993
 21
1058.231385652563
 31
0.0
  0
ARC
  5
3F3
330
1F
100
AcDbEntity
  8
0
100
AcDbCircle
 10
-820.7995586985994
 20
1089.431385652563
 30
0.0
 40
0.9999999999999999
100
AcDbArc
 50
0.0
 51
90.0
  0
ARC
  5
3F4
330
1F
100
AcDbEntity
  8
0
100
AcDbCircle
 10
-819.7995586985995
 20
1078.031385652563
 30
0.0
 40
1.0
100
AcDbArc
 50
0.0
 51
90.0
  0
ARC
  5
3F5
330
1F
100
AcDbEntity
  8
0
100
AcDbCircle
 10
-814.7995586985996
 20
1066.231385652563
 30
0.0
 40
0.9999999999999997
100
AcDbArc
 50
0.0
 51
90.0
  0
ARC
  5
3F6
330
1F
100
AcDbEntity
  8
0
100
AcDbCircle
 10
-814.7995586985996
 20
1059.231385652563
 30
0.0
 40
0.9999999999999997
100
AcDbArc
 50
270.0
 51
0.0
  0
LINE
  5
3F7
330
1F
100
AcDbEntity
  8
0
100
AcDbLine
 10
-822.2995586985994
 20
1090.431385652563
 30
0.0
 11
-822.2995586985994
 21
1097.131385652563
 31
0.0
  0
LINE
  5
3F8
330
1F
100
AcDbEntity
  8
0
100
AcDbLine
 10
-822.2995586985994
 20
1097.131385652563
 30
0.0
 11
-822.2995586985994
 21
1090.431385652563
 31
0.0
  0
LINE
  5
3FA
330
1F
100
AcDbEntity
  8
0
100
AcDbLine
 10
-819.6995586985993
 20
1037.131385652563
 30
0.0
 11
-819.6995586985992
 21
1051.631385652563
 31
0.0
  0
LINE
  5
3FB
330
1F
100
AcDbEntity
  8
0
100
AcDbLine
 10
-820.6995586985992
 20
1052.631385652563
 30
0.0
 11
-822.2995586985993
 21
1052.631385652563
 31
0.0
  0
CIRCLE
  5
402
330
1F
100
AcDbEntity
  8
0
100
AcDbCircle
 10
-814.8995586985993
 20
1053.031385652563
 30
0.0
 40
1.8
  0
LINE
  5
403
330
1F
100
AcDbEntity
  8
0
100
AcDbLine
 10
-762.2995586985993
 20
1037.131385652563
 30
0.0
 11
-762.2995586985993
 21
1048.131385652563
 31
0.0
  0
LINE
  5
405
330
1F
100
AcDbEntity
  8
0
100
AcDbLine
 10
-763.2995586985993
 20
1049.131385652563
 30
0.0
 11
-763.2995586985993
 21
1054.131385652563
 31
0.0
  0
ARC
  5
407
330
1F
100
AcDbEntity
  8
0
100
AcDbCircle
 10
-762.2995586985993
 20
1054.131385652563
 30
0.0
 40
1.0
100
AcDbArc
 50
90.0
 51
180.0
  0
ARC
  5
408
330
1F
100
AcDbEntity
  8
0
100
AcDbCircle
 10
-762.2995586985993
 20
1049.131385652563
 30
0.0
 40
1.0
100
AcDbArc
 50
180.0
 51
270.0
  0
LINE
  5
409
330
1F
100
AcDbEntity
  8
0
100
AcDbLine
 10
-762.2995586985993
 20
1048.131385652563
 30
0.0
 11
-762.2995586985993
 21
1037.131385652563
 31
0.0
  0
CIRCLE
  5
40C
330
1F
100
AcDbEntity
  8
0
100
AcDbCircle
 10
-781.4995586985993
 20
1051.731385652563
 30
0.0
 40
1.4
  0
ARC
  5
40D
330
1F
100
AcDbEntity
  8
0
100
AcDbCircle
 10
-820.6995586985992
 20
1051.631385652563
 30
0.0
 40
1.0
100
AcDbArc
 50
0.0
 51
90.0
  0
LINE
  5
40E
330
1F
100
AcDbEntity
  8
0
100
AcDbLine
 10
-762.2995586985993
 20
1037.131385652563
 30
0.0
 11
-777.8995586985993
 21
1037.131385652563
 31
0.0
  0
LINE
  5
40F
330
1F
100
AcDbEntity
  8
0
100
AcDbLine
 10
-777.8995586985993
 20
1037.131385652563
 30
0.0
 11
-777.8995586985993
 21
1038.381385652563
 31
0.0
  0
LINE
  5
410
330
1F
100
AcDbEntity
  8
0
100
AcDbLine
 10
-778.8995586985992
 20
1039.381385652563
 30
0.0
 11
-779.6995586985992
 21
1039.381385652563
 31
0.0
  0
LINE
  5
411
330
1F
100
AcDbEntity
  8
0
100
AcDbLine
 10
-780.6995586985993
 20
1038.381385652563
 30
0.0
 11
-780.6995586985993
 21
1037.131385652563
 31
0.0
  0
ARC
  5
412
330
1F
100
AcDbEntity
  8
0
100
AcDbCircle
 10
-779.6995586985993
 20
1038.381385652563
 30
0.0
 40
1.0
100
AcDbArc
 50
89.99999999999349
 51
180.0
  0
ARC
  5
413
330
1F
100
AcDbEntity
  8
0
100
AcDbCircle
 10
-778.8995586985993
 20
1038.381385652563
 30
0.0
 40
1.0
100
AcDbArc
 50
0.0
 51
89.99999999999349
  0
LINE
  5
414
330
1F
100
AcDbEntity
  8
0
100
AcDbLine
 10
-780.6995586985993
 20
1037.131385652563
 30
0.0
 11
-819.6995586985993
 21
1037.131385652563
 31
0.0
  0
LINE
  5
417
330
1F
100
AcDbEntity
  8
MOUNT_PLATE
100
AcDbLine
 10
-819.6995586985993
 20
1042.931385652563
 30
0.0
 11
-762.2995586985993
 21
1042.931385652563
 31
0.0
  0
LINE
  5
418
330
1F
100
AcDbEntity
  8
MOUNT_PLATE
100
AcDbLine
 10
-817.3995586985993
 20
1042.931385652563
 30
0.0
 11
-817.3995586985993
 21
1040.728430760774
 31
0.0
  0
LINE
  5
41A
330
1F
100
AcDbEntity
  8
MOUNT_PLATE
100
AcDbLine
 10
-765.0995586985993
 20
1042.931385652563
 30
0.0
 11
-765.0995586985993
 21
1041.36862513952
 31
0.0
  0
LINE
  5
41E
330
1F
100
AcDbEntity
  8
MOUNT_PLATE
100
AcDbLine
 10
-822.2995586985994
 20
1115.231385652563
 30
0.0
 11
-762.2995586985995
 21
1115.231385652563
 31
0.0
  0
LINE
  5
420
330
1F
100
AcDbEntity
  8
MOUNT_PLATE
100
AcDbLine
 10
-822.2995586985995
 20
1106.431385652563
 30
0.0
 11
-762.2995586985995
 21
1106.431385652563
 31
0.0
  0
LINE
  5
422
330
1F
100
AcDbEntity
  8
MOUNT_PLATE
100
AcDbLine
 10
-817.0995586985994
 20
1115.231385652563
 30
0.0
 11
-817.0995586985994
 21
1106.431385652563
 31
0.0
  0
LINE
  5
424
330
1F
100
AcDbEntity
  8
MOUNT_PLATE
100
AcDbLine
 10
-806.4995586985995
 20
1115.231385652563
 30
0.0
 11
-806.4995586985995
 21
1106.431385652563
 31
0.0
  0
LINE
  5
426
330
1F
100
AcDbEntity
  8
MOUNT_PLATE
100
AcDbLine
 10
-794.3995586985994
 20
1115.231385652563
 30
0.0
 11
-794.3995586985994
 21
1106.431385652563
 31
0.0
  0
LINE
  5
428
330
1F
100
AcDbEntity
  8
MOUNT_PLATE
100
AcDbLine
 10
-777.2995586985994
 20
1115.231385652563
 30
0.0
 11
-777.2995586985994
 21
1106.431385652563
 31
0.0
  0
LINE
  5
434
330
1F
100
AcDbEntity
  8
MOUNT_PLATE
100
AcDbLine
 10
-821.1995586985995
 20
1130.631385652563
 30
0.0
 11
-821.1995586985995
 21
1120.631385652563
 31
0.0
  0
LINE
  5
435
330
1F
100
AcDbEntity
  8
MOUNT_PLATE
100
AcDbLine
 10
-821.1995586985995
 20
1120.631385652563
 30
0.0
 11
-796.1995586985995
 21
1120.631385652563
 31
0.0
  0
LINE
  5
437
330
1F
100
AcDbEntity
  8
MOUNT_PLATE
100
AcDbLine
 10
-796.1995586985995
 20
1130.631385652563
 30
0.0
 11
-821.1995586985995
 21
1130.631385652563
 31
0.0
  0
CIRCLE
  5
438
330
1F
100
AcDbEntity
  8
MOUNT_PLATE
100
AcDbCircle
 10
-815.2995586985995
 20
1101.131385652563
 30
0.0
 40
1.5
  0
CIRCLE
  5
439
330
1F
100
AcDbEntity
  8
MOUNT_PLATE
100
AcDbCircle
 10
-770.3995586985995
 20
1118.131385652563
 30
0.0
 40
1.5
  0
LINE
  5
43B
102
{ACAD_REACTORS
330
460
102
}
330
1F
100
AcDbEntity
  8
MOUNT_PLATE
100
AcDbLine
 10
-796.1995586985995
 20
1119.631385652563
 30
0.0
 11
-777.5995586985995
 21
1119.631385652563
 31
0.0
  0
LINE
  5
43C
102
{ACAD_REACTORS
330
460
102
}
330
1F
100
AcDbEntity
  8
MOUNT_PLATE
100
AcDbLine
 10
-777.5995586985995
 20
1119.631385652563
 30
0.0
 11
-777.5995586985995
 21
1130.631385652563
 31
0.0
  0
LINE
  5
43D
102
{ACAD_REACTORS
330
460
102
}
330
1F
100
AcDbEntity
  8
MOUNT_PLATE
100
AcDbLine
 10
-777.5995586985995
 20
1130.631385652563
 30
0.0
 11
-796.1995586985995
 21
1130.631385652563
 31
0.0
  0
LINE
  5
43F
102
{ACAD_REACTORS
330
460
102
}
330
1F
100
AcDbEntity
  8
MOUNT_PLATE
100
AcDbLine
 10
-794.6995586985995
 20
1120.431385652563
 30
0.0
 11
-794.6995586985995
 21
1123.331385652563
 31
0.0
  0
LINE
  5
441
102
{ACAD_REACTORS
330
460
102
}
330
1F
100
AcDbEntity
  8
MOUNT_PLATE
100
AcDbLine
 10
-779.0995586985995
 20
1120.431385652563
 30
0.0
 11
-779.0995586985995
 21
1123.331385652563
 31
0.0
  0
LINE
  5
443
102
{ACAD_REACTORS
330
460
102
}
330
1F
100
AcDbEntity
  8
MOUNT_PLATE
100
AcDbLine
 10
-794.6995586985995
 20
1120.431385652563
 30
0.0
 11
-787.5995586985996
 21
1120.431385652563
 31
0.0
  0
LINE
  5
445
102
{ACAD_REACTORS
330
460
102
}
330
1F
100
AcDbEntity
  8
MOUNT_PLATE
100
AcDbLine
 10
-794.6995586985995
 20
1129.631385652563
 30
0.0
 11
-790.6995586985995
 21
1129.631385652563
 31
0.0
  0
LINE
  5
447
102
{ACAD_REACTORS
330
460
102
}
330
1F
100
AcDbEntity
  8
MOUNT_PLATE
100
AcDbLine
 10
-787.5995586985996
 20
1120.431385652563
 30
0.0
 11
-787.5995586985996
 21
1123.331385652563
 31
0.0
  0
LINE
  5
448
102
{ACAD_REACTORS
330
460
102
}
330
1F
100
AcDbEntity
  8
MOUNT_PLATE
100
AcDbLine
 10
-786.1995586985995
 20
1120.431385652563
 30
0.0
 11
-786.1995586985995
 21
1123.331385652563
 31
0.0
  0
LINE
  5
449
102
{ACAD_REACTORS
330
460
102
}
330
1F
100
AcDbEntity
  8
MOUNT_PLATE
100
AcDbLine
 10
-794.6995586985995
 20
1123.331385652563
 30
0.0
 11
-787.5995586985996
 21
1123.331385652563
 31
0.0
  0
LINE
  5
44A
102
{ACAD_REACTORS
330
460
102
}
330
1F
100
AcDbEntity
  8
MOUNT_PLATE
100
AcDbLine
 10
-794.6995586985995
 20
1124.731385652563
 30
0.0
 11
-787.5995586985996
 21
1124.731385652563
 31
0.0
  0
LINE
  5
44B
102
{ACAD_REACTORS
330
460
102
}
330
1F
100
AcDbEntity
  8
MOUNT_PLATE
100
AcDbLine
 10
-787.5995586985996
 20
1124.731385652563
 30
0.0
 11
-787.5995586985996
 21
1127.931385652563
 31
0.0
  0
LINE
  5
44C
102
{ACAD_REACTORS
330
460
102
}
330
1F
100
AcDbEntity
  8
MOUNT_PLATE
100
AcDbLine
 10
-786.1995586985995
 20
1124.731385652563
 30
0.0
 11
-786.1995586985995
 21
1127.931385652563
 31
0.0
  0
LINE
  5
44D
102
{ACAD_REACTORS
330
460
102
}
330
1F
100
AcDbEntity
  8
MOUNT_PLATE
100
AcDbLine
 10
-786.1995586985995
 20
1123.331385652563
 30
0.0
 11
-779.0995586985995
 21
1123.331385652563
 31
0.0
  0
LINE
  5
44E
102
{ACAD_REACTORS
330
460
102
}
330
1F
100
AcDbEntity
  8
MOUNT_PLATE
100
AcDbLine
 10
-786.1995586985995
 20
1124.731385652563
 30
0.0
 11
-779.0995586985995
 21
1124.731385652563
 31
0.0
  0
LINE
  5
44F
102
{ACAD_REACTORS
330
460
102
}
330
1F
100
AcDbEntity
  8
MOUNT_PLATE
100
AcDbLine
 10
-786.1995586985995
 20
1120.431385652563
 30
0.0
 11
-779.0995586985995
 21
1120.431385652563
 31
0.0
  0
LINE
  5
450
102
{ACAD_REACTORS
330
460
102
}
330
1F
100
AcDbEntity
  8
MOUNT_PLATE
100
AcDbLine
 10
-784.8995586985995
 20
1129.631385652563
 30
0.0
 11
-779.0995586985995
 21
1129.631385652563
 31
0.0
  0
LINE
  5
451
102
{ACAD_REACTORS
330
460
102
}
330
1F
100
AcDbEntity
  8
MOUNT_PLATE
100
AcDbLine
 10
-779.0995586985995
 20
1124.731385652563
 30
0.0
 11
-779.0995586985995
 21
1129.631385652563
 31
0.0
  0
LINE
  5
452
102
{ACAD_REACTORS
330
460
102
}
330
1F
100
AcDbEntity
  8
MOUNT_PLATE
100
AcDbLine
 10
-794.6995586985995
 20
1124.731385652563
 30
0.0
 11
-794.6995586985995
 21
1129.631385652563
 31
0.0
  0
LINE
  5
454
102
{ACAD_REACTORS
330
460
102
}
330
1F
100
AcDbEntity
  8
MOUNT_PLATE
100
AcDbLine
 10
-790.6995586985995
 20
1129.631385652563
 30
0.0
 11
-790.6995586985995
 21
1127.931385652563
 31
0.0
  0
LINE
  5
455
102
{ACAD_REACTORS
330
460
102
}
330
1F
100
AcDbEntity
  8
MOUNT_PLATE
100
AcDbLine
 10
-790.6995586985995
 20
1127.931385652563
 30
0.0
 11
-787.5995586985996
 21
1127.931385652563
 31
0.0
  0
LINE
  5
456
102
{ACAD_REACTORS
330
460
102
}
330
1F
100
AcDbEntity
  8
MOUNT_PLATE
100
AcDbLine
 10
-784.8995586985995
 20
1127.931385652563
 30
0.0
 11
-784.8995586985995
 21
1129.631385652563
 31
0.0
  0
LINE
  5
457
102
{ACAD_REACTORS
330
460
102
}
330
1F
100
AcDbEntity
  8
MOUNT_PLATE
100
AcDbLine
 10
-786.1995586985995
 20
1127.931385652563
 30
0.0
 11
-784.8995586985995
 21
1127.931385652563
 31
0.0
  0
LINE
  5
45D
102
{ACAD_REACTORS
330
460
102
}
330
1F
100
AcDbEntity
  8
MOUNT_PLATE
100
AcDbLine
 10
-796.1995586985995
 20
1119.631385652563
 30
0.0
 11
-796.1995586985995
 21
1130.631385652563
 31
0.0
  0
INSERT
  5
460
330
1F
100
AcDbEntity
  8
MOUNT_PLATE
100
AcDbBlockReference
  2
*X1
 10
0.0
 20
0.0
 30
0.0
  0
MTEXT
  5
46F
102
{ACAD_REACTORS
102
}
330
1F
100
AcDbEntity
  8
NOTES
100
AcDbMText
 10
-677.3222824453104
 20
1029.478122693818
 30
0.0
 40
0.18
 41
89.54541735590806
 71
     3
 72
     1
  1

  0
ARC
  5
811
330
1F
100
AcDbEntity
  8
0
100
AcDbCircle
 10
-762.2995586985995
 20
1131.431385652563
 30
0.0
 40
9.999999999999996
100
AcDbArc
 50
184.5885657357856
 51
270.0
  0
ENDSEC
  0
SECTION
  2
OBJECTS
  0
DICTIONARY
  5
C
330
0
100
AcDbDictionary
  3
ACAD_DETAILVIEWSTYLE
350
122
  3
ACAD_GROUP
350
D
  3
ACAD_IMAGE_VARS
350
DC
  3
ACAD_MLINESTYLE
350
17
  3
ACAD_SCALELIST
350
860
  3
ACAD_SECTIONVIEWSTYLE
350
123
  3
ACADDIM
350
478
  3
ACDBVARIABLEDICTIONARY
350
66
  3
APPDATA
350
E1
  3
DWGPROPS
350
8A6
1001
ACAD
1000
TREAT_AS_HARD
1070
     0
  0
DICTIONARY
  5
25F
330
2
100
AcDbDictionary
  3
ACAD_LAYERSTATES
360
260
  3
ACLYDICTIONARY
360
465
1001
ACAD
1000
TREAT_AS_HARD
1070
     1
  0
DICTIONARY
  5
12A
330
1F
100
AcDbDictionary
  3
ACAD_SORTENTS
360
45B
  3
DIM_BOUNDING_BOXES_V1
360
12B
1001
ACAD
1000
TREAT_AS_HARD
1070
     1
  0
DICTIONARY
  5
122
102
{ACAD_REACTORS
330
C
102
}
330
C
100
AcDbDictionary
1001
ACAD
1000
TREAT_AS_HARD
1070
     0
  0
DICTIONARY
  5
D
102
{ACAD_REACTORS
330
C
102
}
330
C
100
AcDbDictionary
1001
ACAD
1000
TREAT_AS_HARD
1070
     0
  0
RASTERVARIABLES
  5
DC
102
{ACAD_REACTORS
330
C
102
}
330
C
100
AcDbRasterVariables
 90
        0
 70
     1
 71
     1
 72
     5
  0
DICTIONARY
  5
17
102
{ACAD_REACTORS
330
C
102
}
330
C
100
AcDbDictionary
  3
STANDARD
350
18
1001
ACAD
1000
TREAT_AS_HARD
1070
     0
  0
DICTIONARY
  5
860
102
{ACAD_REACTORS
330
C
102
}
330
C
100
AcDbDictionary
1001
ACAD
1000
TREAT_AS_HARD
1070
     0
  0
DICTIONARY
  5
123
102
{ACAD_REACTORS
330
C
102
}
330
C
100
AcDbDictionary
1001
ACAD
1000
TREAT_AS_HARD
1070
     0
  0
XRECORD
  5
478
102
{ACAD_REACTORS
330
C
102
}
330
C
100
AcDbXrecord
340
0
 72
     0
 71
     0
 70
     0
 69
     0
 68
     1
 67
     3
 66
     0
 65
     0
 64
     0
 63
     3
 62
     1
 61
     0
 60
     0
 40
89.54541735590806
  0
DICTIONARY
  5
66
102
{ACAD_REACTORS
330
C
102
}
330
C
100
AcDbDictionary
  3
DIMASSOC
350
67
  3
HIDETEXT
350
6B
1001
ACAD
1000
TREAT_AS_HARD
1070
     0
  0
DICTIONARY
  5
E1
102
{ACAD_REACTORS
330
C
102
}
330
C
100
AcDbDictionary
1001
ACAD
1000
TREAT_AS_HARD
1070
     0
  0
XRECORD
  5
8A6
102
{ACAD_REACTORS
330
C
102
}
330
C
100
AcDbXrecord
  1
DWGPROPS COOKIE
  2

  3

  4

  6

  7

  8
tomas.bekeris
  9

300
=
301
=
302
=
303
=
304
=
305
=
306
=
307
=
308
=
309
=
 40
0.0
 41
2452643.063384259
 42
2458903.774803218
  1

 90
        0
  0
DICTIONARY
  5
260
102
{ACAD_REACTORS
330
25F
102
}
330
25F
100
AcDbDictionary
1001
ACAD
1000
TREAT_AS_HARD
1070
     0
  0
DICTIONARY
  5
465
102
{ACAD_REACTORS
330
25F
102
}
330
25F
100
AcDbDictionary
1001
ACAD
1000
<All
1000
TREAT_AS_HARD
1070
     0
  0
SORTENTSTABLE
  5
45B
102
{ACAD_REACTORS
330
12A
102
}
330
12A
100
AcDbSortentsTable
330
1F
331
0
  5
438
331
437
  5
439
331
438
  5
43A
331
439
  5
43B
331
43B
  5
440
331
43C
  5
441
331
43D
  5
442
331
43F
  5
444
331
441
  5
446
331
443
  5
448
331
445
  5
44A
331
447
  5
44C
331
448
  5
44D
331
449
  5
44E
331
44A
  5
44F
331
44B
  5
450
331
44C
  5
451
331
44D
  5
452
331
44E
  5
453
331
44F
  5
454
331
450
  5
455
331
451
  5
456
331
452
  5
457
331
454
  5
45C
331
455
  5
45D
331
456
  5
45E
331
457
  5
45F
331
45D
  5
460
331
460
  5
43F
  0
DICTIONARY
  5
12B
102
{ACAD_REACTORS
330
12A
102
}
330
12A
100
AcDbDictionary
1001
ACAD
1000
TREAT_AS_HARD
1070
     0
  0
MLINESTYLE
  5
18
102
{ACAD_REACTORS
330
17
102
}
330
17
100
AcDbMlineStyle
  2
STANDARD
 70
     0
  3

 62
   256
 51
90.0
 52
90.0
 71
     2
 49
0.5
 62
   256
  6
BYLAYER
 49
-0.5
 62
   256
  6
BYLAYER
  0
DICTIONARYVAR
  5
67
102
{ACAD_REACTORS
330
66
102
}
330
66
100
DictionaryVariables
280
     0
  1
2
  0
DICTIONARYVAR
  5
6B
102
{ACAD_REACTORS
330
66
102
}
330
66
100
DictionaryVariables
280
     0
  1
1
  0
ENDSEC
  0
EOF
